{
.appVersion = "1357";
classes = (
{
code = "uni05D0 uni05D1 uni05D2 uni05D3 uni05D4 uni05D5 uni05D6 uni05D7 uni05D8 uni05D9 uni05DA uni05DB uni05DC uni05DD uni05DE uni05DF uni05E0 uni05E1 uni05E2 uni05E3 uni05E4 uni05E5 uni05E6 uni05E7 uni05E8 uni05E9 uni05EA uni05F0 uni05F1 uni05F2 uniFB21 uniFB22 uniFB23 uniFB24 uniFB25 uniFB26 uniFB27 uniFB28 uniFB4F.salt uni25CC";
name = ccmp;
},
{
code = "uni05D0 uni05D1 uni05D2 uni05D3 uni05D4 uni05D5 uni05D6 uni05D7 uni05D8 uni05D9 uni05DA uni05DB uni05DC uni05DD uni05DE uni05DF uni05E0 uni05E1 uni05E2 uni05E3 uni05E4 uni05E5 uni05E6 uni05E7 uni05E8 uni05E9 uni05EA uni05F0 uni05F1 uni05F2 uniFB21 uniFB22 uniFB23 uniFB24 uniFB25 uniFB26 uniFB27 uniFB28 uni05DC.salt uni25CC";
name = ccmp_mark;
},
{
code = "uni0591 uni0596 uni059B uni05A2 uni05A3 uni05A4 uni05A5 uni05A6 uni05A7 uni05AA uni05B0 uni05B1 uni05B2 uni05B3 uni05B4 uni05B5 uni05B6 uni05B7 uni05B8 uni05BB uni05BD uni05C7 uni05B105BD uni05B205BD uni05B305BD";
name = mark;
},
{
code = "uni0592 uni0593 uni0594 uni0595 uni0597 uni0598 uni059C uni059E uni059F uni05A1 uni05A8 uni05AB uni05AC uni05AF";
name = mark2;
},
{
code = "uni0591 uni0596 uni059B uni05A3 uni05A4 uni05A5 uni05A7 uni05BD";
name = mark3;
},
{
code = "uni05D0 uni05D1 uni05D2 uni05D3 uni05D4 uni05D6 uni05D7 uni05D8 uni05D9 uni05DA uni05DB uni05DC uni05DD uni05DE uni05DF uni05E0 uni05E1 uni05E2 uni05E3 uni05E4 uni05E5 uni05E6 uni05E7 uni05E8 uni05E9 uni05EA uni05F1 uni05F2 uniFB21 uniFB22 uniFB23 uniFB24 uniFB25 uniFB26 uniFB27 uniFB28 uni05DC.salt";
name = mark4;
},
{
code = "uniFB31 uniFB32 uniFB33 uniFB34 uniFB35 uniFB36 uniFB2C uniFB38 uniFB39 uniFB3A uniFB3B uniFB3C uniFB3E uniFB40 uniFB41 uniFB2D uniFB44 uniFB46 uniFB47 uniFB49 uniFB4A uniFB2A uniFB2B uniFB4B uniFB1F uniFB2E uniFB2F uniFB30 uniFB43 uniFB48 uniFB4C uniFB4D uniFB4E uni05DC05BC05B9 uni05DC05B9 kafFinal_qamatshb kafFinal_shevahb";
name = mark5;
},
{
code = "uni0591 uni0596 uni059B uni05A2 uni05A3 uni05A4 uni05A5 uni05A6 uni05A7 uni05AA";

glyphs = (
{
glyphname = .notdef;
lastChange = "2022-02-09 09:21:10 +0000";
layers = (
{
hints = (
{
horizontal = 1;
place = "{0, 51}";
type = Stem;
},
{
horizontal = 1;
place = "{663, 51}";
type = Stem;
},
{
place = "{94, 51}";
type = Stem;
},
{
place = "{454, 51}";
type = Stem;
}
);
layerId = "B990E356-538D-4D06-ADE8-234C9F2D2C22";
paths = (
{
closed = 1;
nodes = (
"505 0 LINE",
"505 714 LINE",
"94 714 LINE",
"94 0 LINE"
);
},
{
closed = 1;
nodes = (
"454 663 LINE",
"454 51 LINE",
"145 51 LINE",
"145 663 LINE"
);
}
);
width = 600;
},
{
hints = (
{
horizontal = 1;
place = "{0, 51}";
type = Stem;
},
{
horizontal = 1;
place = "{663, 51}";
type = Stem;
},
{
place = "{94, 51}";
type = Stem;
},
{
place = "{454, 51}";
type = Stem;
}
);
layerId = "4E968995-FE0C-47C4-A23E-AA7FD2BAF135";
paths = (
{
closed = 1;
nodes = (
"505 0 LINE",
"505 714 LINE",
"94 714 LINE",
"94 0 LINE"
);
},
{
closed = 1;
nodes = (
"454 663 LINE",
"454 51 LINE",
"145 51 LINE",
"145 663 LINE"
);
}
);
width = 600;
}
);
script = hebrew;
category = Separator;
},
{
glyphname = uni0591;
lastChange = "2022-02-10 15:16:55 +0000";
layers = (
{
anchors = (
{
name = _b.uni0591;
position = "{0, 10}";
}
);
hints = (
{
horizontal = 1;
place = "{-116, 91}";
type = Stem;
},
{
place = "{-92, 49}";
type = Stem;
},
{
place = "{-25, 50}";
type = Stem;
},
{
place = "{43, 50}";
type = Stem;
}
);
layerId = "B990E356-538D-4D06-ADE8-234C9F2D2C22";
paths = (
{
closed = 1;
nodes = (
"93 -164 LINE SMOOTH",
"93 -107 OFFCURVE",
"72 -79 OFFCURVE",
"25 -72 CURVE",
"25 -26 LINE",
"-25 -26 LINE",
"-25 -72 LINE",
"-70 -79 OFFCURVE",
"-92 -107 OFFCURVE",
"-92 -164 CURVE SMOOTH",
"-92 -188 LINE",
"-43 -188 LINE",
"-43 -165 LINE SMOOTH",
"-43 -130 OFFCURVE",
"-32 -116 OFFCURVE",
"1 -116 CURVE SMOOTH",
"32 -116 OFFCURVE",
"43 -130 OFFCURVE",
"43 -165 CURVE SMOOTH",
"43 -188 LINE",
"93 -188 LINE"
);
}
);
width = 0;
},
{
anchors = (
{
name = _b.uni0591;
position = "{0, 10}";
}
);
hints = (
{
horizontal = 1;
place = "{-116, 91}";
type = Stem;
},
{
place = "{-92, 49}";
type = Stem;
},
{
place = "{-25, 50}";
type = Stem;
},
{
place = "{43, 50}";
type = Stem;
}
);
layerId = "4E968995-FE0C-47C4-A23E-AA7FD2BAF135";
paths = (
{
closed = 1;
nodes = (
"93 -164 LINE SMOOTH",
"93 -107 OFFCURVE",
"72 -79 OFFCURVE",
"25 -72 CURVE",
"25 -26 LINE",
"-25 -26 LINE",
"-25 -72 LINE",
"-70 -79 OFFCURVE",
"-92 -107 OFFCURVE",
"-92 -164 CURVE SMOOTH",
"-92 -188 LINE",
"-43 -188 LINE",
"-43 -165 LINE SMOOTH",
"-43 -130 OFFCURVE",
"-32 -116 OFFCURVE",
"1 -116 CURVE SMOOTH",
"32 -116 OFFCURVE",
"43 -130 OFFCURVE",
"43 -165 CURVE SMOOTH",
"43 -188 LINE",
"93 -188 LINE"
);
}
);
width = 0;
}
);
unicode = 0591;
script = hebrew;
category = Mark;
subCategory = Nonspacing;
},
{
glyphname = uni0592;
lastChange = "2022-02-09 16:06:15 +0000";
layers = (
{
anchors = (
{
name = _t.uni0592;
position = "{112, 659}";
},
{
name = _t.uni0592.2;
position = "{234, 659}";
}
);
hints = (
{
place = "{21, 77}";
type = Stem;
},
{
place = "{77, 77}";
type = Stem;
},
{
place = "{133, 77}";
type = Stem;
},
{
horizontal = 1;
place = "{663, 77}";
type = Stem;
},
{
horizontal = 1;
place = "{764, 78}";
type = Stem;
}
);
layerId = "B990E356-538D-4D06-ADE8-234C9F2D2C22";
paths = (
{
closed = 1;
nodes = (
"210 723 OFFCURVE",
"193 740 OFFCURVE",
"172 740 CURVE SMOOTH",
"150 740 OFFCURVE",
"133 723 OFFCURVE",
"133 701 CURVE SMOOTH",
"133 680 OFFCURVE",
"150 663 OFFCURVE",
"172 663 CURVE SMOOTH",
"193 663 OFFCURVE",
"210 680 OFFCURVE",
"210 701 CURVE SMOOTH"
);
},
{
closed = 1;
nodes = (
"98 723 OFFCURVE",
"81 740 OFFCURVE",
"60 740 CURVE SMOOTH",
"38 740 OFFCURVE",
"21 723 OFFCURVE",
"21 701 CURVE SMOOTH",
"21 680 OFFCURVE",
"38 663 OFFCURVE",
"60 663 CURVE SMOOTH",
"81 663 OFFCURVE",
"98 680 OFFCURVE",
"98 701 CURVE SMOOTH"
);
},
{
closed = 1;
nodes = (
"154 824 OFFCURVE",
"137 842 OFFCURVE",
"116 842 CURVE SMOOTH",
"94 842 OFFCURVE",
"77 824 OFFCURVE",
"77 803 CURVE SMOOTH",
"77 781 OFFCURVE",
"94 764 OFFCURVE",
"116 764 CURVE SMOOTH",
"137 764 OFFCURVE",
"154 781 OFFCURVE",
"154 803 CURVE SMOOTH"
);
}
);
width = 0;
},
{
anchors = (
{
name = _t.uni0592;
position = "{115, 659}";
},
{
name = _t.uni0592.2;
position = "{234, 659}";
}
);
hints = (
{
place = "{-57, 77}";
type = Stem;
},
{
place = "{0, 77}";
type = Stem;
},
{
place = "{56, 77}";
type = Stem;
},
{
horizontal = 1;
place = "{663, 77}";
type = Stem;
},
{
horizontal = 1;
place = "{764, 78}";
type = Stem;
}
);
layerId = "4E968995-FE0C-47C4-A23E-AA7FD2BAF135";
paths = (
{
closed = 1;
nodes = (
"209 723 OFFCURVE",
"192 740 OFFCURVE",
"171 740 CURVE SMOOTH",
"149 740 OFFCURVE",
"132 723 OFFCURVE",
"132 701 CURVE SMOOTH",
"132 680 OFFCURVE",
"149 663 OFFCURVE",
"171 663 CURVE SMOOTH",
"192 663 OFFCURVE",
"209 680 OFFCURVE",
"209 701 CURVE SMOOTH"
);
},
{
closed = 1;
nodes = (
"98 723 OFFCURVE",
"81 740 OFFCURVE",
"60 740 CURVE SMOOTH",
"38 740 OFFCURVE",
"21 723 OFFCURVE",
"21 701 CURVE SMOOTH",
"21 680 OFFCURVE",
"38 663 OFFCURVE",
"60 663 CURVE SMOOTH",
"81 663 OFFCURVE",
"98 680 OFFCURVE",
"98 701 CURVE SMOOTH"
);
},
{
closed = 1;
nodes = (
"153 824 OFFCURVE",
"136 842 OFFCURVE",
"115 842 CURVE SMOOTH",
"93 842 OFFCURVE",
"77 824 OFFCURVE",
"77 803 CURVE SMOOTH",
"77 781 OFFCURVE",
"93 764 OFFCURVE",
"115 764 CURVE SMOOTH",
"136 764 OFFCURVE",
"153 781 OFFCURVE",
"153 803 CURVE SMOOTH"
);
}
);
width = 0;
}
);
unicode = 0592;
script = hebrew;
category = Mark;
subCategory = Nonspacing;
},
{
glyphname = uni0593;
lastChange = "2022-02-09 16:06:15 +0000";
layers = (
{
anchors = (
{
name = _t.uni0592;
position = "{0, 659}";
},
{
name = _t.uni0592.2;
position = "{98, 659}";
}
);
hints = (
{
horizontal = 1;
place = "{663, 210}";
type = Stem;
},
{
place = "{-72, 144}";
type = Stem;
}
);
layerId = "B990E356-538D-4D06-ADE8-234C9F2D2C22";
paths = (
{
closed = 1;
nodes = (
"-72 831 LINE",
"4 789 LINE",
"-72 747 LINE",
"4 705 LINE",
"-72 663 LINE",
"-14 663 LINE",
"72 705 LINE",
"-4 747 LINE",
"72 789 LINE",
"-4 831 LINE",
"72 873 LINE",
"4 873 LINE"
);
}
);
width = 0;
},
{
anchors = (
{
name = _t.uni0592;
position = "{0, 659}";
},
{
name = _t.uni0592.2;
position = "{98, 659}";
}
);
hints = (
{
horizontal = 1;
place = "{663, 210}";
type = Stem;
},
{
place = "{-72, 144}";
type = Stem;
}
);
layerId = "4E968995-FE0C-47C4-A23E-AA7FD2BAF135";
paths = (
{
closed = 1;
nodes = (
"-72 831 LINE",
"4 789 LINE",
"-72 747 LINE",
"4 705 LINE",
"-72 663 LINE",
"-14 663 LINE",
"72 705 LINE",
"-4 747 LINE",
"72 789 LINE",
"-4 831 LINE",
"72 873 LINE",
"4 873 LINE"
);
}
);
width = 0;
}
);
unicode = 0593;
script = hebrew;
category = Mark;
subCategory = Nonspacing;
},
{
glyphname = uni0594;
lastChange = "2022-02-11 09:29:30 +0000";
layers = (
{
anchors = (
{
name = _t.uni0592;
position = "{83, 669}";
}
);
hints = (
{
place = "{46, 78}";
type = Stem;
},
{
place = "{47, 78}";
type = Stem;
},
{
horizontal = 1;
place = "{663, 78}";
type = Stem;
},
{
horizontal = 1;
place = "{765, 77}";
type = Stem;
}
);
layerId = "B990E356-538D-4D06-ADE8-234C9F2D2C22";
paths = (
{
closed = 1;
nodes = (
"47 812 OFFCURVE",
"64 795 OFFCURVE",
"85 795 CURVE SMOOTH",
"108 795 OFFCURVE",
"125 812 OFFCURVE",
"125 833 CURVE SMOOTH",
"125 855 OFFCURVE",
"107 872 OFFCURVE",
"85 872 CURVE SMOOTH",
"64 872 OFFCURVE",
"47 855 OFFCURVE",
"47 833 CURVE SMOOTH"
);
},
{
closed = 1;
nodes = (
"46 710 OFFCURVE",
"63 693 OFFCURVE",
"85 693 CURVE SMOOTH",
"106 693 OFFCURVE",
"124 711 OFFCURVE",
"124 732 CURVE SMOOTH",
"124 753 OFFCURVE",
"106 771 OFFCURVE",
"85 771 CURVE SMOOTH",
"64 771 OFFCURVE",
"46 754 OFFCURVE",
"46 732 CURVE SMOOTH"
);
}
);
width = 0;
},
{
anchors = (
{
name = _t.uni0592;
position = "{88, 669}";
}
);
hints = (
{
place = "{46, 78}";
type = Stem;
},
{
place = "{47, 78}";
type = Stem;
},
{
horizontal = 1;
place = "{663, 78}";
type = Stem;
},
{
horizontal = 1;
place = "{765, 77}";
type = Stem;
}
);
layerId = "4E968995-FE0C-47C4-A23E-AA7FD2BAF135";
paths = (
{
closed = 1;
nodes = (
"47 812 OFFCURVE",
"64 795 OFFCURVE",
"85 795 CURVE SMOOTH",
"108 795 OFFCURVE",
"125 812 OFFCURVE",
"125 833 CURVE SMOOTH",
"125 855 OFFCURVE",
"107 872 OFFCURVE",
"85 872 CURVE SMOOTH",
"64 872 OFFCURVE",
"47 855 OFFCURVE",
"47 833 CURVE SMOOTH"
);
},
{
closed = 1;
nodes = (
"46 710 OFFCURVE",
"63 693 OFFCURVE",
"85 693 CURVE SMOOTH",
"106 693 OFFCURVE",
"124 711 OFFCURVE",
"124 732 CURVE SMOOTH",
"124 753 OFFCURVE",
"106 771 OFFCURVE",
"85 771 CURVE SMOOTH",
"64 771 OFFCURVE",
"46 754 OFFCURVE",
"46 732 CURVE SMOOTH"
);
}
);
width = 0;
}
);
unicode = 0594;
script = hebrew;
category = Mark;
subCategory = Nonspacing;
},
{
glyphname = uni0595;
lastChange = "2022-02-11 09:29:42 +0000";
layers = (
{
anchors = (
{
name = _t.uni0592;
position = "{127, 679}";
}
);
hints = (
{
place = "{47, 54}";
type = Stem;
},
{
place = "{144, 77}";
type = Stem;
},
{
place = "{144, 78}";
type = Stem;
},
{
horizontal = 1;
place = "{663, 78}";
type = Stem;
},
{
horizontal = 1;
place = "{765, 77}";
type = Stem;
}
);
layerId = "B990E356-538D-4D06-ADE8-234C9F2D2C22";
paths = (
{
closed = 1;
nodes = (
"144 802 OFFCURVE",
"161 785 OFFCURVE",
"183 785 CURVE SMOOTH",
"204 785 OFFCURVE",
"222 802 OFFCURVE",
"222 823 CURVE SMOOTH",
"222 845 OFFCURVE",
"204 862 OFFCURVE",
"183 862 CURVE SMOOTH",
"161 862 OFFCURVE",
"144 845 OFFCURVE",
"144 823 CURVE SMOOTH"
);
},
{
closed = 1;
nodes = (
"144 700 OFFCURVE",
"161 683 OFFCURVE",
"182 683 CURVE SMOOTH",
"204 683 OFFCURVE",
"221 700 OFFCURVE",
"221 722 CURVE SMOOTH",
"221 744 OFFCURVE",
"204 761 OFFCURVE",
"182 761 CURVE SMOOTH",
"161 761 OFFCURVE",
"144 743 OFFCURVE",
"144 722 CURVE SMOOTH"
);
},
{
closed = 1;
nodes = (
"101 862 LINE",
"47 862 LINE",
"47 683 LINE",
"101 683 LINE"
);
}
);
width = 0;
},
{
anchors = (
{
name = _t.uni0592;
position = "{127, 679}";
}
);
hints = (
{
place = "{47, 54}";
type = Stem;
},
{
place = "{144, 77}";
type = Stem;
},
{
place = "{144, 78}";
type = Stem;
},
{
horizontal = 1;
place = "{663, 78}";
type = Stem;
},
{
horizontal = 1;
place = "{765, 77}";
type = Stem;
}
);
layerId = "4E968995-FE0C-47C4-A23E-AA7FD2BAF135";
paths = (
{
closed = 1;
nodes = (
"144 802 OFFCURVE",
"161 785 OFFCURVE",
"183 785 CURVE SMOOTH",
"204 785 OFFCURVE",
"222 802 OFFCURVE",
"222 823 CURVE SMOOTH",
"222 845 OFFCURVE",
"204 862 OFFCURVE",
"183 862 CURVE SMOOTH",
"161 862 OFFCURVE",
"144 845 OFFCURVE",
"144 823 CURVE SMOOTH"
);
},
{
closed = 1;
nodes = (
"144 700 OFFCURVE",
"161 683 OFFCURVE",
"182 683 CURVE SMOOTH",
"204 683 OFFCURVE",
"221 700 OFFCURVE",
"221 722 CURVE SMOOTH",
"221 744 OFFCURVE",
"204 761 OFFCURVE",
"182 761 CURVE SMOOTH",
"161 761 OFFCURVE",
"144 743 OFFCURVE",
"144 722 CURVE SMOOTH"
);
},
{
closed = 1;
nodes = (
"101 862 LINE",
"47 862 LINE",
"47 683 LINE",
"101 683 LINE"
);
}
);
width = 0;
}
);
unicode = 0595;
script = hebrew;
category = Mark;
subCategory = Nonspacing;
},
{
glyphname = uni0596;
lastChange = "2022-02-10 15:24:22 +0000";
layers = (
{
anchors = (
{
name = _b.uni0591;
position = "{22, 0}";
}
);
hints = (
{
horizontal = 1;
place = "{-188, 52}";
type = Stem;
},
{
place = "{-87, 54}";
type = Stem;
}
);
layerId = "B990E356-538D-4D06-ADE8-234C9F2D2C22";
paths = (
{
closed = 1;
nodes = (
"-87 -40 LINE",
"-87 -133 OFFCURVE",
"-28 -188 OFFCURVE",
"73 -188 CURVE",
"73 -136 LINE",
"7 -136 OFFCURVE",
"-33 -100 OFFCURVE",
"-33 -40 CURVE"
);
}
);
width = 0;
},
{
anchors = (
{
name = _b.uni0591;
position = "{22, 0}";
}
);
hints = (
{
horizontal = 1;
place = "{-188, 52}";
type = Stem;
},
{
place = "{-87, 54}";
type = Stem;
}
);
layerId = "4E968995-FE0C-47C4-A23E-AA7FD2BAF135";
paths = (
{
closed = 1;
nodes = (
"-87 -40 LINE",
"-87 -133 OFFCURVE",
"-28 -188 OFFCURVE",
"73 -188 CURVE",
"73 -136 LINE",
"7 -136 OFFCURVE",
"-33 -100 OFFCURVE",
"-33 -40 CURVE"
);
}
);
width = 0;
}
);
unicode = 0596;
script = hebrew;
category = Mark;
subCategory = Nonspacing;
},
{
glyphname = uni0597;
lastChange = "2022-02-10 15:33:26 +0000";
layers = (
{
anchors = (
{
name = _t.uni0592;
position = "{0, 659}";
}
);
hints = (
{
horizontal = 1;
place = "{668, 164}";
type = Stem;
},
{
place = "{-74, 149}";
type = Stem;
}
);
layerId = "B990E356-538D-4D06-ADE8-234C9F2D2C22";
paths = (
{
closed = 1;
nodes = (
"-74 750 LINE",
"0 668 LINE",
"74 750 LINE",
"0 832 LINE"
);
}
);
width = 0;
},
{
anchors = (
{
name = _t.uni0592;
position = "{0, 659}";
}
);
hints = (
{
horizontal = 1;
place = "{668, 164}";
type = Stem;
},
{
place = "{-74, 149}";
type = Stem;
}
);
layerId = "4E968995-FE0C-47C4-A23E-AA7FD2BAF135";
paths = (
{
closed = 1;
nodes = (
"-74 750 LINE",
"0 668 LINE",
"74 750 LINE",
"0 832 LINE"
);
}
);
width = 0;
}
);
unicode = 0597;
script = hebrew;
category = Mark;
subCategory = Nonspacing;
},
{
glyphname = uni0598;
lastChange = "2022-02-09 16:06:15 +0000";
layers = (
{
anchors = (
{
name = _t.uni0592;
position = "{0, 659}";
},
{
name = _t.uni0592.2;
position = "{146, 659}";
}
);
hints = (
{
horizontal = 1;
place = "{665, 35}";
type = Stem;
},
{
horizontal = 1;
place = "{778, 35}";
type = Stem;
},
{
place = "{-146, 38}";
type = Stem;
},
{
place = "{108, 38}";
type = Stem;
}
);
layerId = "B990E356-538D-4D06-ADE8-234C9F2D2C22";
paths = (
{
closed = 1;
nodes = (
"-54 778 OFFCURVE",
"-43 768 OFFCURVE",
"-14 727 CURVE SMOOTH",
"20 680 OFFCURVE",
"43 665 OFFCURVE",
"76 665 CURVE SMOOTH",
"117 665 OFFCURVE",
"146 694 OFFCURVE",
"146 737 CURVE SMOOTH",
"146 775 OFFCURVE",
"128 801 OFFCURVE",
"93 814 CURVE",
"80 779 LINE",
"99 771 OFFCURVE",
"108 758 OFFCURVE",
"108 737 CURVE SMOOTH",
"108 713 OFFCURVE",
"94 700 OFFCURVE",
"76 700 CURVE SMOOTH",
"55 700 OFFCURVE",
"40 714 OFFCURVE",
"14 751 CURVE SMOOTH",
"-21 799 OFFCURVE",
"-43 813 OFFCURVE",
"-74 813 CURVE SMOOTH",
"-117 813 OFFCURVE",
"-146 784 OFFCURVE",
"-146 741 CURVE SMOOTH",
"-146 702 OFFCURVE",
"-128 676 OFFCURVE",
"-93 664 CURVE",
"-80 699 LINE",
"-99 707 OFFCURVE",
"-108 720 OFFCURVE",
"-108 741 CURVE SMOOTH",
"-108 765 OFFCURVE",
"-94 778 OFFCURVE",
"-76 778 CURVE SMOOTH"
);
}
);
width = 0;
},
{
anchors = (
{
name = _t.uni0592;
position = "{0, 659}";
},
{
name = _t.uni0592.2;
position = "{156, 659}";
}
);
hints = (
{
horizontal = 1;
place = "{665, 35}";
type = Stem;
},
{
horizontal = 1;
place = "{778, 35}";
type = Stem;
},
{
place = "{-146, 38}";
type = Stem;
},
{
place = "{108, 38}";
type = Stem;
}
);
layerId = "4E968995-FE0C-47C4-A23E-AA7FD2BAF135";
paths = (
{
closed = 1;
nodes = (
"-54 778 OFFCURVE",
"-43 768 OFFCURVE",
"-14 727 CURVE SMOOTH",
"20 680 OFFCURVE",
"43 665 OFFCURVE",
"76 665 CURVE SMOOTH",
"117 665 OFFCURVE",
"146 694 OFFCURVE",
"146 737 CURVE SMOOTH",
"146 775 OFFCURVE",
"128 801 OFFCURVE",
"93 814 CURVE",
"80 779 LINE",
"99 771 OFFCURVE",
"108 758 OFFCURVE",
"108 737 CURVE SMOOTH",
"108 713 OFFCURVE",
"94 700 OFFCURVE",
"76 700 CURVE SMOOTH",
"55 700 OFFCURVE",
"40 714 OFFCURVE",
"14 751 CURVE SMOOTH",
"-21 799 OFFCURVE",
"-43 813 OFFCURVE",
"-74 813 CURVE SMOOTH",
"-117 813 OFFCURVE",
"-146 784 OFFCURVE",
"-146 741 CURVE SMOOTH",
"-146 702 OFFCURVE",
"-128 676 OFFCURVE",
"-93 664 CURVE",
"-80 699 LINE",
"-99 707 OFFCURVE",
"-108 720 OFFCURVE",
"-108 741 CURVE SMOOTH",
"-108 765 OFFCURVE",
"-94 778 OFFCURVE",
"-76 778 CURVE SMOOTH"
);
}
);
width = 0;
}
);
unicode = 0598;
script = hebrew;
category = Mark;
subCategory = Nonspacing;
},
{
glyphname = uni0599;
lastChange = "2022-02-09 16:06:15 +0000";
layers = (
{
anchors = (
{
name = _t.uni0599;
position = "{0, 659}";
}
);
hints = (
{
horizontal = 1;
place = "{759, 53}";
type = Stem;
},
{
place = "{-54, 54}";
type = Stem;
}
);
layerId = "B990E356-538D-4D06-ADE8-234C9F2D2C22";
paths = (
{
closed = 1;
nodes = (
"0 663 LINE",
"0 758 OFFCURVE",
"-60 812 OFFCURVE",
"-160 812 CURVE",
"-160 759 LINE",
"-92 759 OFFCURVE",
"-54 723 OFFCURVE",
"-54 663 CURVE"
);
}
);
width = 0;
},
{
anchors = (
{
name = _t.uni0599;
position = "{0, 659}";
}
);
hints = (
{
horizontal = 1;
place = "{759, 53}";
type = Stem;
},
{
place = "{-54, 54}";
type = Stem;
}
);
layerId = "4E968995-FE0C-47C4-A23E-AA7FD2BAF135";
paths = (
{
closed = 1;
nodes = (
"0 663 LINE",
"0 758 OFFCURVE",
"-60 812 OFFCURVE",
"-160 812 CURVE",
"-160 759 LINE",
"-92 759 OFFCURVE",
"-54 723 OFFCURVE",
"-54 663 CURVE"
);
}
);
width = 0;
}
);
unicode = 0599;
script = hebrew;
category = Mark;
subCategory = Nonspacing;
},
{
glyphname = uni059A;
lastChange = "2022-02-09 16:06:15 +0000";
layers = (
{
anchors = (
{
name = _b.uni059A;
position = "{0, 20}";
}
);
hints = (
{
horizontal = 1;
place = "{-188, 176}";
type = Stem;
},
{
place = "{0, 157}";
type = Stem;
}
);
layerId = "B990E356-538D-4D06-ADE8-234C9F2D2C22";
paths = (
{
closed = 1;
nodes = (
"157 -12 LINE",
"87 -12 LINE",
"0 -100 LINE",
"87 -188 LINE",
"157 -188 LINE",
"70 -100 LINE"
);
}
);
width = 0;
},
{
anchors = (
{
name = _b.uni059A;
position = "{0, 20}";
}
);
hints = (
{
horizontal = 1;
place = "{-188, 176}";
type = Stem;
},
{
place = "{0, 157}";
type = Stem;
}
);
layerId = "4E968995-FE0C-47C4-A23E-AA7FD2BAF135";
paths = (
{
closed = 1;
nodes = (
"157 -12 LINE",
"87 -12 LINE",
"0 -100 LINE",
"87 -188 LINE",
"157 -188 LINE",
"70 -100 LINE"
);
}
);
width = 0;
}
);
unicode = 059A;
script = hebrew;
category = Mark;
subCategory = Nonspacing;
},
{
glyphname = uni059B;
lastChange = "2022-02-10 17:12:05 +0000";
layers = (
{
anchors = (
{
name = _b.uni0591;
position = "{0, 10}";
}
);
hints = (
{
horizontal = 1;
place = "{-188, 52}";
type = Stem;
},
{
horizontal = 1;
place = "{-85, 78}";
type = Stem;
},
{
place = "{-105, 77}";
type = Stem;
},
{
place = "{20, 53}";
type = Stem;
}
);
layerId = "B990E356-538D-4D06-ADE8-234C9F2D2C22";
paths = (
{
closed = 1;
nodes = (
"20 -40 LINE",
"20 -100 OFFCURVE",
"-21 -136 OFFCURVE",
"-87 -136 CURVE",
"-87 -188 LINE",
"16 -188 OFFCURVE",
"73 -132 OFFCURVE",
"73 -40 CURVE"
);
},
{
closed = 1;
nodes = (
"-105 -68 OFFCURVE",
"-88 -85 OFFCURVE",
"-67 -85 CURVE SMOOTH",
"-45 -85 OFFCURVE",
"-28 -68 OFFCURVE",
"-28 -46 CURVE SMOOTH",
"-28 -24 OFFCURVE",
"-45 -7 OFFCURVE",
"-67 -7 CURVE SMOOTH",
"-88 -7 OFFCURVE",
"-105 -25 OFFCURVE",
"-105 -46 CURVE SMOOTH"
);
}
);
width = 0;
},
{
anchors = (
{
name = _b.uni0591;
position = "{-10, 10}";
}
);
hints = (
{
horizontal = 1;
place = "{-188, 52}";
type = Stem;
},
{
horizontal = 1;
place = "{-85, 78}";
type = Stem;
},
{
place = "{-105, 77}";
type = Stem;
},
{
place = "{20, 53}";
type = Stem;
}
);
layerId = "4E968995-FE0C-47C4-A23E-AA7FD2BAF135";
paths = (
{
closed = 1;
nodes = (
"20 -40 LINE",
"20 -100 OFFCURVE",
"-21 -136 OFFCURVE",
"-87 -136 CURVE",
"-87 -188 LINE",
"16 -188 OFFCURVE",
"73 -132 OFFCURVE",
"73 -40 CURVE"
);
},
{
closed = 1;
nodes = (
"-105 -68 OFFCURVE",
"-88 -85 OFFCURVE",
"-67 -85 CURVE SMOOTH",
"-45 -85 OFFCURVE",
"-28 -68 OFFCURVE",
"-28 -46 CURVE SMOOTH",
"-28 -24 OFFCURVE",
"-45 -7 OFFCURVE",
"-67 -7 CURVE SMOOTH",
"-88 -7 OFFCURVE",
"-105 -25 OFFCURVE",
"-105 -46 CURVE SMOOTH"
);
}
);
width = 0;
}
);
unicode = 059B;
script = hebrew;
category = Mark;
subCategory = Nonspacing;
},
{
glyphname = uni059C;
lastChange = "2022-02-10 14:18:35 +0000";
layers = (
{
anchors = (
{
name = _t.uni0592;
position = "{78, 659}";
}
);
hints = (
{
horizontal = 1;
place = "{759, 53}";
type = Stem;
},
{
place = "{0, 54}";
type = Stem;
}
);
layerId = "B990E356-538D-4D06-ADE8-234C9F2D2C22";
paths = (
{
closed = 1;
nodes = (
"54 663 LINE",
"54 725 OFFCURVE",
"94 759 OFFCURVE",
"160 759 CURVE",
"160 812 LINE",
"60 812 OFFCURVE",
"0 757 OFFCURVE",
"0 663 CURVE"
);
}
);
width = 0;
},
{
anchors = (
{
name = _t.uni0592;
position = "{78, 659}";
}
);
hints = (
{
horizontal = 1;
place = "{759, 53}";
type = Stem;
},
{
place = "{0, 54}";
type = Stem;
}
);
layerId = "4E968995-FE0C-47C4-A23E-AA7FD2BAF135";
paths = (
{
closed = 1;
nodes = (
"54 663 LINE",
"54 725 OFFCURVE",
"94 759 OFFCURVE",
"160 759 CURVE",
"160 812 LINE",
"60 812 OFFCURVE",
"0 757 OFFCURVE",
"0 663 CURVE"
);
}
);
width = 0;
}
);
unicode = 059C;
script = hebrew;
category = Mark;
subCategory = Nonspacing;
},
{
glyphname = uni059D;
lastChange = "2022-02-09 16:06:15 +0000";
layers = (
{
anchors = (
{
name = _t.uni059D;
position = "{0, 659}";
}
);
hints = (
{
horizontal = 1;
place = "{759, 53}";
type = Stem;
},
{
place = "{0, 54}";
type = Stem;
}
);
layerId = "B990E356-538D-4D06-ADE8-234C9F2D2C22";
paths = (
{
closed = 1;
nodes = (
"54 663 LINE",
"54 725 OFFCURVE",
"94 759 OFFCURVE",
"160 759 CURVE",
"160 812 LINE",
"60 812 OFFCURVE",
"0 757 OFFCURVE",
"0 663 CURVE"
);
}
);
width = 0;
},
{
anchors = (
{
name = _t.uni059D;
position = "{0, 659}";
}
);
hints = (
{
horizontal = 1;
place = "{759, 53}";
type = Stem;
},
{
place = "{0, 54}";
type = Stem;
}
);
layerId = "4E968995-FE0C-47C4-A23E-AA7FD2BAF135";
paths = (
{
closed = 1;
nodes = (
"54 663 LINE",
"54 725 OFFCURVE",
"94 759 OFFCURVE",
"160 759 CURVE",
"160 812 LINE",
"60 812 OFFCURVE",
"0 757 OFFCURVE",
"0 663 CURVE"
);
}
);
width = 0;
}
);
unicode = 059D;
script = hebrew;
category = Mark;
subCategory = Nonspacing;
},
{
glyphname = uni059E;
lastChange = "2022-02-09 16:06:15 +0000";
layers = (
{
anchors = (
{
name = _t.uni0592;
position = "{-49, 659}";
},
{
name = _t.uni0592.2;
position = "{146, 659}";
}
);
hints = (
{
horizontal = 1;
place = "{759, 53}";
type = Stem;
},
{
place = "{-160, 54}";
type = Stem;
},
{
place = "{0, 54}";
type = Stem;
}
);
layerId = "B990E356-538D-4D06-ADE8-234C9F2D2C22";
paths = (
{
closed = 1;
nodes = (
"54 663 LINE",
"54 725 OFFCURVE",
"94 759 OFFCURVE",
"160 759 CURVE",
"160 812 LINE",
"60 812 OFFCURVE",
"0 757 OFFCURVE",
"0 663 CURVE"
);
},
{
closed = 1;
nodes = (
"-106 663 LINE",
"-106 725 OFFCURVE",
"-66 759 OFFCURVE",
"0 759 CURVE",
"0 812 LINE",
"-102 812 OFFCURVE",
"-160 756 OFFCURVE",
"-160 663 CURVE"
);
}
);
width = 0;
},
{
anchors = (
{
name = _t.uni0592;
position = "{-49, 659}";
},
{
name = _t.uni0592.2;
position = "{166, 659}";
}
);
hints = (
{
horizontal = 1;
place = "{759, 53}";
type = Stem;
},
{
place = "{-160, 54}";
type = Stem;
},
{
place = "{0, 54}";
type = Stem;
}
);
layerId = "4E968995-FE0C-47C4-A23E-AA7FD2BAF135";
paths = (
{
closed = 1;
nodes = (
"54 663 LINE",
"54 725 OFFCURVE",
"94 759 OFFCURVE",
"160 759 CURVE",
"160 812 LINE",
"60 812 OFFCURVE",
"0 757 OFFCURVE",
"0 663 CURVE"
);
},
{
closed = 1;
nodes = (
"-106 663 LINE",
"-106 725 OFFCURVE",
"-66 759 OFFCURVE",
"0 759 CURVE",
"0 812 LINE",
"-102 812 OFFCURVE",
"-160 756 OFFCURVE",
"-160 663 CURVE"
);
}
);
width = 0;
}
);
unicode = 059E;
script = hebrew;
category = Mark;
subCategory = Nonspacing;
},
{
glyphname = uni059F;
lastChange = "2022-02-09 16:06:15 +0000";
layers = (
{
anchors = (
{
name = _t.uni0592;
position = "{0, 659}";
},
{
name = _t.uni0592.2;
position = "{244, 659}";
}
);
hints = (
{
horizontal = 1;
place = "{685, 58}";
type = Stem;
},
{
horizontal = 1;
place = "{837, 58}";
type = Stem;
},
{
place = "{-255, 58}";
type = Stem;
},
{
place = "{-103, 59}";
type = Stem;
},
{
place = "{44, 59}";
type = Stem;
},
{
place = "{197, 58}";
type = Stem;
}
);
layerId = "B990E356-538D-4D06-ADE8-234C9F2D2C22";
paths = (
{
closed = 1;
nodes = (
"44 771 OFFCURVE",
"49 753 OFFCURVE",
"58 738 CURVE",
"15 695 LINE",
"55 654 LINE",
"98 697 LINE",
"113 689 OFFCURVE",
"130 685 OFFCURVE",
"149 685 CURVE SMOOTH",
"209 685 OFFCURVE",
"255 732 OFFCURVE",
"255 790 CURVE SMOOTH",
"255 849 OFFCURVE",
"208 895 OFFCURVE",
"149 895 CURVE SMOOTH",
"91 895 OFFCURVE",
"44 848 OFFCURVE",
"44 790 CURVE SMOOTH"
);
},
{
closed = 1;
nodes = (
"103 816 OFFCURVE",
"125 837 OFFCURVE",
"149 837 CURVE SMOOTH",
"174 837 OFFCURVE",
"197 815 OFFCURVE",
"197 790 CURVE SMOOTH",
"197 765 OFFCURVE",
"175 743 OFFCURVE",
"149 743 CURVE SMOOTH",
"124 743 OFFCURVE",
"103 764 OFFCURVE",
"103 790 CURVE SMOOTH"
);
},
{
closed = 1;
nodes = (
"-44 848 OFFCURVE",
"-91 895 OFFCURVE",
"-149 895 CURVE SMOOTH",
"-208 895 OFFCURVE",
"-255 848 OFFCURVE",
"-255 790 CURVE SMOOTH",
"-255 731 OFFCURVE",
"-209 685 OFFCURVE",
"-149 685 CURVE SMOOTH",
"-130 685 OFFCURVE",
"-113 689 OFFCURVE",
"-98 697 CURVE",
"-55 654 LINE",
"-15 695 LINE",
"-58 738 LINE",
"-49 753 OFFCURVE",
"-44 771 OFFCURVE",
"-44 790 CURVE SMOOTH"
);
},
{
closed = 1;
nodes = (
"-103 764 OFFCURVE",
"-124 743 OFFCURVE",
"-149 743 CURVE SMOOTH",
"-175 743 OFFCURVE",
"-197 765 OFFCURVE",
"-197 790 CURVE SMOOTH",
"-197 815 OFFCURVE",
"-174 837 OFFCURVE",
"-149 837 CURVE SMOOTH",
"-125 837 OFFCURVE",
"-103 816 OFFCURVE",
"-103 790 CURVE SMOOTH"
);
}
);
width = 0;
},
{
anchors = (
{
name = _t.uni0592;
position = "{0, 659}";
},
{
name = _t.uni0592.2;
position = "{244, 659}";
}
);
hints = (
{
horizontal = 1;
place = "{685, 58}";
type = Stem;
},
{
horizontal = 1;
place = "{837, 58}";
type = Stem;
},
{
place = "{-255, 58}";
type = Stem;
},
{
place = "{-103, 59}";
type = Stem;
},
{
place = "{44, 59}";
type = Stem;
},
{
place = "{197, 58}";
type = Stem;
}
);
layerId = "4E968995-FE0C-47C4-A23E-AA7FD2BAF135";
paths = (
{
closed = 1;
nodes = (
"44 771 OFFCURVE",
"49 753 OFFCURVE",
"58 738 CURVE",
"15 695 LINE",
"55 654 LINE",
"98 697 LINE",
"113 689 OFFCURVE",
"130 685 OFFCURVE",
"149 685 CURVE SMOOTH",
"209 685 OFFCURVE",
"255 732 OFFCURVE",
"255 790 CURVE SMOOTH",
"255 849 OFFCURVE",
"208 895 OFFCURVE",
"149 895 CURVE SMOOTH",
"91 895 OFFCURVE",
"44 848 OFFCURVE",
"44 790 CURVE SMOOTH"
);
},
{
closed = 1;
nodes = (
"103 816 OFFCURVE",
"125 837 OFFCURVE",
"149 837 CURVE SMOOTH",
"174 837 OFFCURVE",
"197 815 OFFCURVE",
"197 790 CURVE SMOOTH",
"197 765 OFFCURVE",
"175 743 OFFCURVE",
"149 743 CURVE SMOOTH",
"124 743 OFFCURVE",
"103 764 OFFCURVE",
"103 790 CURVE SMOOTH"
);
},
{
closed = 1;
nodes = (
"-44 848 OFFCURVE",
"-91 895 OFFCURVE",
"-149 895 CURVE SMOOTH",
"-208 895 OFFCURVE",
"-255 848 OFFCURVE",
"-255 790 CURVE SMOOTH",
"-255 731 OFFCURVE",
"-209 685 OFFCURVE",
"-149 685 CURVE SMOOTH",
"-130 685 OFFCURVE",
"-113 689 OFFCURVE",
"-98 697 CURVE",
"-55 654 LINE",
"-15 695 LINE",
"-58 738 LINE",
"-49 753 OFFCURVE",
"-44 771 OFFCURVE",
"-44 790 CURVE SMOOTH"
);
},
{
closed = 1;
nodes = (
"-103 764 OFFCURVE",
"-124 743 OFFCURVE",
"-149 743 CURVE SMOOTH",
"-175 743 OFFCURVE",
"-197 765 OFFCURVE",
"-197 790 CURVE SMOOTH",
"-197 815 OFFCURVE",
"-174 837 OFFCURVE",
"-149 837 CURVE SMOOTH",
"-125 837 OFFCURVE",
"-103 816 OFFCURVE",
"-103 790 CURVE SMOOTH"
);
}
);
width = 0;
}
);
unicode = 059F;
script = hebrew;
category = Mark;
subCategory = Nonspacing;
},
{
glyphname = uni05A0;
lastChange = "2022-02-09 16:06:15 +0000";
layers = (
{
anchors = (
{
name = _t.uni059D;
position = "{0, 659}";
}
);
hints = (
{
horizontal = 1;
place = "{685, 58}";
type = Stem;
},
{
horizontal = 1;
place = "{837, 58}";
type = Stem;
},
{
place = "{30, 58}";
type = Stem;
},
{
place = "{182, 58}";
type = Stem;
}
);
layerId = "B990E356-538D-4D06-ADE8-234C9F2D2C22";
paths = (
{
closed = 1;
nodes = (
"30 770 OFFCURVE",
"34 753 OFFCURVE",
"43 738 CURVE",
"0 695 LINE",
"41 654 LINE",
"83 697 LINE",
"99 689 OFFCURVE",
"116 685 OFFCURVE",
"135 685 CURVE SMOOTH",
"193 685 OFFCURVE",
"240 731 OFFCURVE",
"240 790 CURVE SMOOTH",
"240 849 OFFCURVE",
"192 895 OFFCURVE",
"135 895 CURVE SMOOTH",
"77 895 OFFCURVE",
"30 848 OFFCURVE",
"30 790 CURVE SMOOTH"
);
},
{
closed = 1;
nodes = (
"88 816 OFFCURVE",
"110 837 OFFCURVE",
"135 837 CURVE SMOOTH",
"160 837 OFFCURVE",
"182 816 OFFCURVE",
"182 790 CURVE SMOOTH",
"182 764 OFFCURVE",
"162 743 OFFCURVE",
"135 743 CURVE SMOOTH",
"109 743 OFFCURVE",
"88 764 OFFCURVE",
"88 790 CURVE SMOOTH"
);
}
);
width = 0;
},
{
anchors = (
{
name = _t.uni059D;
position = "{0, 659}";
}
);
hints = (
{
horizontal = 1;
place = "{685, 58}";
type = Stem;
},
{
horizontal = 1;
place = "{837, 58}";
type = Stem;
},
{
place = "{30, 58}";
type = Stem;
},
{
place = "{182, 58}";
type = Stem;
}
);
layerId = "4E968995-FE0C-47C4-A23E-AA7FD2BAF135";
paths = (
{
closed = 1;
nodes = (
"30 770 OFFCURVE",
"34 753 OFFCURVE",
"43 738 CURVE",
"0 695 LINE",
"41 654 LINE",
"83 697 LINE",
"99 689 OFFCURVE",
"116 685 OFFCURVE",
"135 685 CURVE SMOOTH",
"193 685 OFFCURVE",
"240 731 OFFCURVE",
"240 790 CURVE SMOOTH",
"240 849 OFFCURVE",
"192 895 OFFCURVE",
"135 895 CURVE SMOOTH",
"77 895 OFFCURVE",
"30 848 OFFCURVE",
"30 790 CURVE SMOOTH"
);
},
{
closed = 1;
nodes = (
"88 816 OFFCURVE",
"110 837 OFFCURVE",
"135 837 CURVE SMOOTH",
"160 837 OFFCURVE",
"182 816 OFFCURVE",
"182 790 CURVE SMOOTH",
"182 764 OFFCURVE",
"162 743 OFFCURVE",
"135 743 CURVE SMOOTH",
"109 743 OFFCURVE",
"88 764 OFFCURVE",
"88 790 CURVE SMOOTH"
);
}
);
width = 0;
}
);
unicode = 05A0;
script = hebrew;
category = Mark;
subCategory = Nonspacing;
},
{
glyphname = uni05A1;
lastChange = "2022-02-10 15:23:50 +0000";
layers = (
{
anchors = (
{
name = _t.uni0592;
position = "{0, 659}";
}
);
hints = (
{
horizontal = 1;
place = "{708, 44}";
type = Stem;
},
{
place = "{-80, 50}";
type = Stem;
},
{
place = "{32, 50}";
type = Stem;
}
);
layerId = "B990E356-538D-4D06-ADE8-234C9F2D2C22";
paths = (
{
closed = 1;
nodes = (
"32 825 LINE",
"32 801 LINE SMOOTH",
"32 765 OFFCURVE",
"21 752 OFFCURVE",
"-10 752 CURVE SMOOTH",
"-21 752 OFFCURVE",
"-27 754 OFFCURVE",
"-31 758 CURVE",
"-31 825 LINE",
"-80 825 LINE",
"-80 663 LINE",
"-31 663 LINE",
"-31 713 LINE",
"-23 709 OFFCURVE",
"-14 708 OFFCURVE",
"-3 708 CURVE SMOOTH",
"54 708 OFFCURVE",
"82 744 OFFCURVE",
"82 801 CURVE SMOOTH",
"82 825 LINE"
);
}
);
width = 0;
},
{
anchors = (
{
name = _t.uni0592;
position = "{0, 659}";
}
);
hints = (
{
horizontal = 1;
place = "{708, 44}";
type = Stem;
},
{
place = "{-80, 50}";
type = Stem;
},
{
place = "{32, 50}";
type = Stem;
}
);
layerId = "4E968995-FE0C-47C4-A23E-AA7FD2BAF135";
paths = (
{
closed = 1;
nodes = (
"32 825 LINE",
"32 801 LINE SMOOTH",
"32 765 OFFCURVE",
"21 752 OFFCURVE",
"-10 752 CURVE SMOOTH",
"-21 752 OFFCURVE",
"-27 754 OFFCURVE",
"-31 758 CURVE",
"-31 825 LINE",
"-80 825 LINE",
"-80 663 LINE",
"-31 663 LINE",
"-31 713 LINE",
"-23 709 OFFCURVE",
"-14 708 OFFCURVE",
"-3 708 CURVE SMOOTH",
"54 708 OFFCURVE",
"82 744 OFFCURVE",
"82 801 CURVE SMOOTH",
"82 825 LINE"
);
}
);
width = 0;
}
);
unicode = 05A1;
script = hebrew;
category = Mark;
subCategory = Nonspacing;
},
{
glyphname = uni05A2;
lastChange = "2022-02-10 15:23:43 +0000";
layers = (
{
anchors = (
{
name = _b.uni0591;
position = "{0, 10}";
}
);
hints = (
{
horizontal = 1;
place = "{-188, 89}";
type = Stem;
},
{
place = "{-92, 49}";
type = Stem;
},
{
place = "{-25, 50}";
type = Stem;
},
{
place = "{43, 50}";
type = Stem;
}
);
layerId = "B990E356-538D-4D06-ADE8-234C9F2D2C22";
paths = (
{
closed = 1;
nodes = (
"93 -26 LINE",
"43 -26 LINE",
"43 -50 LINE SMOOTH",
"43 -84 OFFCURVE",
"32 -99 OFFCURVE",
"1 -99 CURVE SMOOTH",
"-32 -99 OFFCURVE",
"-43 -84 OFFCURVE",
"-43 -50 CURVE SMOOTH",
"-43 -26 LINE",
"-92 -26 LINE",
"-92 -50 LINE SMOOTH",
"-92 -109 OFFCURVE",
"-68 -137 OFFCURVE",
"-25 -143 CURVE",
"-25 -188 LINE",
"25 -188 LINE",
"25 -143 LINE",
"70 -136 OFFCURVE",
"93 -108 OFFCURVE",
"93 -50 CURVE SMOOTH"
);
}
);
width = 0;
},
{
anchors = (
{
name = _b.uni0591;
position = "{0, 10}";
}
);
hints = (
{
horizontal = 1;
place = "{-188, 89}";
type = Stem;
},
{
place = "{-92, 49}";
type = Stem;
},
{
place = "{-25, 50}";
type = Stem;
},
{
place = "{43, 50}";
type = Stem;
}
);
layerId = "4E968995-FE0C-47C4-A23E-AA7FD2BAF135";
paths = (
{
closed = 1;
nodes = (
"93 -26 LINE",
"43 -26 LINE",
"43 -50 LINE SMOOTH",
"43 -84 OFFCURVE",
"32 -99 OFFCURVE",
"1 -99 CURVE SMOOTH",
"-32 -99 OFFCURVE",
"-43 -84 OFFCURVE",
"-43 -50 CURVE SMOOTH",
"-43 -26 LINE",
"-92 -26 LINE",
"-92 -50 LINE SMOOTH",
"-92 -109 OFFCURVE",
"-68 -137 OFFCURVE",
"-25 -143 CURVE",
"-25 -188 LINE",
"25 -188 LINE",
"25 -143 LINE",
"70 -136 OFFCURVE",
"93 -108 OFFCURVE",
"93 -50 CURVE SMOOTH"
);
}
);
width = 0;
}
);
unicode = 05A2;
script = hebrew;
category = Mark;
subCategory = Nonspacing;
},
{
glyphname = uni05A3;
lastChange = "2022-02-10 15:15:11 +0000";
layers = (
{
anchors = (
{
name = _b.uni0591;
position = "{0, 10}";
}
);
hints = (
{
horizontal = 1;
place = "{-170, 52}";
type = Stem;
},
{
place = "{17, 53}";
type = Stem;
}
);
layerId = "B990E356-538D-4D06-ADE8-234C9F2D2C22";
paths = (
{
closed = 1;
nodes = (
"17 -118 LINE",
"-90 -118 LINE",
"-90 -170 LINE",
"70 -170 LINE",
"70 -17 LINE",
"17 -17 LINE"
);
}
);
width = 0;
},
{
anchors = (
{
name = _b.uni0591;
position = "{0, 10}";
}
);
hints = (
{
horizontal = 1;
place = "{-170, 52}";
type = Stem;
},
{
place = "{17, 53}";
type = Stem;
}
);
layerId = "4E968995-FE0C-47C4-A23E-AA7FD2BAF135";
paths = (
{
closed = 1;
nodes = (
"17 -118 LINE",
"-90 -118 LINE",
"-90 -170 LINE",
"70 -170 LINE",
"70 -17 LINE",
"17 -17 LINE"
);
}
);
width = 0;
}
);
unicode = 05A3;
script = hebrew;
category = Mark;
subCategory = Nonspacing;
},
{
glyphname = uni05A4;
lastChange = "2022-02-10 14:49:30 +0000";
layers = (
{
anchors = (
{
name = _b.uni0591;
position = "{0, 10}";
}
);
hints = (
{
horizontal = 1;
place = "{-188, 176}";
type = Stem;
},
{
place = "{-79, 158}";
type = Stem;
}
);
layerId = "B990E356-538D-4D06-ADE8-234C9F2D2C22";
paths = (
{
closed = 1;
nodes = (
"79 -12 LINE",
"9 -12 LINE",
"-79 -100 LINE",
"9 -188 LINE",
"79 -188 LINE",
"-9 -100 LINE"
);
}
);
width = 0;
},
{
anchors = (
{
name = _b.uni0591;
position = "{0, 10}";
}
);
hints = (
{
horizontal = 1;
place = "{-188, 176}";
type = Stem;
},
{
place = "{-79, 158}";
type = Stem;
}
);
layerId = "4E968995-FE0C-47C4-A23E-AA7FD2BAF135";
paths = (
{
closed = 1;
nodes = (
"79 -12 LINE",
"9 -12 LINE",
"-79 -100 LINE",
"9 -188 LINE",
"79 -188 LINE",
"-9 -100 LINE"
);
}
);
width = 0;
}
);
unicode = 05A4;
script = hebrew;
category = Mark;
subCategory = Nonspacing;
},
{
glyphname = uni05A5;
lastChange = "2022-02-10 15:23:34 +0000";
layers = (
{
anchors = (
{
name = _b.uni0591;
position = "{0, 0}";
}
);
hints = (
{
horizontal = 1;
place = "{-188, 52}";
type = Stem;
},
{
place = "{33, 54}";
type = Stem;
}
);
layerId = "B990E356-538D-4D06-ADE8-234C9F2D2C22";
paths = (
{
closed = 1;
nodes = (
"33 -40 LINE",
"33 -99 OFFCURVE",
"-7 -136 OFFCURVE",
"-73 -136 CURVE",
"-73 -188 LINE",
"29 -188 OFFCURVE",
"87 -133 OFFCURVE",
"87 -40 CURVE"
);
}
);
width = 0;
},
{
anchors = (
{
name = _b.uni0591;
position = "{0, 0}";
}
);
hints = (
{
horizontal = 1;
place = "{-188, 52}";
type = Stem;
},
{
place = "{33, 54}";
type = Stem;
}
);
layerId = "4E968995-FE0C-47C4-A23E-AA7FD2BAF135";
paths = (
{
closed = 1;
nodes = (
"33 -40 LINE",
"33 -99 OFFCURVE",
"-7 -136 OFFCURVE",
"-73 -136 CURVE",
"-73 -188 LINE",
"29 -188 OFFCURVE",
"87 -133 OFFCURVE",
"87 -40 CURVE"
);
}
);
width = 0;
}
);
unicode = 05A5;
script = hebrew;
category = Mark;
subCategory = Nonspacing;
},
{
glyphname = uni05A6;
lastChange = "2022-02-10 15:23:28 +0000";
layers = (
{
anchors = (
{
name = _b.uni0591;
position = "{13, 0}";
}
);
hints = (
{
horizontal = 1;
place = "{-188, 52}";
type = Stem;
},
{
place = "{-54, 54}";
type = Stem;
},
{
place = "{106, 54}";
type = Stem;
}
);
layerId = "B990E356-538D-4D06-ADE8-234C9F2D2C22";
paths = (
{
closed = 1;
nodes = (
"-54 -40 LINE",
"-54 -99 OFFCURVE",
"-93 -136 OFFCURVE",
"-160 -136 CURVE",
"-160 -188 LINE",
"-58 -188 OFFCURVE",
"0 -133 OFFCURVE",
"0 -40 CURVE"
);
},
{
closed = 1;
nodes = (
"106 -40 LINE",
"106 -99 OFFCURVE",
"67 -136 OFFCURVE",
"0 -136 CURVE",
"0 -188 LINE",
"103 -188 OFFCURVE",
"160 -132 OFFCURVE",
"160 -40 CURVE"
);
}
);
width = 0;
},
{
anchors = (
{
name = _b.uni0591;
position = "{13, 0}";
}
);
hints = (
{
horizontal = 1;
place = "{-188, 52}";
type = Stem;
},
{
place = "{-54, 54}";
type = Stem;
},
{
place = "{106, 54}";
type = Stem;
}
);
layerId = "4E968995-FE0C-47C4-A23E-AA7FD2BAF135";
paths = (
{
closed = 1;
nodes = (
"-54 -40 LINE",
"-54 -99 OFFCURVE",
"-93 -136 OFFCURVE",
"-160 -136 CURVE",
"-160 -188 LINE",
"-58 -188 OFFCURVE",
"0 -133 OFFCURVE",
"0 -40 CURVE"
);
},
{
closed = 1;
nodes = (
"106 -40 LINE",
"106 -99 OFFCURVE",
"67 -136 OFFCURVE",
"0 -136 CURVE",
"0 -188 LINE",
"103 -188 OFFCURVE",
"160 -132 OFFCURVE",
"160 -40 CURVE"
);
}
);
width = 0;
}
);
unicode = 05A6;
script = hebrew;
category = Mark;
subCategory = Nonspacing;
},
{
glyphname = uni05A7;
lastChange = "2022-02-10 15:23:19 +0000";
layers = (
{
anchors = (
{
name = _b.uni0591;
position = "{0, 10}";
}
);
hints = (
{
horizontal = 1;
place = "{-188, 184}";
type = Stem;
},
{
place = "{-77, 154}";
type = Stem;
}
);
layerId = "B990E356-538D-4D06-ADE8-234C9F2D2C22";
paths = (
{
closed = 1;
nodes = (
"63 -41 LINE",
"63 -4 LINE",
"-77 -29 LINE",
"6 -138 LINE",
"-63 -149 LINE",
"-63 -188 LINE",
"76 -163 LINE",
"-7 -53 LINE"
);
}
);
width = 0;
},
{
anchors = (
{
name = _b.uni0591;
position = "{0, 10}";
}
);
hints = (
{
horizontal = 1;
place = "{-188, 184}";
type = Stem;
},
{
place = "{-77, 154}";
type = Stem;
}
);
layerId = "4E968995-FE0C-47C4-A23E-AA7FD2BAF135";
paths = (
{
closed = 1;
nodes = (
"63 -41 LINE",
"63 -4 LINE",
"-77 -29 LINE",
"6 -138 LINE",
"-63 -149 LINE",
"-63 -188 LINE",
"76 -163 LINE",
"-7 -53 LINE"
);
}
);
width = 0;
}
);
unicode = 05A7;
script = hebrew;
category = Mark;
subCategory = Nonspacing;
},
{
glyphname = uni05A8;
lastChange = "2022-02-10 13:38:12 +0000";
layers = (
{
anchors = (
{
name = _t.uni0592;
position = "{0, 659}";
}
);
hints = (
{
horizontal = 1;
place = "{759, 53}";
type = Stem;
},
{
place = "{26, 54}";
type = Stem;
}
);
layerId = "B990E356-538D-4D06-ADE8-234C9F2D2C22";
paths = (
{
closed = 1;
nodes = (
"80 663 LINE",
"80 758 OFFCURVE",
"20 812 OFFCURVE",
"-80 812 CURVE",
"-80 759 LINE",
"-12 759 OFFCURVE",
"26 723 OFFCURVE",
"26 663 CURVE"
);
}
);
width = 0;
},
{
anchors = (
{
name = _t.uni0592;
position = "{0, 659}";
}
);
hints = (
{
horizontal = 1;
place = "{759, 53}";
type = Stem;
},
{
place = "{26, 54}";
type = Stem;
}
);
layerId = "4E968995-FE0C-47C4-A23E-AA7FD2BAF135";
paths = (
{
closed = 1;
nodes = (
"80 663 LINE",
"80 758 OFFCURVE",
"20 812 OFFCURVE",
"-80 812 CURVE",
"-80 759 LINE",
"-12 759 OFFCURVE",
"26 723 OFFCURVE",
"26 663 CURVE"
);
}
);
width = 0;
}
);
unicode = 05A8;
script = hebrew;
category = Mark;
subCategory = Nonspacing;
},
{
glyphname = uni05A9;
lastChange = "2022-02-09 16:06:15 +0000";
layers = (
{
anchors = (
{
name = _t.uni0599;
position = "{0, 659}";
}
);
hints = (
{
horizontal = 1;
place = "{685, 58}";
type = Stem;
},
{
horizontal = 1;
place = "{837, 58}";
type = Stem;
},
{
place = "{-240, 58}";
type = Stem;
},
{
place = "{-88, 58}";
type = Stem;
}
);
layerId = "B990E356-538D-4D06-ADE8-234C9F2D2C22";
paths = (
{
closed = 1;
nodes = (
"-30 848 OFFCURVE",
"-78 895 OFFCURVE",
"-135 895 CURVE SMOOTH",
"-192 895 OFFCURVE",
"-240 849 OFFCURVE",
"-240 790 CURVE SMOOTH",
"-240 731 OFFCURVE",
"-193 685 OFFCURVE",
"-135 685 CURVE SMOOTH",
"-117 685 OFFCURVE",
"-99 689 OFFCURVE",
"-83 697 CURVE",
"-41 654 LINE",
"0 695 LINE",
"-43 738 LINE",
"-34 753 OFFCURVE",
"-30 770 OFFCURVE",
"-30 790 CURVE SMOOTH"
);
},
{
closed = 1;
nodes = (
"-88 764 OFFCURVE",
"-109 743 OFFCURVE",
"-135 743 CURVE SMOOTH",
"-162 743 OFFCURVE",
"-182 764 OFFCURVE",
"-182 790 CURVE SMOOTH",
"-182 815 OFFCURVE",
"-160 837 OFFCURVE",
"-135 837 CURVE SMOOTH",
"-110 837 OFFCURVE",
"-88 816 OFFCURVE",
"-88 790 CURVE SMOOTH"
);
}
);
width = 0;
},
{
anchors = (
{
name = _t.uni0599;
position = "{0, 659}";
}
);
hints = (
{
horizontal = 1;
place = "{685, 58}";
type = Stem;
},
{
horizontal = 1;
place = "{837, 58}";
type = Stem;
},
{
place = "{-240, 58}";
type = Stem;
},
{
place = "{-88, 58}";
type = Stem;
}
);
layerId = "4E968995-FE0C-47C4-A23E-AA7FD2BAF135";
paths = (
{
closed = 1;
nodes = (
"-30 848 OFFCURVE",
"-78 895 OFFCURVE",
"-135 895 CURVE SMOOTH",
"-192 895 OFFCURVE",
"-240 849 OFFCURVE",
"-240 790 CURVE SMOOTH",
"-240 731 OFFCURVE",
"-193 685 OFFCURVE",
"-135 685 CURVE SMOOTH",
"-117 685 OFFCURVE",
"-99 689 OFFCURVE",
"-83 697 CURVE",
"-41 654 LINE",
"0 695 LINE",
"-43 738 LINE",
"-34 753 OFFCURVE",
"-30 770 OFFCURVE",
"-30 790 CURVE SMOOTH"
);
},
{
closed = 1;
nodes = (
"-88 764 OFFCURVE",
"-109 743 OFFCURVE",
"-135 743 CURVE SMOOTH",
"-162 743 OFFCURVE",
"-182 764 OFFCURVE",
"-182 790 CURVE SMOOTH",
"-182 815 OFFCURVE",
"-160 837 OFFCURVE",
"-135 837 CURVE SMOOTH",
"-110 837 OFFCURVE",
"-88 816 OFFCURVE",
"-88 790 CURVE SMOOTH"
);
}
);
width = 0;
}
);
unicode = 05A9;
script = hebrew;
category = Mark;
subCategory = Nonspacing;
},
{
glyphname = uni05AA;
lastChange = "2022-02-10 15:23:04 +0000";
layers = (
{
anchors = (
{
name = _b.uni0591;
position = "{0, 10}";
}
);
hints = (
{
horizontal = 1;
place = "{-188, 89}";
type = Stem;
},
{
place = "{-92, 49}";
type = Stem;
},
{
place = "{-25, 50}";
type = Stem;
},
{
place = "{43, 50}";
type = Stem;
}
);
layerId = "B990E356-538D-4D06-ADE8-234C9F2D2C22";
paths = (
{
closed = 1;
nodes = (
"93 -26 LINE",
"43 -26 LINE",
"43 -50 LINE SMOOTH",
"43 -84 OFFCURVE",
"32 -99 OFFCURVE",
"1 -99 CURVE SMOOTH",
"-32 -99 OFFCURVE",
"-43 -84 OFFCURVE",
"-43 -50 CURVE SMOOTH",
"-43 -26 LINE",
"-92 -26 LINE",
"-92 -50 LINE SMOOTH",
"-92 -109 OFFCURVE",
"-68 -137 OFFCURVE",
"-25 -143 CURVE",
"-25 -188 LINE",
"25 -188 LINE",
"25 -143 LINE",
"70 -136 OFFCURVE",
"93 -108 OFFCURVE",
"93 -50 CURVE SMOOTH"
);
}
);
width = 0;
},
{
anchors = (
{
name = _b.uni0591;
position = "{0, 10}";
}
);
hints = (
{
horizontal = 1;
place = "{-188, 89}";
type = Stem;
},
{
place = "{-92, 49}";
type = Stem;
},
{
place = "{-25, 50}";
type = Stem;
},
{
place = "{43, 50}";
type = Stem;
}
);
layerId = "4E968995-FE0C-47C4-A23E-AA7FD2BAF135";
paths = (
{
closed = 1;
nodes = (
"93 -26 LINE",
"43 -26 LINE",
"43 -50 LINE SMOOTH",
"43 -84 OFFCURVE",
"32 -99 OFFCURVE",
"1 -99 CURVE SMOOTH",
"-32 -99 OFFCURVE",
"-43 -84 OFFCURVE",
"-43 -50 CURVE SMOOTH",
"-43 -26 LINE",
"-92 -26 LINE",
"-92 -50 LINE SMOOTH",
"-92 -109 OFFCURVE",
"-68 -137 OFFCURVE",
"-25 -143 CURVE",
"-25 -188 LINE",
"25 -188 LINE",
"25 -143 LINE",
"70 -136 OFFCURVE",
"93 -108 OFFCURVE",
"93 -50 CURVE SMOOTH"
);
}
);
width = 0;
}
);
unicode = 05AA;
script = hebrew;
category = Mark;
subCategory = Nonspacing;
},
{
glyphname = uni05AB;
lastChange = "2022-02-09 16:06:15 +0000";
layers = (
{
anchors = (
{
name = _t.uni0592;
position = "{10, 659}";
},
{
name = _t.uni0592.2;
position = "{98, 659}";
}
);
hints = (
{
horizontal = 1;
place = "{663, 176}";
type = Stem;
},
{
place = "{-79, 158}";
type = Stem;
}
);
layerId = "B990E356-538D-4D06-ADE8-234C9F2D2C22";
paths = (
{
closed = 1;
nodes = (
"79 839 LINE",
"9 839 LINE",
"-79 751 LINE",
"9 663 LINE",
"79 663 LINE",
"-9 751 LINE"
);
}
);
width = 0;
},
{
anchors = (
{
name = _t.uni0592;
position = "{10, 659}";
},
{
name = _t.uni0592.2;
position = "{98, 659}";
}
);
hints = (
{
horizontal = 1;
place = "{663, 176}";
type = Stem;
},
{
place = "{-79, 158}";
type = Stem;
}
);
layerId = "4E968995-FE0C-47C4-A23E-AA7FD2BAF135";
paths = (
{
closed = 1;
nodes = (
"79 839 LINE",
"9 839 LINE",
"-79 751 LINE",
"9 663 LINE",
"79 663 LINE",
"-9 751 LINE"
);
}
);
width = 0;
}
);
unicode = 05AB;
script = hebrew;
category = Mark;
subCategory = Nonspacing;
},
{
glyphname = uni05AC;
lastChange = "2022-02-09 16:06:15 +0000";
layers = (
{
anchors = (
{
name = _t.uni0592;
position = "{0, 659}";
},
{
name = _t.uni0592.2;
position = "{98, 659}";
}
);
hints = (
{
horizontal = 1;
place = "{663, 52}";
type = Stem;
},
{
place = "{17, 53}";
type = Stem;
}
);
layerId = "B990E356-538D-4D06-ADE8-234C9F2D2C22";
paths = (
{
closed = 1;
nodes = (
"17 715 LINE",
"-90 715 LINE",
"-90 663 LINE",
"70 663 LINE",
"70 816 LINE",
"17 816 LINE"
);
}
);
width = 0;
},
{
anchors = (
{
name = _t.uni0592;
position = "{0, 659}";
},
{
name = _t.uni0592.2;
position = "{98, 659}";
}
);
hints = (
{
horizontal = 1;
place = "{663, 52}";
type = Stem;
},
{
place = "{17, 53}";
type = Stem;
}
);
layerId = "4E968995-FE0C-47C4-A23E-AA7FD2BAF135";
paths = (
{
closed = 1;
nodes = (
"17 715 LINE",
"-90 715 LINE",
"-90 663 LINE",
"70 663 LINE",
"70 816 LINE",
"17 816 LINE"
);
}
);
width = 0;
}
);
unicode = 05AC;
script = hebrew;
category = Mark;
subCategory = Nonspacing;
},
{
glyphname = uni05AD;
lastChange = "2022-02-09 16:06:15 +0000";
layers = (
{
anchors = (
{
name = _b.uni059A;
position = "{0, 5}";
}
);
hints = (
{
horizontal = 1;
place = "{-188, 52}";
type = Stem;
},
{
place = "{0, 54}";
type = Stem;
}
);
layerId = "B990E356-538D-4D06-ADE8-234C9F2D2C22";
paths = (
{
closed = 1;
nodes = (
"0 -40 LINE",
"0 -133 OFFCURVE",
"59 -188 OFFCURVE",
"160 -188 CURVE",
"160 -136 LINE",
"94 -136 OFFCURVE",
"54 -100 OFFCURVE",
"54 -40 CURVE"
);
}
);
width = 0;
},
{
anchors = (
{
name = _b.uni059A;
position = "{0, 5}";
}
);
hints = (
{
horizontal = 1;
place = "{-188, 52}";
type = Stem;
},
{
place = "{0, 54}";
type = Stem;
}
);
layerId = "4E968995-FE0C-47C4-A23E-AA7FD2BAF135";
paths = (
{
closed = 1;
nodes = (
"0 -40 LINE",
"0 -133 OFFCURVE",
"59 -188 OFFCURVE",
"160 -188 CURVE",
"160 -136 LINE",
"94 -136 OFFCURVE",
"54 -100 OFFCURVE",
"54 -40 CURVE"
);
}
);
width = 0;
}
);
unicode = 05AD;
script = hebrew;
category = Mark;
subCategory = Nonspacing;
},
{
glyphname = uni05AE;
lastChange = "2022-02-09 16:06:15 +0000";
layers = (
{
anchors = (
{
name = _t.uni0599;
position = "{0, 659}";
}
);
hints = (
{
horizontal = 1;
place = "{665, 35}";
type = Stem;
},
{
horizontal = 1;
place = "{778, 35}";
type = Stem;
},
{
place = "{-292, 38}";
type = Stem;
},
{
place = "{-38, 38}";
type = Stem;
}
);
layerId = "B990E356-538D-4D06-ADE8-234C9F2D2C22";
paths = (
{
closed = 1;
nodes = (
"-200 778 OFFCURVE",
"-189 768 OFFCURVE",
"-160 727 CURVE SMOOTH",
"-126 680 OFFCURVE",
"-103 665 OFFCURVE",
"-70 665 CURVE SMOOTH",
"-29 665 OFFCURVE",
"0 694 OFFCURVE",
"0 737 CURVE SMOOTH",
"0 775 OFFCURVE",
"-18 801 OFFCURVE",
"-53 814 CURVE",
"-66 779 LINE",
"-47 771 OFFCURVE",
"-38 758 OFFCURVE",
"-38 737 CURVE SMOOTH",
"-38 713 OFFCURVE",
"-52 700 OFFCURVE",
"-70 700 CURVE SMOOTH",
"-91 700 OFFCURVE",
"-106 714 OFFCURVE",
"-132 751 CURVE SMOOTH",
"-167 799 OFFCURVE",
"-189 813 OFFCURVE",
"-220 813 CURVE SMOOTH",
"-263 813 OFFCURVE",
"-292 784 OFFCURVE",
"-292 741 CURVE SMOOTH",
"-292 702 OFFCURVE",
"-274 676 OFFCURVE",
"-239 664 CURVE",
"-226 699 LINE",
"-245 707 OFFCURVE",
"-254 720 OFFCURVE",
"-254 741 CURVE SMOOTH",
"-254 765 OFFCURVE",
"-240 778 OFFCURVE",
"-222 778 CURVE SMOOTH"
);
}
);
width = 0;
},
{
anchors = (
{
name = _t.uni0599;
position = "{0, 659}";
}
);
hints = (
{
horizontal = 1;
place = "{665, 35}";
type = Stem;
},
{
horizontal = 1;
place = "{778, 35}";
type = Stem;
},
{
place = "{-292, 38}";
type = Stem;
},
{
place = "{-38, 38}";
type = Stem;
}
);
layerId = "4E968995-FE0C-47C4-A23E-AA7FD2BAF135";
paths = (
{
closed = 1;
nodes = (
"-200 778 OFFCURVE",
"-189 768 OFFCURVE",
"-160 727 CURVE SMOOTH",
"-126 680 OFFCURVE",
"-103 665 OFFCURVE",
"-70 665 CURVE SMOOTH",
"-29 665 OFFCURVE",
"0 694 OFFCURVE",
"0 737 CURVE SMOOTH",
"0 775 OFFCURVE",
"-18 801 OFFCURVE",
"-53 814 CURVE",
"-66 779 LINE",
"-47 771 OFFCURVE",
"-38 758 OFFCURVE",
"-38 737 CURVE SMOOTH",
"-38 713 OFFCURVE",
"-52 700 OFFCURVE",
"-70 700 CURVE SMOOTH",
"-91 700 OFFCURVE",
"-106 714 OFFCURVE",
"-132 751 CURVE SMOOTH",
"-167 799 OFFCURVE",
"-189 813 OFFCURVE",
"-220 813 CURVE SMOOTH",
"-263 813 OFFCURVE",
"-292 784 OFFCURVE",
"-292 741 CURVE SMOOTH",
"-292 702 OFFCURVE",
"-274 676 OFFCURVE",
"-239 664 CURVE",
"-226 699 LINE",
"-245 707 OFFCURVE",
"-254 720 OFFCURVE",
"-254 741 CURVE SMOOTH",
"-254 765 OFFCURVE",
"-240 778 OFFCURVE",
"-222 778 CURVE SMOOTH"
);
}
);
width = 0;
}
);
unicode = 05AE;
script = hebrew;
category = Mark;
subCategory = Nonspacing;
},
{
glyphname = uni05AF;
lastChange = "2022-02-09 16:06:15 +0000";
layers = (
{
anchors = (
{
name = _t.uni0592;
position = "{0, 679}";
},
{
name = _t.uni0592.2;
position = "{117, 679}";
}
);
hints = (
{
horizontal = 1;
place = "{685, 58}";
type = Stem;
},
{
horizontal = 1;
place = "{837, 58}";
type = Stem;
},
{
place = "{-105, 58}";
type = Stem;
},
{
place = "{47, 58}";
type = Stem;
}
);
layerId = "B990E356-538D-4D06-ADE8-234C9F2D2C22";
paths = (
{
closed = 1;
nodes = (
"-105 732 OFFCURVE",
"-59 685 OFFCURVE",
"0 685 CURVE SMOOTH",
"59 685 OFFCURVE",
"105 732 OFFCURVE",
"105 790 CURVE SMOOTH",
"105 848 OFFCURVE",
"58 895 OFFCURVE",
"0 895 CURVE SMOOTH",
"-58 895 OFFCURVE",
"-105 848 OFFCURVE",
"-105 790 CURVE SMOOTH"
);
},
{
closed = 1;
nodes = (
"-47 816 OFFCURVE",
"-25 837 OFFCURVE",
"0 837 CURVE SMOOTH",
"25 837 OFFCURVE",
"47 816 OFFCURVE",
"47 790 CURVE SMOOTH",
"47 764 OFFCURVE",
"26 743 OFFCURVE",
"0 743 CURVE SMOOTH",
"-26 743 OFFCURVE",
"-47 764 OFFCURVE",
"-47 790 CURVE SMOOTH"
);
}
);
width = 0;
},
{
anchors = (
{
name = _t.uni0592;
position = "{0, 679}";
},
{
name = _t.uni0592.2;
position = "{127, 679}";
}
);
hints = (
{
horizontal = 1;
place = "{685, 58}";
type = Stem;
},
{
horizontal = 1;
place = "{837, 58}";
type = Stem;
},
{
place = "{-105, 58}";
type = Stem;
},
{
place = "{47, 58}";
type = Stem;
}
);
layerId = "4E968995-FE0C-47C4-A23E-AA7FD2BAF135";
paths = (
{
closed = 1;
nodes = (
"-105 732 OFFCURVE",
"-59 685 OFFCURVE",
"0 685 CURVE SMOOTH",
"59 685 OFFCURVE",
"105 732 OFFCURVE",
"105 790 CURVE SMOOTH",
"105 848 OFFCURVE",
"58 895 OFFCURVE",
"0 895 CURVE SMOOTH",
"-58 895 OFFCURVE",
"-105 848 OFFCURVE",
"-105 790 CURVE SMOOTH"
);
},
{
closed = 1;
nodes = (
"-47 816 OFFCURVE",
"-25 837 OFFCURVE",
"0 837 CURVE SMOOTH",
"25 837 OFFCURVE",
"47 816 OFFCURVE",
"47 790 CURVE SMOOTH",
"47 764 OFFCURVE",
"26 743 OFFCURVE",
"0 743 CURVE SMOOTH",
"-26 743 OFFCURVE",
"-47 764 OFFCURVE",
"-47 790 CURVE SMOOTH"
);
}
);
width = 0;
}
);
unicode = 05AF;
script = hebrew;
category = Mark;
subCategory = Nonspacing;
},
{
glyphname = uni05B0;
lastChange = "2022-02-10 14:29:00 +0000";
layers = (
{
anchors = (
{
name = _b.uni0591;
position = "{0, 10}";
}
);
hints = (
{
horizontal = 1;
place = "{-188, 78}";
type = Stem;
},
{
horizontal = 1;
place = "{-86, 77}";
type = Stem;
},
{
place = "{-39, 78}";
type = Stem;
}
);
layerId = "B990E356-538D-4D06-ADE8-234C9F2D2C22";
paths = (
{
closed = 1;
nodes = (
"-39 -69 OFFCURVE",
"-21 -86 OFFCURVE",
"0 -86 CURVE SMOOTH",
"21 -86 OFFCURVE",
"39 -69 OFFCURVE",
"39 -48 CURVE SMOOTH",
"39 -27 OFFCURVE",
"22 -9 OFFCURVE",
"0 -9 CURVE SMOOTH",
"-21 -9 OFFCURVE",
"-39 -26 OFFCURVE",
"-39 -48 CURVE SMOOTH"
);
},
{
closed = 1;
nodes = (
"-39 -171 OFFCURVE",
"-22 -188 OFFCURVE",
"0 -188 CURVE SMOOTH",
"21 -188 OFFCURVE",
"39 -170 OFFCURVE",
"39 -149 CURVE SMOOTH",
"39 -128 OFFCURVE",
"21 -110 OFFCURVE",
"0 -110 CURVE SMOOTH",
"-21 -110 OFFCURVE",
"-39 -127 OFFCURVE",
"-39 -149 CURVE SMOOTH"
);
}
);
width = 0;
},
{
anchors = (
{
name = _b.uni0591;
position = "{0, 10}";
}
);
hints = (
{
horizontal = 1;
place = "{-188, 78}";
type = Stem;
},
{
horizontal = 1;
place = "{-86, 77}";
type = Stem;
},
{
place = "{-39, 78}";
type = Stem;
}
);
layerId = "4E968995-FE0C-47C4-A23E-AA7FD2BAF135";
paths = (
{
closed = 1;
nodes = (
"-39 -69 OFFCURVE",
"-21 -86 OFFCURVE",
"0 -86 CURVE SMOOTH",
"21 -86 OFFCURVE",
"39 -69 OFFCURVE",
"39 -48 CURVE SMOOTH",
"39 -27 OFFCURVE",
"22 -9 OFFCURVE",
"0 -9 CURVE SMOOTH",
"-21 -9 OFFCURVE",
"-39 -26 OFFCURVE",
"-39 -48 CURVE SMOOTH"
);
},
{
closed = 1;
nodes = (
"-39 -171 OFFCURVE",
"-22 -188 OFFCURVE",
"0 -188 CURVE SMOOTH",
"21 -188 OFFCURVE",
"39 -170 OFFCURVE",
"39 -149 CURVE SMOOTH",
"39 -128 OFFCURVE",
"21 -110 OFFCURVE",
"0 -110 CURVE SMOOTH",
"-21 -110 OFFCURVE",
"-39 -127 OFFCURVE",
"-39 -149 CURVE SMOOTH"
);
}
);
width = 0;
}
);
unicode = 05B0;
script = hebrew;
category = Mark;
subCategory = Nonspacing;
},
{
glyphname = uni05B1;
lastChange = "2022-02-10 15:22:44 +0000";
layers = (
{
anchors = (
{
name = _b.uni0591;
position = "{0, 10}";
}
);
hints = (
{
place = "{-147, 77}";
type = Stem;
},
{
place = "{-91, 77}";
type = Stem;
},
{
place = "{-35, 77}";
type = Stem;
},
{
place = "{69, 78}";
type = Stem;
},
{
place = "{70, 77}";
type = Stem;
},
{
horizontal = 1;
place = "{-188, 78}";
type = Stem;
},
{
horizontal = 1;
place = "{-86, 77}";
type = Stem;
}
);
layerId = "B990E356-538D-4D06-ADE8-234C9F2D2C22";
paths = (
{
closed = 1;
nodes = (
"-147 -69 OFFCURVE",
"-130 -86 OFFCURVE",
"-109 -86 CURVE SMOOTH",
"-87 -86 OFFCURVE",
"-70 -69 OFFCURVE",
"-70 -47 CURVE SMOOTH",
"-70 -26 OFFCURVE",
"-87 -9 OFFCURVE",
"-109 -9 CURVE SMOOTH",
"-130 -9 OFFCURVE",
"-147 -26 OFFCURVE",
"-147 -47 CURVE SMOOTH"
);
},
{
closed = 1;
nodes = (
"-35 -69 OFFCURVE",
"-18 -86 OFFCURVE",
"3 -86 CURVE SMOOTH",
"25 -86 OFFCURVE",
"42 -69 OFFCURVE",
"42 -47 CURVE SMOOTH",
"42 -26 OFFCURVE",
"25 -9 OFFCURVE",
"3 -9 CURVE SMOOTH",
"-18 -9 OFFCURVE",
"-35 -26 OFFCURVE",
"-35 -47 CURVE SMOOTH"
);
},
{
closed = 1;
nodes = (
"-91 -170 OFFCURVE",
"-74 -188 OFFCURVE",
"-53 -188 CURVE SMOOTH",
"-30 -188 OFFCURVE",
"-14 -170 OFFCURVE",
"-14 -149 CURVE SMOOTH",
"-14 -127 OFFCURVE",
"-30 -110 OFFCURVE",
"-53 -110 CURVE SMOOTH",
"-74 -110 OFFCURVE",
"-91 -127 OFFCURVE",
"-91 -149 CURVE SMOOTH"
);
},
{
closed = 1;
nodes = (
"70 -69 OFFCURVE",
"87 -86 OFFCURVE",
"108 -86 CURVE SMOOTH",
"130 -86 OFFCURVE",
"147 -69 OFFCURVE",
"147 -48 CURVE SMOOTH",
"147 -26 OFFCURVE",
"130 -9 OFFCURVE",
"108 -9 CURVE SMOOTH",
"87 -9 OFFCURVE",
"70 -26 OFFCURVE",
"70 -48 CURVE SMOOTH"
);
},
{
closed = 1;
nodes = (
"69 -171 OFFCURVE",
"86 -188 OFFCURVE",
"108 -188 CURVE SMOOTH",
"129 -188 OFFCURVE",
"147 -170 OFFCURVE",
"147 -149 CURVE SMOOTH",
"147 -128 OFFCURVE",
"129 -110 OFFCURVE",
"108 -110 CURVE SMOOTH",
"87 -110 OFFCURVE",
"69 -127 OFFCURVE",
"69 -149 CURVE SMOOTH"
);
}
);
width = 0;
},
{
anchors = (
{
name = _b.uni0591;
position = "{0, 10}";
}
);
hints = (
{
place = "{-147, 77}";
type = Stem;
},
{
place = "{-91, 77}";
type = Stem;
},
{
place = "{-35, 77}";
type = Stem;
},
{
place = "{69, 78}";
type = Stem;
},
{
place = "{70, 77}";
type = Stem;
},
{
horizontal = 1;
place = "{-188, 78}";
type = Stem;
},
{
horizontal = 1;
place = "{-86, 77}";
type = Stem;
}
);
layerId = "4E968995-FE0C-47C4-A23E-AA7FD2BAF135";
paths = (
{
closed = 1;
nodes = (
"-147 -69 OFFCURVE",
"-130 -86 OFFCURVE",
"-109 -86 CURVE SMOOTH",
"-87 -86 OFFCURVE",
"-70 -69 OFFCURVE",
"-70 -47 CURVE SMOOTH",
"-70 -26 OFFCURVE",
"-87 -9 OFFCURVE",
"-109 -9 CURVE SMOOTH",
"-130 -9 OFFCURVE",
"-147 -26 OFFCURVE",
"-147 -47 CURVE SMOOTH"
);
},
{
closed = 1;
nodes = (
"-35 -69 OFFCURVE",
"-18 -86 OFFCURVE",
"3 -86 CURVE SMOOTH",
"25 -86 OFFCURVE",
"42 -69 OFFCURVE",
"42 -47 CURVE SMOOTH",
"42 -26 OFFCURVE",
"25 -9 OFFCURVE",
"3 -9 CURVE SMOOTH",
"-18 -9 OFFCURVE",
"-35 -26 OFFCURVE",
"-35 -47 CURVE SMOOTH"
);
},
{
closed = 1;
nodes = (
"-91 -170 OFFCURVE",
"-74 -188 OFFCURVE",
"-53 -188 CURVE SMOOTH",
"-30 -188 OFFCURVE",
"-14 -170 OFFCURVE",
"-14 -149 CURVE SMOOTH",
"-14 -127 OFFCURVE",
"-30 -110 OFFCURVE",
"-53 -110 CURVE SMOOTH",
"-74 -110 OFFCURVE",
"-91 -127 OFFCURVE",
"-91 -149 CURVE SMOOTH"
);
},
{
closed = 1;
nodes = (
"70 -69 OFFCURVE",
"87 -86 OFFCURVE",
"108 -86 CURVE SMOOTH",
"130 -86 OFFCURVE",
"147 -69 OFFCURVE",
"147 -48 CURVE SMOOTH",
"147 -26 OFFCURVE",
"130 -9 OFFCURVE",
"108 -9 CURVE SMOOTH",
"87 -9 OFFCURVE",
"70 -26 OFFCURVE",
"70 -48 CURVE SMOOTH"
);
},
{
closed = 1;
nodes = (
"69 -171 OFFCURVE",
"86 -188 OFFCURVE",
"108 -188 CURVE SMOOTH",
"129 -188 OFFCURVE",
"147 -170 OFFCURVE",
"147 -149 CURVE SMOOTH",
"147 -128 OFFCURVE",
"129 -110 OFFCURVE",
"108 -110 CURVE SMOOTH",
"87 -110 OFFCURVE",
"69 -127 OFFCURVE",
"69 -149 CURVE SMOOTH"
);
}
);
width = 0;
}
);
unicode = 05B1;
script = hebrew;
category = Mark;
subCategory = Nonspacing;
},
{
glyphname = uni05B2;
lastChange = "2022-02-10 17:25:22 +0000";
layers = (
{
anchors = (
{
name = _b.uni0591;
position = "{0, 0}";
}
);
hints = (
{
place = "{-132, 160}";
type = Stem;
},
{
place = "{55, 77}";
type = Stem;
},
{
place = "{55, 78}";
type = Stem;
},
{
horizontal = 1;
place = "{-188, 78}";
type = Stem;
},
{
horizontal = 1;
place = "{-86, 77}";
type = Stem;
},
{
horizontal = 1;
place = "{-79, 53}";
type = Stem;
}
);
layerId = "B990E356-538D-4D06-ADE8-234C9F2D2C22";
paths = (
{
closed = 1;
nodes = (
"55 -79 OFFCURVE",
"71 -96 OFFCURVE",
"94 -96 CURVE SMOOTH",
"115 -96 OFFCURVE",
"133 -79 OFFCURVE",
"133 -58 CURVE SMOOTH",
"133 -36 OFFCURVE",
"115 -19 OFFCURVE",
"94 -19 CURVE SMOOTH",
"71 -19 OFFCURVE",
"55 -36 OFFCURVE",
"55 -58 CURVE SMOOTH"
);
},
{
closed = 1;
nodes = (
"55 -181 OFFCURVE",
"72 -198 OFFCURVE",
"93 -198 CURVE SMOOTH",
"116 -198 OFFCURVE",
"132 -181 OFFCURVE",
"132 -159 CURVE SMOOTH",
"132 -138 OFFCURVE",
"116 -120 OFFCURVE",
"93 -120 CURVE SMOOTH",
"72 -120 OFFCURVE",
"55 -138 OFFCURVE",
"55 -159 CURVE SMOOTH"
);
},
{
closed = 1;
nodes = (
"28 -36 LINE",
"-132 -36 LINE",
"-132 -89 LINE",
"28 -89 LINE"
);
}
);
width = 0;
},
{
anchors = (
{
name = _b.uni0591;
position = "{0, 10}";
}
);
hints = (
{
place = "{-132, 160}";
type = Stem;
},
{
place = "{55, 77}";
type = Stem;
},
{
place = "{55, 78}";
type = Stem;
},
{
horizontal = 1;
place = "{-188, 78}";
type = Stem;
},
{
horizontal = 1;
place = "{-86, 77}";
type = Stem;
},
{
horizontal = 1;
place = "{-79, 53}";
type = Stem;
}
);
layerId = "4E968995-FE0C-47C4-A23E-AA7FD2BAF135";
paths = (
{
closed = 1;
nodes = (
"55 -69 OFFCURVE",
"71 -86 OFFCURVE",
"94 -86 CURVE SMOOTH",
"115 -86 OFFCURVE",
"133 -69 OFFCURVE",
"133 -48 CURVE SMOOTH",
"133 -26 OFFCURVE",
"115 -9 OFFCURVE",
"94 -9 CURVE SMOOTH",
"71 -9 OFFCURVE",
"55 -26 OFFCURVE",
"55 -48 CURVE SMOOTH"
);
},
{
closed = 1;
nodes = (
"55 -171 OFFCURVE",
"72 -188 OFFCURVE",
"93 -188 CURVE SMOOTH",
"116 -188 OFFCURVE",
"132 -171 OFFCURVE",
"132 -149 CURVE SMOOTH",
"132 -128 OFFCURVE",
"116 -110 OFFCURVE",
"93 -110 CURVE SMOOTH",
"72 -110 OFFCURVE",
"55 -128 OFFCURVE",
"55 -149 CURVE SMOOTH"
);
},
{
closed = 1;
nodes = (
"28 -26 LINE",
"-132 -26 LINE",
"-132 -79 LINE",
"28 -79 LINE"
);
}
);
width = 0;
}
);
unicode = 05B2;
script = hebrew;
category = Mark;
subCategory = Nonspacing;
},
{
glyphname = uni05B3;
lastChange = "2022-02-10 15:22:30 +0000";
layers = (
{
anchors = (
{
name = _b.uni0591;
position = "{0, 10}";
}
);
hints = (
{
place = "{-78, 54}";
type = Stem;
},
{
place = "{55, 77}";
type = Stem;
},
{
place = "{55, 78}";
type = Stem;
},
{
horizontal = 1;
place = "{-188, 78}";
type = Stem;
},
{
horizontal = 1;
place = "{-86, 77}";
type = Stem;
},
{
horizontal = 1;
place = "{-79, 53}";
type = Stem;
}
);
layerId = "B990E356-538D-4D06-ADE8-234C9F2D2C22";
paths = (
{
closed = 1;
nodes = (
"55 -69 OFFCURVE",
"71 -86 OFFCURVE",
"94 -86 CURVE SMOOTH",
"115 -86 OFFCURVE",
"133 -69 OFFCURVE",
"133 -48 CURVE SMOOTH",
"133 -26 OFFCURVE",
"115 -9 OFFCURVE",
"94 -9 CURVE SMOOTH",
"71 -9 OFFCURVE",
"55 -26 OFFCURVE",
"55 -48 CURVE SMOOTH"
);
},
{
closed = 1;
nodes = (
"55 -171 OFFCURVE",
"72 -188 OFFCURVE",
"93 -188 CURVE SMOOTH",
"116 -188 OFFCURVE",
"132 -171 OFFCURVE",
"132 -149 CURVE SMOOTH",
"132 -128 OFFCURVE",
"116 -110 OFFCURVE",
"93 -110 CURVE SMOOTH",
"72 -110 OFFCURVE",
"55 -128 OFFCURVE",
"55 -149 CURVE SMOOTH"
);
},
{
closed = 1;
nodes = (
"-24 -79 LINE",
"28 -79 LINE",
"28 -26 LINE",
"-132 -26 LINE",
"-132 -79 LINE",
"-78 -79 LINE",
"-78 -135 LINE",
"-24 -135 LINE"
);
}
);
width = 0;
},
{
anchors = (
{
name = _b.uni0591;
position = "{0, 10}";
}
);
hints = (
{
place = "{-78, 54}";
type = Stem;
},
{
place = "{55, 77}";
type = Stem;
},
{
place = "{55, 78}";
type = Stem;
},
{
horizontal = 1;
place = "{-188, 78}";
type = Stem;
},
{
horizontal = 1;
place = "{-86, 77}";
type = Stem;
},
{
horizontal = 1;
place = "{-79, 53}";
type = Stem;
}
);
layerId = "4E968995-FE0C-47C4-A23E-AA7FD2BAF135";
paths = (
{
closed = 1;
nodes = (
"55 -69 OFFCURVE",
"71 -86 OFFCURVE",
"94 -86 CURVE SMOOTH",
"115 -86 OFFCURVE",
"133 -69 OFFCURVE",
"133 -48 CURVE SMOOTH",
"133 -26 OFFCURVE",
"115 -9 OFFCURVE",
"94 -9 CURVE SMOOTH",
"71 -9 OFFCURVE",
"55 -26 OFFCURVE",
"55 -48 CURVE SMOOTH"
);
},
{
closed = 1;
nodes = (
"55 -171 OFFCURVE",
"72 -188 OFFCURVE",
"93 -188 CURVE SMOOTH",
"116 -188 OFFCURVE",
"132 -171 OFFCURVE",
"132 -149 CURVE SMOOTH",
"132 -128 OFFCURVE",
"116 -110 OFFCURVE",
"93 -110 CURVE SMOOTH",
"72 -110 OFFCURVE",
"55 -128 OFFCURVE",
"55 -149 CURVE SMOOTH"
);
},
{
closed = 1;
nodes = (
"-24 -79 LINE",
"28 -79 LINE",
"28 -26 LINE",
"-132 -26 LINE",
"-132 -79 LINE",
"-78 -79 LINE",
"-78 -135 LINE",
"-24 -135 LINE"
);
}
);
width = 0;
}
);
unicode = 05B3;
script = hebrew;
category = Mark;
subCategory = Nonspacing;
},
{
glyphname = uni05B4;
lastChange = "2022-02-10 10:44:20 +0000";
layers = (
{
anchors = (
{
name = _b.uni0591;
position = "{0, 0}";
}
);
hints = (
{
horizontal = 1;
place = "{-170, 77}";
type = Stem;
},
{
place = "{-39, 78}";
type = Stem;
}
);
layerId = "B990E356-538D-4D06-ADE8-234C9F2D2C22";
paths = (
{
closed = 1;
nodes = (
"-39 -153 OFFCURVE",
"-21 -170 OFFCURVE",
"0 -170 CURVE SMOOTH",
"21 -170 OFFCURVE",
"39 -153 OFFCURVE",
"39 -132 CURVE SMOOTH",
"39 -111 OFFCURVE",
"22 -93 OFFCURVE",
"0 -93 CURVE SMOOTH",
"-21 -93 OFFCURVE",
"-39 -110 OFFCURVE",
"-39 -132 CURVE SMOOTH"
);
}
);
width = 0;
},
{
anchors = (
{
name = _b.uni0591;
position = "{0, 0}";
}
);
hints = (
{
horizontal = 1;
place = "{-170, 77}";
type = Stem;
},
{
place = "{-39, 78}";
type = Stem;
}
);
layerId = "4E968995-FE0C-47C4-A23E-AA7FD2BAF135";
paths = (
{
closed = 1;
nodes = (
"-39 -153 OFFCURVE",
"-21 -170 OFFCURVE",
"0 -170 CURVE SMOOTH",
"21 -170 OFFCURVE",
"39 -153 OFFCURVE",
"39 -132 CURVE SMOOTH",
"39 -111 OFFCURVE",
"22 -93 OFFCURVE",
"0 -93 CURVE SMOOTH",
"-21 -93 OFFCURVE",
"-39 -110 OFFCURVE",
"-39 -132 CURVE SMOOTH"
);
}
);
width = 0;
}
);
unicode = 05B4;
script = hebrew;
category = Mark;
subCategory = Nonspacing;
},
{
glyphname = uni05B5;
lastChange = "2022-02-10 16:47:49 +0000";
layers = (
{
anchors = (
{
name = _b.uni0591;
position = "{0, 0}";
}
);
hints = (
{
horizontal = 1;
place = "{-170, 78}";
type = Stem;
},
{
place = "{-95, 78}";
type = Stem;
},
{
place = "{18, 77}";
type = Stem;
}
);
layerId = "B990E356-538D-4D06-ADE8-234C9F2D2C22";
paths = (
{
closed = 1;
nodes = (
"-95 -153 OFFCURVE",
"-78 -170 OFFCURVE",
"-56 -170 CURVE SMOOTH",
"-35 -170 OFFCURVE",
"-17 -152 OFFCURVE",
"-17 -131 CURVE SMOOTH",
"-17 -110 OFFCURVE",
"-35 -92 OFFCURVE",
"-56 -92 CURVE SMOOTH",
"-77 -92 OFFCURVE",
"-95 -109 OFFCURVE",
"-95 -131 CURVE SMOOTH"
);
},
{
closed = 1;
nodes = (
"18 -153 OFFCURVE",
"35 -170 OFFCURVE",
"56 -170 CURVE SMOOTH",
"78 -170 OFFCURVE",
"95 -153 OFFCURVE",
"95 -131 CURVE SMOOTH",
"95 -109 OFFCURVE",
"78 -92 OFFCURVE",
"56 -92 CURVE SMOOTH",
"35 -92 OFFCURVE",
"18 -110 OFFCURVE",
"18 -131 CURVE SMOOTH"
);
}
);
width = 0;
},
{
anchors = (
{
name = _b.uni0591;
position = "{0, 0}";
}
);
hints = (
{
horizontal = 1;
place = "{-170, 78}";
type = Stem;
},
{
place = "{-95, 78}";
type = Stem;
},
{
place = "{18, 77}";
type = Stem;
}
);
layerId = "4E968995-FE0C-47C4-A23E-AA7FD2BAF135";
paths = (
{
closed = 1;
nodes = (
"-95 -153 OFFCURVE",
"-78 -170 OFFCURVE",
"-56 -170 CURVE SMOOTH",
"-35 -170 OFFCURVE",
"-17 -152 OFFCURVE",
"-17 -131 CURVE SMOOTH",
"-17 -110 OFFCURVE",
"-35 -92 OFFCURVE",
"-56 -92 CURVE SMOOTH",
"-77 -92 OFFCURVE",
"-95 -109 OFFCURVE",
"-95 -131 CURVE SMOOTH"
);
},
{
closed = 1;
nodes = (
"18 -153 OFFCURVE",
"35 -170 OFFCURVE",
"56 -170 CURVE SMOOTH",
"78 -170 OFFCURVE",
"95 -153 OFFCURVE",
"95 -131 CURVE SMOOTH",
"95 -109 OFFCURVE",
"78 -92 OFFCURVE",
"56 -92 CURVE SMOOTH",
"35 -92 OFFCURVE",
"18 -110 OFFCURVE",
"18 -131 CURVE SMOOTH"
);
}
);
width = 0;
}
);
unicode = 05B5;
script = hebrew;
category = Mark;
subCategory = Nonspacing;
},
{
glyphname = uni05B6;
lastChange = "2022-02-10 12:35:31 +0000";
layers = (
{
anchors = (
{
name = _b.uni0591;
position = "{0, 0}";
}
);
hints = (
{
place = "{-95, 78}";
type = Stem;
},
{
place = "{-39, 78}";
type = Stem;
},
{
place = "{18, 77}";
type = Stem;
},
{
horizontal = 1;
place = "{-188, 77}";
type = Stem;
},
{
horizontal = 1;
place = "{-87, 78}";
type = Stem;
}
);
layerId = "B990E356-538D-4D06-ADE8-234C9F2D2C22";
paths = (
{
closed = 1;
nodes = (
"-95 -79 OFFCURVE",
"-77 -97 OFFCURVE",
"-56 -97 CURVE SMOOTH",
"-35 -97 OFFCURVE",
"-17 -79 OFFCURVE",
"-17 -58 CURVE SMOOTH",
"-17 -37 OFFCURVE",
"-34 -19 OFFCURVE",
"-56 -19 CURVE SMOOTH",
"-78 -19 OFFCURVE",
"-95 -36 OFFCURVE",
"-95 -58 CURVE SMOOTH"
);
},
{
closed = 1;
nodes = (
"18 -79 OFFCURVE",
"35 -97 OFFCURVE",
"56 -97 CURVE SMOOTH",
"77 -97 OFFCURVE",
"95 -80 OFFCURVE",
"95 -58 CURVE SMOOTH",
"95 -36 OFFCURVE",
"78 -19 OFFCURVE",
"56 -19 CURVE SMOOTH",
"35 -19 OFFCURVE",
"18 -36 OFFCURVE",
"18 -58 CURVE SMOOTH"
);
},
{
closed = 1;
nodes = (
"-39 -180 OFFCURVE",
"-22 -198 OFFCURVE",
"0 -198 CURVE SMOOTH",
"21 -198 OFFCURVE",
"39 -180 OFFCURVE",
"39 -159 CURVE SMOOTH",
"39 -138 OFFCURVE",
"21 -121 OFFCURVE",
"0 -121 CURVE SMOOTH",
"-21 -121 OFFCURVE",
"-39 -138 OFFCURVE",
"-39 -159 CURVE SMOOTH"
);
}
);
width = 0;
},
{
anchors = (
{
name = _b.uni0591;
position = "{0, 0}";
}
);
hints = (
{
place = "{-95, 78}";
type = Stem;
},
{
place = "{-39, 78}";
type = Stem;
},
{
place = "{18, 77}";
type = Stem;
},
{
horizontal = 1;
place = "{-188, 77}";
type = Stem;
},
{
horizontal = 1;
place = "{-87, 78}";
type = Stem;
}
);
layerId = "4E968995-FE0C-47C4-A23E-AA7FD2BAF135";
paths = (
{
closed = 1;
nodes = (
"-95 -79 OFFCURVE",
"-77 -97 OFFCURVE",
"-56 -97 CURVE SMOOTH",
"-35 -97 OFFCURVE",
"-17 -79 OFFCURVE",
"-17 -58 CURVE SMOOTH",
"-17 -37 OFFCURVE",
"-34 -19 OFFCURVE",
"-56 -19 CURVE SMOOTH",
"-78 -19 OFFCURVE",
"-95 -36 OFFCURVE",
"-95 -58 CURVE SMOOTH"
);
},
{
closed = 1;
nodes = (
"18 -79 OFFCURVE",
"35 -97 OFFCURVE",
"56 -97 CURVE SMOOTH",
"77 -97 OFFCURVE",
"95 -80 OFFCURVE",
"95 -58 CURVE SMOOTH",
"95 -36 OFFCURVE",
"78 -19 OFFCURVE",
"56 -19 CURVE SMOOTH",
"35 -19 OFFCURVE",
"18 -36 OFFCURVE",
"18 -58 CURVE SMOOTH"
);
},
{
closed = 1;
nodes = (
"-39 -180 OFFCURVE",
"-22 -198 OFFCURVE",
"0 -198 CURVE SMOOTH",
"21 -198 OFFCURVE",
"39 -180 OFFCURVE",
"39 -159 CURVE SMOOTH",
"39 -138 OFFCURVE",
"21 -121 OFFCURVE",
"0 -121 CURVE SMOOTH",
"-21 -121 OFFCURVE",
"-39 -138 OFFCURVE",
"-39 -159 CURVE SMOOTH"
);
}
);
width = 0;
}
);
unicode = 05B6;
script = hebrew;
category = Mark;
subCategory = Nonspacing;
},
{
glyphname = uni05B7;
lastChange = "2022-02-10 15:22:22 +0000";
layers = (
{
anchors = (
{
name = _b.uni0591;
position = "{0, 0}";
}
);
hints = (
{
horizontal = 1;
place = "{-113, 52}";
type = Stem;
},
{
place = "{-80, 160}";
type = Stem;
}
);
layerId = "B990E356-538D-4D06-ADE8-234C9F2D2C22";
paths = (
{
closed = 1;
nodes = (
"80 -113 LINE",
"80 -61 LINE",
"-80 -61 LINE",
"-80 -113 LINE"
);
}
);
width = 0;
},
{
anchors = (
{
name = _b.uni0591;
position = "{0, 0}";
}
);
hints = (
{
horizontal = 1;
place = "{-113, 52}";
type = Stem;
},
{
place = "{-80, 160}";
type = Stem;
}
);
layerId = "4E968995-FE0C-47C4-A23E-AA7FD2BAF135";
paths = (
{
closed = 1;
nodes = (
"80 -113 LINE",
"80 -61 LINE",
"-80 -61 LINE",
"-80 -113 LINE"
);
}
);
width = 0;
}
);
unicode = 05B7;
script = hebrew;
category = Mark;
subCategory = Nonspacing;
},
{
glyphname = uni05B8;
lastChange = "2022-02-10 14:45:57 +0000";
layers = (
{
anchors = (
{
name = _b.uni0591;
position = "{-1, 0}";
}
);
hints = (
{
horizontal = 1;
place = "{-113, 52}";
type = Stem;
},
{
place = "{-26, 54}";
type = Stem;
}
);
layerId = "B990E356-538D-4D06-ADE8-234C9F2D2C22";
paths = (
{
closed = 1;
nodes = (
"27 -113 LINE",
"79 -113 LINE",
"79 -61 LINE",
"-81 -61 LINE",
"-81 -113 LINE",
"-27 -113 LINE",
"-27 -170 LINE",
"27 -170 LINE"
);
}
);
width = 0;
},
{
anchors = (
{
name = _b.uni0591;
position = "{0, 0}";
}
);
hints = (
{
horizontal = 1;
place = "{-113, 52}";
type = Stem;
},
{
place = "{-26, 54}";
type = Stem;
}
);
layerId = "4E968995-FE0C-47C4-A23E-AA7FD2BAF135";
paths = (
{
closed = 1;
nodes = (
"28 -113 LINE",
"80 -113 LINE",
"80 -61 LINE",
"-80 -61 LINE",
"-80 -113 LINE",
"-26 -113 LINE",
"-26 -170 LINE",
"28 -170 LINE"
);
}
);
width = 0;
}
);
unicode = 05B8;
script = hebrew;
category = Mark;
subCategory = Nonspacing;
},
{
glyphname = uni05B9;
lastChange = "2022-02-09 16:06:15 +0000";
layers = (
{
anchors = (
{
name = _t.uni05B9;
position = "{0, 698}";
}
);
hints = (
{
horizontal = 1;
place = "{706, 78}";
type = Stem;
},
{
place = "{-39, 78}";
type = Stem;
}
);
layerId = "B990E356-538D-4D06-ADE8-234C9F2D2C22";
paths = (
{
closed = 1;
nodes = (
"-39 724 OFFCURVE",
"-22 706 OFFCURVE",
"0 706 CURVE SMOOTH",
"21 706 OFFCURVE",
"39 724 OFFCURVE",
"39 745 CURVE SMOOTH",
"39 766 OFFCURVE",
"21 784 OFFCURVE",
"0 784 CURVE SMOOTH",
"-21 784 OFFCURVE",
"-39 766 OFFCURVE",
"-39 745 CURVE SMOOTH"
);
}
);
width = 0;
},
{
anchors = (
{
name = _t.uni05B9;
position = "{0, 698}";
}
);
hints = (
{
horizontal = 1;
place = "{706, 78}";
type = Stem;
},
{
place = "{-39, 78}";
type = Stem;
}
);
layerId = "4E968995-FE0C-47C4-A23E-AA7FD2BAF135";
paths = (
{
closed = 1;
nodes = (
"-39 724 OFFCURVE",
"-22 706 OFFCURVE",
"0 706 CURVE SMOOTH",
"21 706 OFFCURVE",
"39 724 OFFCURVE",
"39 745 CURVE SMOOTH",
"39 766 OFFCURVE",
"21 784 OFFCURVE",
"0 784 CURVE SMOOTH",
"-21 784 OFFCURVE",
"-39 766 OFFCURVE",
"-39 745 CURVE SMOOTH"
);
}
);
width = 0;
}
);
unicode = 05B9;
script = hebrew;
category = Mark;
subCategory = Nonspacing;
},
{
glyphname = uni05BA;
lastChange = "2022-02-09 09:21:10 +0000";
layers = (
{
hints = (
{
horizontal = 1;
place = "{706, 78}";
type = Stem;
},
{
place = "{-39, 78}";
type = Stem;
}
);
layerId = "B990E356-538D-4D06-ADE8-234C9F2D2C22";
paths = (
{
closed = 1;
nodes = (
"-39 724 OFFCURVE",
"-22 706 OFFCURVE",
"0 706 CURVE SMOOTH",
"21 706 OFFCURVE",
"39 724 OFFCURVE",
"39 745 CURVE SMOOTH",
"39 766 OFFCURVE",
"21 784 OFFCURVE",
"0 784 CURVE SMOOTH",
"-21 784 OFFCURVE",
"-39 766 OFFCURVE",
"-39 745 CURVE SMOOTH"
);
}
);
width = 0;
},
{
hints = (
{
horizontal = 1;
place = "{706, 78}";
type = Stem;
},
{
place = "{-39, 78}";
type = Stem;
}
);
layerId = "4E968995-FE0C-47C4-A23E-AA7FD2BAF135";
paths = (
{
closed = 1;
nodes = (
"-39 724 OFFCURVE",
"-22 706 OFFCURVE",
"0 706 CURVE SMOOTH",
"21 706 OFFCURVE",
"39 724 OFFCURVE",
"39 745 CURVE SMOOTH",
"39 766 OFFCURVE",
"21 784 OFFCURVE",
"0 784 CURVE SMOOTH",
"-21 784 OFFCURVE",
"-39 766 OFFCURVE",
"-39 745 CURVE SMOOTH"
);
}
);
width = 0;
}
);
unicode = 05BA;
script = hebrew;
category = Mark;
subCategory = Nonspacing;
},
{
glyphname = uni05BB;
lastChange = "2022-02-10 11:39:55 +0000";
layers = (
{
anchors = (
{
name = _b.uni0591;
position = "{0, 10}";
},
{
name = _b.uni0591.2;
position = "{-17, 10}";
}
);
hints = (
{
place = "{-116, 77}";
type = Stem;
},
{
place = "{-39, 78}";
type = Stem;
},
{
place = "{39, 78}";
type = Stem;
},
{
horizontal = 1;
place = "{-188, 78}";
type = Stem;
},
{
horizontal = 1;
place = "{-137, 78}";
type = Stem;
},
{
horizontal = 1;
place = "{-85, 77}";
type = Stem;
}
);
layerId = "B990E356-538D-4D06-ADE8-234C9F2D2C22";
paths = (
{
closed = 1;
nodes = (
"-116 -68 OFFCURVE",
"-99 -85 OFFCURVE",
"-78 -85 CURVE SMOOTH",
"-56 -85 OFFCURVE",
"-39 -68 OFFCURVE",
"-39 -47 CURVE SMOOTH",
"-39 -25 OFFCURVE",
"-56 -8 OFFCURVE",
"-78 -8 CURVE SMOOTH",
"-99 -8 OFFCURVE",
"-116 -25 OFFCURVE",
"-116 -47 CURVE SMOOTH"
);
},
{
closed = 1;
nodes = (
"-39 -119 OFFCURVE",
"-22 -137 OFFCURVE",
"0 -137 CURVE SMOOTH",
"21 -137 OFFCURVE",
"39 -119 OFFCURVE",
"39 -98 CURVE SMOOTH",
"39 -77 OFFCURVE",
"21 -59 OFFCURVE",
"0 -59 CURVE SMOOTH",
"-21 -59 OFFCURVE",
"-39 -77 OFFCURVE",
"-39 -98 CURVE SMOOTH"
);
},
{
closed = 1;
nodes = (
"39 -171 OFFCURVE",
"56 -188 OFFCURVE",
"78 -188 CURVE SMOOTH",
"100 -188 OFFCURVE",
"117 -170 OFFCURVE",
"117 -149 CURVE SMOOTH",
"117 -128 OFFCURVE",
"99 -110 OFFCURVE",
"78 -110 CURVE SMOOTH",
"57 -110 OFFCURVE",
"39 -127 OFFCURVE",
"39 -149 CURVE SMOOTH"
);
}
);
width = 0;
},
{
anchors = (
{
name = _b.uni0591;
position = "{0, 10}";
},
{
name = _b.uni0591.2;
position = "{-127, 10}";
}
);
hints = (
{
place = "{-116, 77}";
type = Stem;
},
{
place = "{-39, 78}";
type = Stem;
},
{
place = "{39, 78}";
type = Stem;
},
{
horizontal = 1;
place = "{-188, 78}";
type = Stem;
},
{
horizontal = 1;
place = "{-137, 78}";
type = Stem;
},
{
horizontal = 1;
place = "{-85, 77}";
type = Stem;
}
);
layerId = "4E968995-FE0C-47C4-A23E-AA7FD2BAF135";
paths = (
{
closed = 1;
nodes = (
"-116 -68 OFFCURVE",
"-99 -85 OFFCURVE",
"-78 -85 CURVE SMOOTH",
"-56 -85 OFFCURVE",
"-39 -68 OFFCURVE",
"-39 -47 CURVE SMOOTH",
"-39 -25 OFFCURVE",
"-56 -8 OFFCURVE",
"-78 -8 CURVE SMOOTH",
"-99 -8 OFFCURVE",
"-116 -25 OFFCURVE",
"-116 -47 CURVE SMOOTH"
);
},
{
closed = 1;
nodes = (
"-39 -119 OFFCURVE",
"-22 -137 OFFCURVE",
"0 -137 CURVE SMOOTH",
"21 -137 OFFCURVE",
"39 -119 OFFCURVE",
"39 -98 CURVE SMOOTH",
"39 -77 OFFCURVE",
"21 -59 OFFCURVE",
"0 -59 CURVE SMOOTH",
"-21 -59 OFFCURVE",
"-39 -77 OFFCURVE",
"-39 -98 CURVE SMOOTH"
);
},
{
closed = 1;
nodes = (
"39 -171 OFFCURVE",
"56 -188 OFFCURVE",
"78 -188 CURVE SMOOTH",
"100 -188 OFFCURVE",
"117 -170 OFFCURVE",
"117 -149 CURVE SMOOTH",
"117 -128 OFFCURVE",
"99 -110 OFFCURVE",
"78 -110 CURVE SMOOTH",
"57 -110 OFFCURVE",
"39 -127 OFFCURVE",
"39 -149 CURVE SMOOTH"
);
}
);
width = 0;
}
);
unicode = 05BB;
script = hebrew;
category = Mark;
subCategory = Nonspacing;
},
{
glyphname = uni05BC;
lastChange = "2022-02-10 11:18:55 +0000";
layers = (
{
anchors = (
{
name = _t.uni05BC;
position = "{0, 342}";
}
);
hints = (
{
horizontal = 1;
place = "{305, 77}";
type = Stem;
},
{
place = "{-39, 78}";
type = Stem;
}
);
layerId = "B990E356-538D-4D06-ADE8-234C9F2D2C22";
paths = (
{
closed = 1;
nodes = (
"-39 322 OFFCURVE",
"-21 305 OFFCURVE",
"0 305 CURVE SMOOTH",
"21 305 OFFCURVE",
"39 322 OFFCURVE",
"39 343 CURVE SMOOTH",
"39 366 OFFCURVE",
"21 382 OFFCURVE",
"0 382 CURVE SMOOTH",
"-21 382 OFFCURVE",
"-39 366 OFFCURVE",
"-39 343 CURVE SMOOTH"
);
}
);
width = 0;
},
{
anchors = (
{
name = _t.uni05BC;
position = "{0, 342}";
}
);
hints = (
{
horizontal = 1;
place = "{305, 77}";
type = Stem;
},
{
place = "{-39, 78}";
type = Stem;
}
);
layerId = "4E968995-FE0C-47C4-A23E-AA7FD2BAF135";
paths = (
{
closed = 1;
nodes = (
"-39 322 OFFCURVE",
"-21 305 OFFCURVE",
"0 305 CURVE SMOOTH",
"21 305 OFFCURVE",
"39 322 OFFCURVE",
"39 343 CURVE SMOOTH",
"39 366 OFFCURVE",
"21 382 OFFCURVE",
"0 382 CURVE SMOOTH",
"-21 382 OFFCURVE",
"-39 366 OFFCURVE",
"-39 343 CURVE SMOOTH"
);
}
);
width = 0;
}
);
unicode = 05BC;
script = hebrew;
category = Mark;
subCategory = Nonspacing;
},
{
glyphname = uni05BD;
lastChange = "2022-02-10 15:26:40 +0000";
layers = (
{
anchors = (
{
name = _b.uni0591;
position = "{0, 0}";
}
);
hints = (
{
horizontal = 1;
place = "{-170, 109}";
type = Stem;
},
{
place = "{-27, 54}";
type = Stem;
}
);
layerId = "B990E356-538D-4D06-ADE8-234C9F2D2C22";
paths = (
{
closed = 1;
nodes = (
"27 -61 LINE",
"-27 -61 LINE",
"-27 -170 LINE",
"27 -170 LINE"
);
}
);
width = 0;
},
{
anchors = (
{
name = _b.uni0591;
position = "{0, 0}";
}
);
hints = (
{
horizontal = 1;
place = "{-170, 109}";
type = Stem;
},
{
place = "{-27, 54}";
type = Stem;
}
);
layerId = "4E968995-FE0C-47C4-A23E-AA7FD2BAF135";
paths = (
{
closed = 1;
nodes = (
"27 -61 LINE",
"-27 -61 LINE",
"-27 -170 LINE",
"27 -170 LINE"
);
}
);
width = 0;
}
);
unicode = 05BD;
script = hebrew;
category = Mark;
subCategory = Nonspacing;
},
{
glyphname = uni05BE;
lastChange = "2022-02-09 09:21:10 +0000";
layers = (
{
hints = (
{
horizontal = 1;
place = "{559, 103}";
type = Stem;
},
{
place = "{65, 280}";
type = Stem;
}
);
layerId = "B990E356-538D-4D06-ADE8-234C9F2D2C22";
paths = (
{
closed = 1;
nodes = (
"344 559 LINE",
"344 662 LINE",
"65 662 LINE",
"65 559 LINE"
);
}
);
width = 383;
},
{
hints = (
{
horizontal = 1;
place = "{559, 103}";
type = Stem;
},
{
place = "{65, 280}";
type = Stem;
}
);
layerId = "4E968995-FE0C-47C4-A23E-AA7FD2BAF135";
paths = (
{
closed = 1;
nodes = (
"344 559 LINE",
"344 662 LINE",
"65 662 LINE",
"65 559 LINE"
);
}
);
width = 383;
}
);
unicode = 05BE;
script = hebrew;
category = Punctuation;
subCategory = Dash;
},
{
glyphname = uni05BF;
lastChange = "2022-02-09 16:06:15 +0000";
layers = (
{
anchors = (
{
name = _t.uni0592;
position = "{0, 698}";
},
{
name = _t.uni05BF;
position = "{0, 698}";
}
);
hints = (
{
horizontal = 1;
place = "{719, 52}";
type = Stem;
},
{
place = "{-80, 160}";
type = Stem;
}
);
layerId = "B990E356-538D-4D06-ADE8-234C9F2D2C22";
paths = (
{
closed = 1;
nodes = (
"80 719 LINE",
"80 771 LINE",
"-80 771 LINE",
"-80 719 LINE"
);
}
);
width = 0;
},
{
anchors = (
{
name = _t.uni0592;
position = "{0, 698}";
},
{
name = _t.uni05BF;
position = "{0, 698}";
}
);
hints = (
{
horizontal = 1;
place = "{719, 52}";
type = Stem;
},
{
place = "{-80, 160}";
type = Stem;
}
);
layerId = "4E968995-FE0C-47C4-A23E-AA7FD2BAF135";
paths = (
{
closed = 1;
nodes = (
"80 719 LINE",
"80 771 LINE",
"-80 771 LINE",
"-80 719 LINE"
);
}
);
width = 0;
}
);
unicode = 05BF;
script = hebrew;
category = Mark;
subCategory = Nonspacing;
},
{
glyphname = uni05C0;
lastChange = "2022-02-09 09:21:10 +0000";
layers = (
{
hints = (
{
horizontal = 1;
place = "{-203, 1183}";
type = Stem;
},
{
place = "{244, 75}";
type = Stem;
}
);
layerId = "B990E356-538D-4D06-ADE8-234C9F2D2C22";
paths = (
{
closed = 1;
nodes = (
"319 980 LINE",
"244 980 LINE",
"244 -203 LINE",
"319 -203 LINE"
);
}
);
width = 563;
},
{
hints = (
{
horizontal = 1;
place = "{-203, 1183}";
type = Stem;
},
{
place = "{244, 75}";
type = Stem;
}
);
layerId = "4E968995-FE0C-47C4-A23E-AA7FD2BAF135";
paths = (
{
closed = 1;
nodes = (
"319 980 LINE",
"244 980 LINE",
"244 -203 LINE",
"319 -203 LINE"
);
}
);
width = 563;
}
);
unicode = 05C0;
script = hebrew;
category = Punctuation;
subCategory = Other;
},
{
glyphname = uni05C1;
lastChange = "2022-02-10 14:19:39 +0000";
layers = (
{
anchors = (
{
name = _t.uni05C1;
position = "{0, 698}";
}
);
hints = (
{
horizontal = 1;
place = "{706, 78}";
type = Stem;
},
{
place = "{-39, 78}";
type = Stem;
}
);
layerId = "B990E356-538D-4D06-ADE8-234C9F2D2C22";
paths = (
{
closed = 1;
nodes = (
"-39 724 OFFCURVE",
"-22 706 OFFCURVE",
"0 706 CURVE SMOOTH",
"21 706 OFFCURVE",
"39 724 OFFCURVE",
"39 745 CURVE SMOOTH",
"39 766 OFFCURVE",
"21 784 OFFCURVE",
"0 784 CURVE SMOOTH",
"-21 784 OFFCURVE",
"-39 766 OFFCURVE",
"-39 745 CURVE SMOOTH"
);
}
);
width = 0;
},
{
anchors = (
{
name = _t.uni05C1;
position = "{0, 698}";
}
);
hints = (
{
horizontal = 1;
place = "{706, 78}";
type = Stem;
},
{
place = "{-39, 78}";
type = Stem;
}
);
layerId = "4E968995-FE0C-47C4-A23E-AA7FD2BAF135";
paths = (
{
closed = 1;
nodes = (
"-39 724 OFFCURVE",
"-22 706 OFFCURVE",
"0 706 CURVE SMOOTH",
"21 706 OFFCURVE",
"39 724 OFFCURVE",
"39 745 CURVE SMOOTH",
"39 766 OFFCURVE",
"21 784 OFFCURVE",
"0 784 CURVE SMOOTH",
"-21 784 OFFCURVE",
"-39 766 OFFCURVE",
"-39 745 CURVE SMOOTH"
);
}
);
width = 0;
}
);
unicode = 05C1;
script = hebrew;
category = Mark;
subCategory = Nonspacing;
},
{
glyphname = uni05C2;
lastChange = "2022-02-09 09:21:10 +0000";
layers = (
{
hints = (
{
horizontal = 1;
place = "{706, 78}";
type = Stem;
},
{
place = "{-39, 78}";
type = Stem;
}
);
layerId = "B990E356-538D-4D06-ADE8-234C9F2D2C22";
paths = (
{
closed = 1;
nodes = (
"-39 724 OFFCURVE",
"-22 706 OFFCURVE",
"0 706 CURVE SMOOTH",
"21 706 OFFCURVE",
"39 724 OFFCURVE",
"39 745 CURVE SMOOTH",
"39 766 OFFCURVE",
"21 784 OFFCURVE",
"0 784 CURVE SMOOTH",
"-21 784 OFFCURVE",
"-39 766 OFFCURVE",
"-39 745 CURVE SMOOTH"
);
}
);
width = 0;
},
{
hints = (
{
horizontal = 1;
place = "{706, 78}";
type = Stem;
},
{
place = "{-39, 78}";
type = Stem;
}
);
layerId = "4E968995-FE0C-47C4-A23E-AA7FD2BAF135";
paths = (
{
closed = 1;
nodes = (
"-39 724 OFFCURVE",
"-22 706 OFFCURVE",
"0 706 CURVE SMOOTH",
"21 706 OFFCURVE",
"39 724 OFFCURVE",
"39 745 CURVE SMOOTH",
"39 766 OFFCURVE",
"21 784 OFFCURVE",
"0 784 CURVE SMOOTH",
"-21 784 OFFCURVE",
"-39 766 OFFCURVE",
"-39 745 CURVE SMOOTH"
);
}
);
width = 0;
}
);
unicode = 05C2;
script = hebrew;
category = Mark;
subCategory = Nonspacing;
},
{
glyphname = uni05C3;
lastChange = "2022-02-09 09:21:10 +0000";
layers = (
{
hints = (
{
horizontal = 1;
place = "{0, 101}";
type = Stem;
},
{
horizontal = 1;
place = "{427, 101}";
type = Stem;
},
{
place = "{91, 96}";
type = Stem;
}
);
layerId = "B990E356-538D-4D06-ADE8-234C9F2D2C22";
paths = (
{
closed = 1;
nodes = (
"187 528 LINE",
"91 528 LINE",
"91 427 LINE",
"187 427 LINE"
);
},
{
closed = 1;
nodes = (
"187 101 LINE",
"91 101 LINE",
"91 0 LINE",
"187 0 LINE"
);
}
);
width = 278;
},
{
hints = (
{
horizontal = 1;
place = "{0, 137}";
type = Stem;
},
{
horizontal = 1;
place = "{367, 138}";
type = Stem;
},
{
place = "{96, 141}";
type = Stem;
}
);
layerId = "4E968995-FE0C-47C4-A23E-AA7FD2BAF135";
paths = (
{
closed = 1;
nodes = (
"237 505 LINE",
"96 505 LINE",
"96 367 LINE",
"237 367 LINE"
);
},
{
closed = 1;
nodes = (
"237 137 LINE",
"96 137 LINE",
"96 0 LINE",
"237 0 LINE"
);
}
);
width = 333;
}
);
unicode = 05C3;
script = hebrew;
category = Punctuation;
subCategory = Other;
},
{
glyphname = uni05C4;
lastChange = "2022-02-09 16:06:15 +0000";
layers = (
{
anchors = (
{
name = _t.uni05C4.1;
position = "{0, 757}";
}
);
hints = (
{
horizontal = 1;
place = "{761, 78}";
type = Stem;
},
{
place = "{-39, 78}";
type = Stem;
}
);
layerId = "B990E356-538D-4D06-ADE8-234C9F2D2C22";
paths = (
{
closed = 1;
nodes = (
"-39 778 OFFCURVE",
"-21 761 OFFCURVE",
"0 761 CURVE SMOOTH",
"21 761 OFFCURVE",
"39 778 OFFCURVE",
"39 800 CURVE SMOOTH",
"39 821 OFFCURVE",
"21 839 OFFCURVE",
"0 839 CURVE SMOOTH",
"-21 839 OFFCURVE",
"-39 821 OFFCURVE",
"-39 800 CURVE SMOOTH"
);
}
);
width = 0;
},
{
anchors = (
{
name = _t.uni05C4.1;
position = "{0, 757}";
}
);
hints = (
{
horizontal = 1;
place = "{761, 78}";
type = Stem;
},
{
place = "{-39, 78}";
type = Stem;
}
);
layerId = "4E968995-FE0C-47C4-A23E-AA7FD2BAF135";
paths = (
{
closed = 1;
nodes = (
"-39 778 OFFCURVE",
"-21 761 OFFCURVE",
"0 761 CURVE SMOOTH",
"21 761 OFFCURVE",
"39 778 OFFCURVE",
"39 800 CURVE SMOOTH",
"39 821 OFFCURVE",
"21 839 OFFCURVE",
"0 839 CURVE SMOOTH",
"-21 839 OFFCURVE",
"-39 821 OFFCURVE",
"-39 800 CURVE SMOOTH"
);
}
);
width = 0;
}
);
unicode = 05C4;
script = hebrew;
category = Mark;
subCategory = Nonspacing;
},
{
glyphname = uni05C5;
lastChange = "2022-02-09 16:06:15 +0000";
layers = (
{
anchors = (
{
name = _b.uni05C5.1;
position = "{0, 24}";
}
);
hints = (
{
horizontal = 1;
place = "{-198, 77}";
type = Stem;
},
{
place = "{-39, 78}";
type = Stem;
}
);
layerId = "B990E356-538D-4D06-ADE8-234C9F2D2C22";
paths = (
{
closed = 1;
nodes = (
"-39 -181 OFFCURVE",
"-21 -198 OFFCURVE",
"0 -198 CURVE SMOOTH",
"21 -198 OFFCURVE",
"39 -181 OFFCURVE",
"39 -160 CURVE SMOOTH",
"39 -139 OFFCURVE",
"22 -121 OFFCURVE",
"0 -121 CURVE SMOOTH",
"-21 -121 OFFCURVE",
"-39 -139 OFFCURVE",
"-39 -160 CURVE SMOOTH"
);
}
);
width = 0;
},
{
anchors = (
{
name = _b.uni05C5.1;
position = "{0, 24}";
}
);
hints = (
{
horizontal = 1;
place = "{-198, 77}";
type = Stem;
},
{
place = "{-39, 78}";
type = Stem;
}
);
layerId = "4E968995-FE0C-47C4-A23E-AA7FD2BAF135";
paths = (
{
closed = 1;
nodes = (
"-39 -181 OFFCURVE",
"-21 -198 OFFCURVE",
"0 -198 CURVE SMOOTH",
"21 -198 OFFCURVE",
"39 -181 OFFCURVE",
"39 -160 CURVE SMOOTH",
"39 -139 OFFCURVE",
"22 -121 OFFCURVE",
"0 -121 CURVE SMOOTH",
"-21 -121 OFFCURVE",
"-39 -139 OFFCURVE",
"-39 -160 CURVE SMOOTH"
);
}
);
width = 0;
}
);
unicode = 05C5;
script = hebrew;
category = Mark;
subCategory = Nonspacing;
},
{
glyphname = uni05C6;
lastChange = "2022-02-09 09:21:10 +0000";
layers = (
{
layerId = "4E968995-FE0C-47C4-A23E-AA7FD2BAF135";
paths = (
{
closed = 1;
nodes = (
"391 0 LINE",
"391 118 LINE",
"207 118 LINE",
"207 342 LINE SMOOTH",
"207 401 OFFCURVE",
"213 440 OFFCURVE",
"224 459 CURVE SMOOTH",
"235 479 OFFCURVE",
"258 488 OFFCURVE",
"291 488 CURVE SMOOTH",
"363 488 LINE",
"363 606 LINE",
"285 606 LINE SMOOTH",
"225 606 OFFCURVE",
"182 599 OFFCURVE",
"154 584 CURVE SMOOTH",
"127 569 OFFCURVE",
"107 544 OFFCURVE",
"94 511 CURVE",
"82 477 OFFCURVE",
"75 429 OFFCURVE",
"75 367 CURVE SMOOTH",
"75 0 LINE"
);
}
);
width = 421;
},
{
layerId = "B990E356-538D-4D06-ADE8-234C9F2D2C22";
paths = (
{
closed = 1;
nodes = (
"349 0 LINE",
"349 83 LINE",
"165 83 LINE",
"165 342 LINE SMOOTH",
"165 397 OFFCURVE",
"167 450 OFFCURVE",
"182 479 CURVE SMOOTH",
"196 507 OFFCURVE",
"221 516 OFFCURVE",
"255 516 CURVE SMOOTH",
"321 516 LINE",
"321 599 LINE",
"258 599 LINE SMOOTH",
"206 599 OFFCURVE",
"168 592 OFFCURVE",
"144 578 CURVE",
"120 563 OFFCURVE",
"103 539 OFFCURVE",
"92 506 CURVE SMOOTH",
"81 474 OFFCURVE",
"75 427 OFFCURVE",
"75 367 CURVE SMOOTH",
"75 0 LINE"
);
}
);
width = 379;
}
);
unicode = 05C6;
script = hebrew;
category = Letter;
subCategory = Spacing;
},
{
glyphname = uni05C7;
lastChange = "2022-02-10 10:18:20 +0000";
layers = (
{
anchors = (
{
name = _b.uni0591;
position = "{124, 0}";
},
{
name = _b.uni0591.2;
position = "{0, 0}";
}
);
hints = (
{
horizontal = 1;
place = "{-100, 52}";
type = Stem;
},
{
place = "{105, 53}";
type = Stem;
}
);
layerId = "B990E356-538D-4D06-ADE8-234C9F2D2C22";
paths = (
{
closed = 1;
nodes = (
"26 -48 LINE",
"26 -100 LINE",
"113 -100 LINE",
"105 -178 LINE",
"105 -188 LINE",
"158 -188 LINE",
"158 -178 LINE",
"149 -100 LINE",
"237 -100 LINE",
"237 -48 LINE"
);
}
);
width = 0;
},
{
anchors = (
{
name = _b.uni0591;
position = "{137, 0}";
},
{
name = _b.uni0591.2;
position = "{-20, 0}";
}
);
hints = (
{
place = "{26, 225}";
type = Stem;
},
{
place = "{105, 67}";
type = Stem;
},
{
horizontal = 1;
place = "{-114, 66}";
type = Stem;
}
);
layerId = "4E968995-FE0C-47C4-A23E-AA7FD2BAF135";
paths = (
{
closed = 1;
nodes = (
"26 -48 LINE",
"26 -114 LINE",
"113 -114 LINE",
"105 -192 LINE",
"105 -202 LINE",
"172 -202 LINE",
"172 -192 LINE",
"163 -114 LINE",
"251 -114 LINE",
"251 -48 LINE"
);
}
);
width = 0;
}
);
unicode = 05C7;
script = hebrew;
category = Mark;
subCategory = Nonspacing;
},
{
glyphname = uni05D0;
lastChange = "2022-02-11 10:14:28 +0000";
layers = (
{
anchors = (
{
name = b.uni0591;
position = "{302, 0}";
},
{
name = b.uni0591.2;
position = "{302, 0}";
},
{
name = b.uni059A;
position = "{538, 0}";
},
{
name = b.uni05C5.1;
position = "{302, 0}";
},
{
name = t.uni0592;
position = "{328, 659}";
},
{
name = t.uni0592.2;
position = "{322, 659}";
},
{
name = t.uni0599;
position = "{117, 659}";
},
{
name = t.uni059D;
position = "{527, 659}";
},
{
name = t.uni05B9;
position = "{29, 698}";
},
{
name = t.uni05BC;
position = "{0, 343}";
},
{
name = t.uni05BF;
position = "{547, 698}";
},
{
name = t.uni05C1;
position = "{-20, 698}";
},
{
name = t.uni05C4.1;
position = "{322, 830}";
}
);
hints = (
{
horizontal = 1;
place = "{0, 599}";
type = Stem;
},
{
place = "{32, 583}";
type = Stem;
}
);
layerId = "B990E356-538D-4D06-ADE8-234C9F2D2C22";
paths = (
{
closed = 1;
nodes = (
"202 406 LINE",
"152 386 OFFCURVE",
"125 359 OFFCURVE",
"105 313 CURVE",
"96 290 OFFCURVE",
"85 250 OFFCURVE",
"73 195 CURVE SMOOTH",
"32 0 LINE",
"127 0 LINE",
"166 197 LINE SMOOTH",
"174 238 OFFCURVE",
"181 268 OFFCURVE",
"188 284 CURVE",
"199 317 OFFCURVE",
"215 336 OFFCURVE",
"243 350 CURVE",
"501 0 LINE",
"615 0 LINE",
"439 233 LINE",
"506 299 OFFCURVE",
"533 342 OFFCURVE",
"552 398 CURVE SMOOTH",
"562 426 OFFCURVE",
"568 458 OFFCURVE",
"572 492 CURVE SMOOTH",
"583 599 LINE",
"490 599 LINE",
"479 490 LINE",
"470 406 OFFCURVE",
"441 341 OFFCURVE",
"392 296 CURVE",
"172 599 LINE",
"61 599 LINE"
);
}
);
width = 628;
},
{
anchors = (
{
name = b.uni0591;
position = "{312, 0}";
},
{
name = b.uni0591.2;
position = "{312, 0}";
},
{
name = b.uni059A;
position = "{518, 0}";
},
{
name = b.uni05C5.1;
position = "{312, 0}";
},
{
name = t.uni0592;
position = "{356, 659}";
},
{
name = t.uni0592.2;
position = "{356, 659}";
},
{
name = t.uni0599;
position = "{156, 659}";
},
{
name = t.uni059D;
position = "{576, 659}";
},
{
name = t.uni05B9;
position = "{29, 698}";
},
{
name = t.uni05BC;
position = "{0, 343}";
},
{
name = t.uni05BF;
position = "{615, 698}";
},
{
name = t.uni05C1;
position = "{-20, 698}";
},
{
name = t.uni05C4.1;
position = "{356, 830}";
}
);
hints = (
{
horizontal = 1;
place = "{0, 606}";
type = Stem;
},
{
place = "{32, 632}";
type = Stem;
}
);
layerId = "4E968995-FE0C-47C4-A23E-AA7FD2BAF135";
paths = (
{
closed = 1;
nodes = (
"202 417 LINE",
"151 395 OFFCURVE",
"125 370 OFFCURVE",
"105 322 CURVE",
"96 298 OFFCURVE",
"85 258 OFFCURVE",
"73 202 CURVE",
"32 0 LINE",
"169 0 LINE",
"199 177 LINE",
"208 235 OFFCURVE",
"217 274 OFFCURVE",
"224 294 CURVE SMOOTH",
"231 313 OFFCURVE",
"244 328 OFFCURVE",
"261 338 CURVE",
"505 0 LINE",
"664 0 LINE",
"482 248 LINE",
"556 314 OFFCURVE",
"583 351 OFFCURVE",
"603 403 CURVE",
"612 429 OFFCURVE",
"619 458 OFFCURVE",
"622 490 CURVE SMOOTH",
"634 606 LINE",
"499 606 LINE",
"489 499 LINE",
"479 414 OFFCURVE",
"460 369 OFFCURVE",
"419 332 CURVE",
"221 606 LINE",
"61 606 LINE"
);
}
);
width = 682;
}
);
unicode = 05D0;
script = hebrew;
category = Letter;
subCategory = Spacing;
},
{
glyphname = uni05D1;
lastChange = "2022-02-10 17:30:22 +0000";
layers = (
{
anchors = (
{
name = b.uni0591;
position = "{273, 0}";
},
{
name = b.uni0591.2;
position = "{269, 0}";
},
{
name = b.uni059A;
position = "{410, 0}";
},
{
name = b.uni05C5.1;
position = "{273, 0}";
},
{
name = t.uni0592;
position = "{244, 659}";
},
{
name = t.uni0592.2;
position = "{244, 659}";
},
{
name = t.uni0599;
position = "{117, 659}";
},
{
name = t.uni059D;
position = "{439, 659}";
},
{
name = t.uni05B9;
position = "{29, 698}";
},
{
name = t.uni05BC;
position = "{0, 343}";
},
{
name = t.uni05BF;
position = "{459, 698}";
},
{
name = t.uni05C1;
position = "{0, 698}";
},
{
name = t.uni05C4.1;
position = "{244, 830}";
}
);
hints = (
{
horizontal = 1;
place = "{0, 83}";
type = Stem;
},
{
horizontal = 1;
place = "{516, 83}";
type = Stem;
},
{
place = "{408, 90}";
type = Stem;
}
);
layerId = "B990E356-538D-4D06-ADE8-234C9F2D2C22";
paths = (
{
closed = 1;
nodes = (
"246 516 LINE SMOOTH",
"365 516 OFFCURVE",
"408 472 OFFCURVE",
"408 352 CURVE SMOOTH",
"408 83 LINE",
"40 83 LINE",
"40 0 LINE",
"563 0 LINE",
"563 83 LINE",
"498 83 LINE",
"498 351 LINE SMOOTH",
"498 528 OFFCURVE",
"427 599 OFFCURVE",
"247 599 CURVE SMOOTH",
"63 599 LINE",
"63 516 LINE"
);
}
);
width = 598;
},
{
anchors = (
{
name = b.uni0591;
position = "{273, 0}";
},
{
name = b.uni0591.2;
position = "{273, 0}";
},
{
name = b.uni059A;
position = "{410, 0}";
},
{
name = b.uni05C5.1;
position = "{273, 0}";
},
{
name = t.uni0592;
position = "{293, 659}";
},
{
name = t.uni0592.2;
position = "{293, 659}";
},
{
name = t.uni0599;
position = "{117, 659}";
},
{
name = t.uni059D;
position = "{479, 659}";
},
{
name = t.uni05B9;
position = "{29, 698}";
},
{
name = t.uni05BC;
position = "{0, 334}";
},
{
name = t.uni05BF;
position = "{508, 698}";
},
{
name = t.uni05C1;
position = "{0, 698}";
},
{
name = t.uni05C4.1;
position = "{293, 830}";
}
);
hints = (
{
horizontal = 1;
place = "{0, 118}";
type = Stem;
},
{
horizontal = 1;
place = "{488, 118}";
type = Stem;
},
{
place = "{408, 132}";
type = Stem;
}
);
layerId = "4E968995-FE0C-47C4-A23E-AA7FD2BAF135";
paths = (
{
closed = 1;
nodes = (
"267 488 LINE SMOOTH",
"370 488 OFFCURVE",
"408 448 OFFCURVE",
"408 334 CURVE SMOOTH",
"408 118 LINE",
"40 118 LINE",
"40 0 LINE",
"605 0 LINE",
"605 118 LINE",
"540 118 LINE",
"540 351 LINE SMOOTH",
"540 532 OFFCURVE",
"459 606 OFFCURVE",
"269 606 CURVE SMOOTH",
"63 606 LINE",
"63 488 LINE"
);
}
);
width = 640;
}
);
unicode = 05D1;
script = hebrew;
category = Letter;
subCategory = Spacing;
},
{
glyphname = uni05D2;
lastChange = "2022-02-10 15:22:03 +0000";
layers = (
{
anchors = (
{
name = b.uni0591;
position = "{254, 0}";
},
{
name = b.uni0591.2;
position = "{254, 0}";
},
{
name = b.uni059A;
position = "{313, 0}";
},
{
name = b.uni05C5.1;
position = "{254, 0}";
},
{
name = t.uni0592;
position = "{205, 659}";
},
{
name = t.uni0592.2;
position = "{205, 659}";
},
{
name = t.uni0599;
position = "{117, 659}";
},
{
name = t.uni059D;
position = "{273, 659}";
},
{
name = t.uni05B9;
position = "{29, 698}";
},
{
name = t.uni05BC;
position = "{0, 343}";
},
{
name = t.uni05BF;
position = "{361, 698}";
},
{
name = t.uni05C4.1;
position = "{205, 830}";
}
);
layerId = "4E968995-FE0C-47C4-A23E-AA7FD2BAF135";
paths = (
{
closed = 1;
nodes = (
"165 0 LINE",
"182 81 OFFCURVE",
"193 128 OFFCURVE",
"198 144 CURVE SMOOTH",
"212 190 OFFCURVE",
"229 206 OFFCURVE",
"273 218 CURVE",
"322 0 LINE",
"453 0 LINE",
"367 372 LINE",
"349 448 OFFCURVE",
"333 500 OFFCURVE",
"318 529 CURVE SMOOTH",
"303 559 OFFCURVE",
"285 579 OFFCURVE",
"262 590 CURVE SMOOTH",
"239 601 OFFCURVE",
"206 606 OFFCURVE",
"162 606 CURVE SMOOTH",
"78 606 LINE",
"78 488 LINE",
"144 488 LINE SMOOTH",
"168 488 OFFCURVE",
"186 483 OFFCURVE",
"196 473 CURVE SMOOTH",
"207 462 OFFCURVE",
"216 445 OFFCURVE",
"225 420 CURVE",
"233 395 OFFCURVE",
"242 360 OFFCURVE",
"251 317 CURVE",
"183 296 OFFCURVE",
"160 289 OFFCURVE",
"133 268 CURVE",
"114 252 OFFCURVE",
"99 232 OFFCURVE",
"86 207 CURVE",
"74 181 OFFCURVE",
"63 142 OFFCURVE",
"51 88 CURVE SMOOTH",
"31 0 LINE"
);
}
);
width = 479;
},
{
anchors = (
{
name = b.uni0591;
position = "{223, 0}";
},
{
name = b.uni0591.2;
position = "{120, 0}";
},
{
name = b.uni059A;
position = "{283, 0}";
},
{
name = b.uni05C5.1;
position = "{220, 0}";
},
{
name = t.uni0592;
position = "{176, 659}";
},
{
name = t.uni0592.2;
position = "{176, 659}";
},
{
name = t.uni0599;
position = "{117, 659}";
},
{
name = t.uni059D;
position = "{244, 659}";
},
{
name = t.uni05B9;
position = "{29, 698}";
},
{
name = t.uni05BC;
position = "{0, 343}";
},
{
name = t.uni05BF;
position = "{313, 698}";
},
{
name = t.uni05C4.1;
position = "{176, 830}";
}
);
layerId = "B990E356-538D-4D06-ADE8-234C9F2D2C22";
paths = (
{
closed = 1;
nodes = (
"123 0 LINE",
"145 118 OFFCURVE",
"150 150 OFFCURVE",
"162 178 CURVE SMOOTH",
"180 219 OFFCURVE",
"203 233 OFFCURVE",
"253 246 CURVE",
"308 0 LINE",
"397 0 LINE",
"312 372 LINE SMOOTH",
"295 445 OFFCURVE",
"282 493 OFFCURVE",
"273 516 CURVE",
"256 556 OFFCURVE",
"238 581 OFFCURVE",
"200 592 CURVE SMOOTH",
"183 597 OFFCURVE",
"159 599 OFFCURVE",
"127 599 CURVE SMOOTH",
"64 599 LINE",
"64 516 LINE",
"130 516 LINE SMOOTH",
"148 516 OFFCURVE",
"163 511 OFFCURVE",
"173 502 CURVE SMOOTH",
"183 493 OFFCURVE",
"192 476 OFFCURVE",
"201 452 CURVE",
"209 428 OFFCURVE",
"222 381 OFFCURVE",
"238 312 CURVE",
"188 298 OFFCURVE",
"149 287 OFFCURVE",
"120 262 CURVE SMOOTH",
"97 243 OFFCURVE",
"81 216 OFFCURVE",
"71 186 CURVE",
"63 164 OFFCURVE",
"56 132 OFFCURVE",
"48 89 CURVE SMOOTH",
"31 0 LINE"
);
}
);
width = 423;
}
);
unicode = 05D2;
script = hebrew;
category = Letter;
subCategory = Spacing;
},
{
glyphname = uni05D3;
lastChange = "2022-02-10 15:22:01 +0000";
layers = (
{
anchors = (
{
name = b.uni0591;
position = "{405, 0}";
},
{
name = b.uni0591.2;
position = "{403, 0}";
},
{
name = b.uni059A;
position = "{371, 0}";
},
{
name = b.uni05C5.1;
position = "{405, 0}";
},
{
name = t.uni0592;
position = "{264, 659}";
},
{
name = t.uni0592.2;
position = "{264, 659}";
},
{
name = t.uni0599;
position = "{68, 659}";
},
{
name = t.uni059D;
position = "{439, 659}";
},
{
name = t.uni05B9;
position = "{0, 698}";
},
{
name = t.uni05BC;
position = "{0, 343}";
},
{
name = t.uni05BF;
position = "{469, 698}";
},
{
name = t.uni05C4.1;
position = "{264, 830}";
}
);
hints = (
{
horizontal = 1;
place = "{516, 83}";
type = Stem;
},
{
place = "{362, 91}";
type = Stem;
}
);
layerId = "B990E356-538D-4D06-ADE8-234C9F2D2C22";
paths = (
{
closed = 1;
nodes = (
"527 516 LINE",
"527 599 LINE",
"20 599 LINE",
"20 516 LINE",
"362 516 LINE",
"362 0 LINE",
"452 0 LINE",
"452 516 LINE"
);
}
);
width = 554;
},
{
anchors = (
{
name = b.uni0591;
position = "{405, 0}";
},
{
name = b.uni0591.2;
position = "{254, 0}";
},
{
name = b.uni059A;
position = "{352, 0}";
},
{
name = b.uni05C5.1;
position = "{405, 0}";
},
{
name = t.uni0592;
position = "{273, 659}";
},
{
name = t.uni0592.2;
position = "{273, 659}";
},
{
name = t.uni0599;
position = "{68, 659}";
},
{
name = t.uni059D;
position = "{439, 659}";
},
{
name = t.uni05B9;
position = "{0, 698}";
},
{
name = t.uni05BC;
position = "{0, 343}";
},
{
name = t.uni05BF;
position = "{479, 698}";
},
{
name = t.uni05C4.1;
position = "{273, 830}";
}
);
hints = (
{
horizontal = 1;
place = "{488, 118}";
type = Stem;
},
{
place = "{348, 132}";
type = Stem;
}
);
layerId = "4E968995-FE0C-47C4-A23E-AA7FD2BAF135";
paths = (
{
closed = 1;
nodes = (
"555 488 LINE",
"555 606 LINE",
"20 606 LINE",
"20 488 LINE",
"348 488 LINE",
"348 0 LINE",
"480 0 LINE",
"480 488 LINE"
);
}
);
width = 582;
}
);
unicode = 05D3;
script = hebrew;
category = Letter;
subCategory = Spacing;
},
{
glyphname = uni05D4;
lastChange = "2022-02-10 15:22:00 +0000";
layers = (
{
anchors = (
{
name = b.uni0591;
position = "{312, 0}";
},
{
name = b.uni0591.2;
position = "{312, 0}";
},
{
name = b.uni059A;
position = "{469, 0}";
},
{
name = b.uni05C5.1;
position = "{322, 0}";
},
{
name = t.uni0592;
position = "{293, 659}";
},
{
name = t.uni0592.2;
position = "{293, 659}";
},
{
name = t.uni0599;
position = "{117, 659}";
},
{
name = t.uni059D;
position = "{488, 659}";
},
{
name = t.uni05B9;
position = "{0, 698}";
},
{
name = t.uni05BC;
position = "{0, 343}";
},
{
name = t.uni05BF;
position = "{488, 698}";
},
{
name = t.uni05C1;
position = "{0, 698}";
},
{
name = t.uni05C4.1;
position = "{293, 830}";
}
);
hints = (
{
horizontal = 1;
place = "{516, 83}";
type = Stem;
},
{
place = "{84, 90}";
type = Stem;
},
{
place = "{464, 91}";
type = Stem;
}
);
layerId = "B990E356-538D-4D06-ADE8-234C9F2D2C22";
paths = (
{
closed = 1;
nodes = (
"554 351 LINE SMOOTH",
"554 528 OFFCURVE",
"483 599 OFFCURVE",
"303 599 CURVE SMOOTH",
"74 599 LINE",
"74 516 LINE",
"302 516 LINE SMOOTH",
"421 516 OFFCURVE",
"464 472 OFFCURVE",
"464 352 CURVE SMOOTH",
"464 0 LINE",
"554 0 LINE"
);
},
{
closed = 1;
nodes = (
"84 389 LINE",
"84 0 LINE",
"174 0 LINE",
"174 389 LINE"
);
}
);
width = 634;
},
{
anchors = (
{
name = b.uni0591;
position = "{342, 0}";
},
{
name = b.uni0591.2;
position = "{342, 0}";
},
{
name = b.uni059A;
position = "{469, 0}";
},
{
name = b.uni05C5.1;
position = "{342, 0}";
},
{
name = t.uni0592;
position = "{322, 659}";
},
{
name = t.uni0592.2;
position = "{322, 659}";
},
{
name = t.uni0599;
position = "{117, 659}";
},
{
name = t.uni059D;
position = "{527, 659}";
},
{
name = t.uni05B9;
position = "{0, 698}";
},
{
name = t.uni05BC;
position = "{0, 343}";
},
{
name = t.uni05BF;
position = "{576, 698}";
},
{
name = t.uni05C1;
position = "{0, 698}";
},
{
name = t.uni05C4.1;
position = "{322, 830}";
}
);
hints = (
{
horizontal = 1;
place = "{488, 118}";
type = Stem;
},
{
place = "{84, 132}";
type = Stem;
},
{
place = "{464, 133}";
type = Stem;
}
);
layerId = "4E968995-FE0C-47C4-A23E-AA7FD2BAF135";
paths = (
{
closed = 1;
nodes = (
"596 351 LINE SMOOTH",
"596 533 OFFCURVE",
"522 606 OFFCURVE",
"330 606 CURVE SMOOTH",
"74 606 LINE",
"74 488 LINE",
"322 488 LINE SMOOTH",
"427 488 OFFCURVE",
"464 452 OFFCURVE",
"464 352 CURVE SMOOTH",
"464 0 LINE",
"596 0 LINE"
);
},
{
closed = 1;
nodes = (
"84 368 LINE",
"84 0 LINE",
"216 0 LINE",
"216 368 LINE"
);
}
);
width = 676;
}
);
unicode = 05D4;
script = hebrew;
category = Letter;
subCategory = Spacing;
},
{
glyphname = uni05D5;
lastChange = "2022-02-10 15:21:58 +0000";
layers = (
{
anchors = (
{
name = b.uni0591;
position = "{132, 0}";
},
{
name = b.uni0591.2;
position = "{132, 0}";
},
{
name = b.uni059A;
position = "{88, 0}";
},
{
name = b.uni05C5.1;
position = "{132, 0}";
},
{
name = t.uni0592;
position = "{132, 659}";
},
{
name = t.uni0592.2;
position = "{132, 659}";
},
{
name = t.uni0599;
position = "{98, 659}";
},
{
name = t.uni059D;
position = "{176, 659}";
},
{
name = t.uni05B9;
position = "{127, 698}";
},
{
name = t.uni05BC;
position = "{0, 343}";
},
{
name = t.uni05BF;
position = "{244, 698}";
},
{
name = t.uni05C4.1;
position = "{132, 830}";
}
);
hints = (
{
horizontal = 1;
place = "{0, 599}";
type = Stem;
},
{
place = "{85, 90}";
type = Stem;
}
);
layerId = "B990E356-538D-4D06-ADE8-234C9F2D2C22";
paths = (
{
closed = 1;
nodes = (
"175 0 LINE",
"175 599 LINE",
"85 599 LINE",
"85 0 LINE"
);
}
);
width = 260;
},
{
anchors = (
{
name = b.uni0591;
position = "{151, 0}";
},
{
name = b.uni0591.2;
position = "{151, 0}";
},
{
name = b.uni059A;
position = "{88, 0}";
},
{
name = b.uni05C5.1;
position = "{151, 0}";
},
{
name = t.uni0592;
position = "{151, 659}";
},
{
name = t.uni0592.2;
position = "{151, 659}";
},
{
name = t.uni0599;
position = "{127, 659}";
},
{
name = t.uni059D;
position = "{176, 659}";
},
{
name = t.uni05B9;
position = "{146, 698}";
},
{
name = t.uni05BC;
position = "{0, 343}";
},
{
name = t.uni05BF;
position = "{273, 698}";
},
{
name = t.uni05C4.1;
position = "{151, 830}";
}
);
hints = (
{
horizontal = 1;
place = "{0, 606}";
type = Stem;
},
{
place = "{85, 132}";
type = Stem;
}
);
layerId = "4E968995-FE0C-47C4-A23E-AA7FD2BAF135";
paths = (
{
closed = 1;
nodes = (
"217 0 LINE",
"217 606 LINE",
"85 606 LINE",
"85 0 LINE"
);
}
);
width = 302;
}
);
unicode = 05D5;
script = hebrew;
category = Letter;
subCategory = Spacing;
},
{
glyphname = uni05D6;
lastChange = "2022-02-10 15:21:56 +0000";
layers = (
{
anchors = (
{
name = b.uni0591;
position = "{176, 0}";
},
{
name = b.uni0591.2;
position = "{176, 0}";
},
{
name = b.uni059A;
position = "{117, 0}";
},
{
name = b.uni05C5.1;
position = "{176, 0}";
},
{
name = t.uni0592;
position = "{205, 659}";
},
{
name = t.uni0592.2;
position = "{205, 659}";
},
{
name = t.uni0599;
position = "{68, 659}";
},
{
name = t.uni059D;
position = "{254, 659}";
},
{
name = t.uni05B9;
position = "{0, 698}";
},
{
name = t.uni05BC;
position = "{0, 343}";
},
{
name = t.uni05BF;
position = "{283, 698}";
},
{
name = t.uni05C4.1;
position = "{205, 830}";
}
);
layerId = "4E968995-FE0C-47C4-A23E-AA7FD2BAF135";
paths = (
{
closed = 1;
nodes = (
"237 0 LINE",
"237 292 LINE SMOOTH",
"237 322 OFFCURVE",
"241 345 OFFCURVE",
"250 361 CURVE SMOOTH",
"259 377 OFFCURVE",
"275 391 OFFCURVE",
"298 402 CURVE",
"351 385 LINE",
"351 512 LINE",
"25 622 LINE",
"25 494 LINE",
"193 438 LINE",
"130 411 OFFCURVE",
"105 363 OFFCURVE",
"105 293 CURVE SMOOTH",
"105 0 LINE"
);
}
);
width = 365;
},
{
anchors = (
{
name = b.uni0591;
position = "{146, 0}";
},
{
name = b.uni0591.2;
position = "{146, 0}";
},
{
name = b.uni059A;
position = "{117, 0}";
},
{
name = b.uni05C5.1;
position = "{146, 0}";
},
{
name = t.uni0592;
position = "{205, 659}";
},
{
name = t.uni0592.2;
position = "{205, 659}";
},
{
name = t.uni0599;
position = "{68, 659}";
},
{
name = t.uni059D;
position = "{225, 659}";
},
{
name = t.uni05B9;
position = "{0, 698}";
},
{
name = t.uni05BC;
position = "{0, 343}";
},
{
name = t.uni05BF;
position = "{264, 698}";
},
{
name = t.uni05C4.1;
position = "{205, 830}";
}
);
layerId = "B990E356-538D-4D06-ADE8-234C9F2D2C22";
paths = (
{
closed = 1;
nodes = (
"195 0 LINE",
"195 331 LINE SMOOTH",
"195 368 OFFCURVE",
"201 391 OFFCURVE",
"216 409 CURVE SMOOTH",
"223 417 OFFCURVE",
"237 427 OFFCURVE",
"256 437 CURVE",
"309 419 LINE",
"309 512 LINE",
"25 608 LINE",
"25 515 LINE",
"192 459 LINE",
"129 438 OFFCURVE",
"105 396 OFFCURVE",
"105 327 CURVE SMOOTH",
"105 0 LINE"
);
}
);
width = 323;
}
);
unicode = 05D6;
script = hebrew;
category = Letter;
subCategory = Spacing;
},
{
glyphname = uni05D7;
lastChange = "2022-02-10 15:09:14 +0000";
layers = (
{
anchors = (
{
name = b.uni0591;
position = "{332, 0}";
},
{
name = b.uni0591.2;
position = "{322, 0}";
},
{
name = b.uni059A;
position = "{498, 0}";
},
{
name = b.uni05C5.1;
position = "{322, 0}";
},
{
name = t.uni0592;
position = "{322, 659}";
},
{
name = t.uni0592.2;
position = "{322, 659}";
},
{
name = t.uni0599;
position = "{117, 659}";
},
{
name = t.uni059D;
position = "{488, 659}";
},
{
name = t.uni05B9;
position = "{29, 698}";
},
{
name = t.uni05BC;
position = "{0, 343}";
},
{
name = t.uni05BF;
position = "{527, 698}";
},
{
name = t.uni05C4.1;
position = "{322, 830}";
}
);
hints = (
{
horizontal = 1;
place = "{516, 83}";
type = Stem;
},
{
place = "{85, 90}";
type = Stem;
},
{
place = "{488, 91}";
type = Stem;
}
);
layerId = "B990E356-538D-4D06-ADE8-234C9F2D2C22";
paths = (
{
closed = 1;
nodes = (
"488 0 LINE",
"578 0 LINE",
"578 351 LINE SMOOTH",
"578 528 OFFCURVE",
"507 599 OFFCURVE",
"327 599 CURVE SMOOTH",
"85 599 LINE",
"85 0 LINE",
"175 0 LINE",
"175 516 LINE",
"326 516 LINE SMOOTH",
"446 516 OFFCURVE",
"488 471 OFFCURVE",
"488 352 CURVE SMOOTH"
);
}
);
width = 658;
},
{
anchors = (
{
name = b.uni0591;
position = "{352, 0}";
},
{
name = b.uni0591.2;
position = "{342, 0}";
},
{
name = b.uni059A;
position = "{498, 0}";
},
{
name = b.uni05C5.1;
position = "{342, 0}";
},
{
name = t.uni0592;
position = "{332, 659}";
},
{
name = t.uni0592.2;
position = "{332, 659}";
},
{
name = t.uni0599;
position = "{117, 659}";
},
{
name = t.uni059D;
position = "{547, 659}";
},
{
name = t.uni05B9;
position = "{29, 698}";
},
{
name = t.uni05BC;
position = "{0, 343}";
},
{
name = t.uni05BF;
position = "{605, 698}";
},
{
name = t.uni05C4.1;
position = "{332, 830}";
}
);
hints = (
{
horizontal = 1;
place = "{488, 118}";
type = Stem;
},
{
place = "{85, 132}";
type = Stem;
},
{
place = "{488, 133}";
type = Stem;
}
);
layerId = "4E968995-FE0C-47C4-A23E-AA7FD2BAF135";
paths = (
{
closed = 1;
nodes = (
"488 0 LINE",
"620 0 LINE",
"620 351 LINE SMOOTH",
"620 531 OFFCURVE",
"540 606 OFFCURVE",
"347 606 CURVE SMOOTH",
"85 606 LINE",
"85 0 LINE",
"217 0 LINE",
"217 488 LINE",
"347 488 LINE SMOOTH",
"451 488 OFFCURVE",
"488 444 OFFCURVE",
"488 335 CURVE SMOOTH"
);
}
);
width = 700;
}
);
unicode = 05D7;
script = hebrew;
category = Letter;
subCategory = Spacing;
},
{
glyphname = uni05D8;
lastChange = "2022-02-10 15:12:15 +0000";
layers = (
{
anchors = (
{
name = b.uni0591;
position = "{342, 0}";
},
{
name = b.uni0591.2;
position = "{342, 0}";
},
{
name = b.uni059A;
position = "{498, 0}";
},
{
name = b.uni05C5.1;
position = "{342, 0}";
},
{
name = t.uni0592;
position = "{332, 659}";
},
{
name = t.uni0592.2;
position = "{332, 659}";
},
{
name = t.uni0599;
position = "{117, 659}";
},
{
name = t.uni059D;
position = "{547, 659}";
},
{
name = t.uni05B9;
position = "{29, 698}";
},
{
name = t.uni05BC;
position = "{0, 343}";
},
{
name = t.uni05BF;
position = "{605, 698}";
},
{
name = t.uni05C4.1;
position = "{332, 830}";
}
);
layerId = "4E968995-FE0C-47C4-A23E-AA7FD2BAF135";
paths = (
{
closed = 1;
nodes = (
"443 -10 OFFCURVE",
"517 18 OFFCURVE",
"564 72 CURVE SMOOTH",
"610 126 OFFCURVE",
"634 212 OFFCURVE",
"634 330 CURVE SMOOTH",
"634 430 OFFCURVE",
"619 503 OFFCURVE",
"588 548 CURVE SMOOTH",
"558 594 OFFCURVE",
"508 616 OFFCURVE",
"438 616 CURVE SMOOTH",
"395 616 OFFCURVE",
"357 607 OFFCURVE",
"327 589 CURVE",
"327 469 LINE",
"358 488 OFFCURVE",
"387 497 OFFCURVE",
"416 497 CURVE SMOOTH",
"475 497 OFFCURVE",
"498 442 OFFCURVE",
"498 329 CURVE SMOOTH",
"498 191 OFFCURVE",
"470 109 OFFCURVE",
"343 109 CURVE SMOOTH",
"251 109 OFFCURVE",
"212 152 OFFCURVE",
"212 249 CURVE SMOOTH",
"212 606 LINE",
"80 606 LINE",
"80 246 LINE SMOOTH",
"80 72 OFFCURVE",
"162 -10 OFFCURVE",
"342 -10 CURVE SMOOTH"
);
}
);
width = 688;
},
{
anchors = (
{
name = b.uni0591;
position = "{332, 0}";
},
{
name = b.uni0591.2;
position = "{332, 0}";
},
{
name = b.uni059A;
position = "{498, 0}";
},
{
name = b.uni05C5.1;
position = "{332, 0}";
},
{
name = t.uni0592;
position = "{322, 659}";
},
{
name = t.uni0592.2;
position = "{322, 659}";
},
{
name = t.uni0599;
position = "{117, 659}";
},
{
name = t.uni059D;
position = "{488, 659}";
},
{
name = t.uni05B9;
position = "{29, 698}";
},
{
name = t.uni05BC;
position = "{0, 343}";
},
{
name = t.uni05BF;
position = "{527, 698}";
},
{
name = t.uni05C4.1;
position = "{322, 830}";
}
);
layerId = "B990E356-538D-4D06-ADE8-234C9F2D2C22";
paths = (
{
closed = 1;
nodes = (
"417 -10 OFFCURVE",
"488 18 OFFCURVE",
"532 72 CURVE SMOOTH",
"577 126 OFFCURVE",
"599 212 OFFCURVE",
"599 329 CURVE SMOOTH",
"599 460 OFFCURVE",
"575 542 OFFCURVE",
"524 580 CURVE SMOOTH",
"499 599 OFFCURVE",
"463 609 OFFCURVE",
"419 609 CURVE SMOOTH",
"375 609 OFFCURVE",
"339 599 OFFCURVE",
"314 579 CURVE",
"314 493 LINE",
"345 514 OFFCURVE",
"377 525 OFFCURVE",
"410 525 CURVE SMOOTH",
"490 525 OFFCURVE",
"505 438 OFFCURVE",
"505 329 CURVE SMOOTH",
"505 169 OFFCURVE",
"465 74 OFFCURVE",
"323 74 CURVE SMOOTH",
"213 74 OFFCURVE",
"170 130 OFFCURVE",
"170 249 CURVE SMOOTH",
"170 599 LINE",
"80 599 LINE",
"80 246 LINE SMOOTH",
"80 72 OFFCURVE",
"156 -10 OFFCURVE",
"322 -10 CURVE SMOOTH"
);
}
);
width = 653;
}
);
unicode = 05D8;
script = hebrew;
category = Letter;
subCategory = Spacing;
},
{
glyphname = uni05D9;
lastChange = "2022-02-10 15:12:15 +0000";
layers = (
{
anchors = (
{
name = b.uni0591;
position = "{132, 0}";
},
{
name = b.uni0591.2;
position = "{128, 0}";
},
{
name = b.uni059A;
position = "{88, 0}";
},
{
name = b.uni05C5.1;
position = "{132, 0}";
},
{
name = t.uni0592;
position = "{132, 659}";
},
{
name = t.uni0592.2;
position = "{132, 659}";
},
{
name = t.uni0599;
position = "{98, 659}";
},
{
name = t.uni059D;
position = "{176, 659}";
},
{
name = t.uni05B9;
position = "{29, 698}";
},
{
name = t.uni05BC;
position = "{0, 343}";
},
{
name = t.uni05BF;
position = "{244, 698}";
},
{
name = t.uni05C1;
position = "{0, 698}";
},
{
name = t.uni05C4.1;
position = "{132, 830}";
}
);
hints = (
{
horizontal = 1;
place = "{284, 315}";
type = Stem;
},
{
place = "{85, 90}";
type = Stem;
}
);
layerId = "B990E356-538D-4D06-ADE8-234C9F2D2C22";
paths = (
{
closed = 1;
nodes = (
"175 284 LINE",
"175 599 LINE",
"85 599 LINE",
"85 284 LINE"
);
}
);
width = 260;
},
{
anchors = (
{
name = b.uni0591;
position = "{146, 0}";
},
{
name = b.uni0591.2;
position = "{148, 0}";
},
{
name = b.uni059A;
position = "{147, 0}";
},
{
name = b.uni05C5.1;
position = "{151, 0}";
},
{
name = t.uni0592;
position = "{151, 659}";
},
{
name = t.uni0592.2;
position = "{151, 659}";
},
{
name = t.uni0599;
position = "{127, 659}";
},
{
name = t.uni059D;
position = "{176, 659}";
},
{
name = t.uni05B9;
position = "{29, 698}";
},
{
name = t.uni05BC;
position = "{0, 0}";
},
{
name = t.uni05BF;
position = "{273, 698}";
},
{
name = t.uni05C1;
position = "{0, 698}";
},
{
name = t.uni05C4.1;
position = "{151, 830}";
}
);
hints = (
{
horizontal = 1;
place = "{284, 322}";
type = Stem;
},
{
place = "{85, 132}";
type = Stem;
}
);
layerId = "4E968995-FE0C-47C4-A23E-AA7FD2BAF135";
paths = (
{
closed = 1;
nodes = (
"217 284 LINE",
"217 606 LINE",
"85 606 LINE",
"85 284 LINE"
);
}
);
width = 302;
}
);
unicode = 05D9;
script = hebrew;
category = Letter;
subCategory = Spacing;
},
{
glyphname = uni05DA;
lastChange = "2022-02-10 15:12:15 +0000";
layers = (
{
anchors = (
{
name = b.uni0591;
position = "{205, 0}";
},
{
name = b.uni0591.2;
position = "{166, 0}";
},
{
name = b.uni059A;
position = "{508, 0}";
},
{
name = b.uni05C5.1;
position = "{205, 0}";
},
{
name = t.uni0592;
position = "{195, 659}";
},
{
name = t.uni0592.2;
position = "{195, 659}";
},
{
name = t.uni0599;
position = "{68, 659}";
},
{
name = t.uni059D;
position = "{391, 659}";
},
{
name = t.uni05B9;
position = "{0, 698}";
},
{
name = t.uni05BC;
position = "{0, 343}";
},
{
name = t.uni05BF;
position = "{430, 698}";
},
{
name = t.uni05C4.1;
position = "{195, 830}";
}
);
hints = (
{
horizontal = 1;
place = "{516, 83}";
type = Stem;
},
{
place = "{364, 91}";
type = Stem;
}
);
layerId = "B990E356-538D-4D06-ADE8-234C9F2D2C22";
paths = (
{
closed = 1;
nodes = (
"454 351 LINE SMOOTH",
"454 528 OFFCURVE",
"383 599 OFFCURVE",
"203 599 CURVE SMOOTH",
"19 599 LINE",
"19 516 LINE",
"202 516 LINE SMOOTH",
"322 516 OFFCURVE",
"364 471 OFFCURVE",
"364 352 CURVE SMOOTH",
"364 -188 LINE",
"454 -188 LINE"
);
}
);
width = 534;
},
{
anchors = (
{
name = b.uni0591;
position = "{186, 0}";
},
{
name = b.uni0591.2;
position = "{146, 0}";
},
{
name = b.uni059A;
position = "{527, 0}";
},
{
name = b.uni05C5.1;
position = "{186, 0}";
},
{
name = t.uni0592;
position = "{225, 659}";
},
{
name = t.uni0592.2;
position = "{225, 659}";
},
{
name = t.uni0599;
position = "{68, 659}";
},
{
name = t.uni059D;
position = "{430, 659}";
},
{
name = t.uni05B9;
position = "{0, 698}";
},
{
name = t.uni05BC;
position = "{0, 343}";
},
{
name = t.uni05BF;
position = "{498, 698}";
},
{
name = t.uni05C4.1;
position = "{225, 830}";
}
);
hints = (
{
horizontal = 1;
place = "{488, 118}";
type = Stem;
},
{
place = "{364, 133}";
type = Stem;
}
);
layerId = "4E968995-FE0C-47C4-A23E-AA7FD2BAF135";
paths = (
{
closed = 1;
nodes = (
"496 351 LINE SMOOTH",
"496 534 OFFCURVE",
"422 606 OFFCURVE",
"230 606 CURVE SMOOTH",
"19 606 LINE",
"19 488 LINE",
"222 488 LINE SMOOTH",
"324 488 OFFCURVE",
"364 453 OFFCURVE",
"364 352 CURVE SMOOTH",
"364 -188 LINE",
"496 -188 LINE"
);
}
);
width = 576;
}
);
unicode = 05DA;
script = hebrew;
category = Letter;
subCategory = Spacing;
},
{
glyphname = uni05DB;
lastChange = "2022-02-10 15:34:17 +0000";
layers = (
{
anchors = (
{
name = b.uni0591;
position = "{225, 0}";
},
{
name = b.uni0591.2;
position = "{225, 0}";
},
{
name = b.uni059A;
position = "{371, 0}";
},
{
name = b.uni05C5.1;
position = "{225, 0}";
},
{
name = t.uni0592;
position = "{215, 659}";
},
{
name = t.uni0599;
position = "{98, 659}";
},
{
name = t.uni059D;
position = "{391, 659}";
},
{
name = t.uni05B9;
position = "{0, 698}";
},
{
name = t.uni05BC;
position = "{0, 343}";
},
{
name = t.uni05BF;
position = "{430, 698}";
},
{
name = t.uni05C4.1;
position = "{195, 830}";
}
);
hints = (
{
horizontal = 1;
place = "{0, 83}";
type = Stem;
},
{
horizontal = 1;
place = "{516, 83}";
type = Stem;
},
{
place = "{379, 92}";
type = Stem;
}
);
layerId = "B990E356-538D-4D06-ADE8-234C9F2D2C22";
paths = (
{
closed = 1;
nodes = (
"470 308 LINE SMOOTH",
"470 502 OFFCURVE",
"378 599 OFFCURVE",
"195 599 CURVE SMOOTH",
"39 599 LINE",
"39 516 LINE",
"197 516 LINE SMOOTH",
"320 516 OFFCURVE",
"379 448 OFFCURVE",
"379 309 CURVE SMOOTH",
"379 290 LINE SMOOTH",
"379 152 OFFCURVE",
"321 83 OFFCURVE",
"197 83 CURVE SMOOTH",
"39 83 LINE",
"39 0 LINE",
"195 0 LINE SMOOTH",
"378 0 OFFCURVE",
"470 97 OFFCURVE",
"470 291 CURVE SMOOTH"
);
}
);
width = 525;
},
{
anchors = (
{
name = b.uni0591;
position = "{225, 0}";
},
{
name = b.uni0591.2;
position = "{225, 0}";
},
{
name = b.uni059A;
position = "{371, 0}";
},
{
name = b.uni05C5.1;
position = "{225, 0}";
},
{
name = t.uni0592;
position = "{245, 659}";
},
{
name = t.uni0599;
position = "{98, 659}";
},
{
name = t.uni059D;
position = "{410, 659}";
},
{
name = t.uni05B9;
position = "{0, 698}";
},
{
name = t.uni05BC;
position = "{0, 343}";
},
{
name = t.uni05BF;
position = "{479, 698}";
},
{
name = t.uni05C4.1;
position = "{225, 830}";
}
);
hints = (
{
horizontal = 1;
place = "{0, 118}";
type = Stem;
},
{
horizontal = 1;
place = "{488, 118}";
type = Stem;
},
{
place = "{365, 133}";
type = Stem;
}
);
layerId = "4E968995-FE0C-47C4-A23E-AA7FD2BAF135";
paths = (
{
closed = 1;
nodes = (
"498 316 LINE SMOOTH",
"498 509 OFFCURVE",
"401 606 OFFCURVE",
"208 606 CURVE SMOOTH",
"39 606 LINE",
"39 488 LINE",
"196 488 LINE SMOOTH",
"310 488 OFFCURVE",
"365 431 OFFCURVE",
"365 309 CURVE SMOOTH",
"365 296 LINE SMOOTH",
"365 176 OFFCURVE",
"311 118 OFFCURVE",
"194 118 CURVE SMOOTH",
"39 118 LINE",
"39 0 LINE",
"201 0 LINE SMOOTH",
"398 0 OFFCURVE",
"498 98 OFFCURVE",
"498 291 CURVE SMOOTH"
);
}
);
width = 553;
}
);
unicode = 05DB;
script = hebrew;
category = Letter;
subCategory = Spacing;
},
{
glyphname = uni05DC;
lastChange = "2022-02-10 15:21:48 +0000";
layers = (
{
anchors = (
{
name = b.uni0591;
position = "{234, 0}";
},
{
name = b.uni0591.2;
position = "{205, 0}";
},
{
name = b.uni059A;
position = "{381, 0}";
},
{
name = b.uni05C5.1;
position = "{234, 0}";
},
{
name = t.uni0592;
position = "{332, 659}";
},
{
name = t.uni0592.2;
position = "{396, 659}";
},
{
name = t.uni0599;
position = "{0, 659}";
},
{
name = t.uni059D;
position = "{439, 659}";
},
{
name = t.uni05B9;
position = "{-63, 698}";
},
{
name = t.uni05BC;
position = "{0, 343}";
},
{
name = t.uni05BF;
position = "{488, 698}";
},
{
name = t.uni05C4.1;
position = "{332, 830}";
}
);
layerId = "4E968995-FE0C-47C4-A23E-AA7FD2BAF135";
paths = (
{
closed = 1;
nodes = (
"229 11 OFFCURVE",
"334 70 OFFCURVE",
"410 147 CURVE SMOOTH",
"486 224 OFFCURVE",
"524 313 OFFCURVE",
"524 414 CURVE SMOOTH",
"524 542 OFFCURVE",
"451 606 OFFCURVE",
"304 606 CURVE SMOOTH",
"169 606 LINE",
"169 813 LINE",
"34 813 LINE",
"34 488 LINE",
"282 488 LINE SMOOTH",
"355 488 OFFCURVE",
"391 459 OFFCURVE",
"391 401 CURVE SMOOTH",
"391 340 OFFCURVE",
"365 285 OFFCURVE",
"313 234 CURVE SMOOTH",
"261 184 OFFCURVE",
"188 144 OFFCURVE",
"94 113 CURVE",
"94 -29 LINE"
);
}
);
width = 572;
},
{
anchors = (
{
name = b.uni0591;
position = "{205, 0}";
},
{
name = b.uni0591.2;
position = "{205, 0}";
},
{
name = b.uni059A;
position = "{342, 0}";
},
{
name = b.uni05C5.1;
position = "{205, 0}";
},
{
name = t.uni0592;
position = "{293, 659}";
},
{
name = t.uni0592.2;
position = "{332, 659}";
},
{
name = t.uni0599;
position = "{0, 659}";
},
{
name = t.uni059D;
position = "{430, 659}";
},
{
name = t.uni05B9;
position = "{-63, 698}";
},
{
name = t.uni05BC;
position = "{0, 343}";
},
{
name = t.uni05BF;
position = "{430, 698}";
},
{
name = t.uni05C4.1;
position = "{293, 830}";
}
);
layerId = "B990E356-538D-4D06-ADE8-234C9F2D2C22";
paths = (
{
closed = 1;
nodes = (
"213 21 OFFCURVE",
"307 82 OFFCURVE",
"377 162 CURVE SMOOTH",
"447 242 OFFCURVE",
"482 330 OFFCURVE",
"482 425 CURVE SMOOTH",
"482 541 OFFCURVE",
"417 599 OFFCURVE",
"286 599 CURVE SMOOTH",
"124 599 LINE",
"124 813 LINE",
"34 813 LINE",
"34 516 LINE",
"277 516 LINE SMOOTH",
"353 516 OFFCURVE",
"391 480 OFFCURVE",
"391 409 CURVE SMOOTH",
"391 323 OFFCURVE",
"344 237 OFFCURVE",
"254 167 CURVE SMOOTH",
"210 131 OFFCURVE",
"156 102 OFFCURVE",
"94 79 CURVE",
"94 -22 LINE"
);
}
);
width = 530;
}
);
unicode = 05DC;
script = hebrew;
category = Letter;
subCategory = Spacing;
},
{
glyphname = uni05DD;
lastChange = "2022-02-10 15:09:14 +0000";
layers = (
{
anchors = (
{
name = b.uni0591;
position = "{332, 0}";
},
{
name = b.uni0591.2;
position = "{332, 0}";
},
{
name = b.uni059A;
position = "{527, 0}";
},
{
name = b.uni05C5.1;
position = "{332, 0}";
},
{
name = t.uni0592;
position = "{322, 659}";
},
{
name = t.uni0592.2;
position = "{322, 659}";
},
{
name = t.uni0599;
position = "{117, 659}";
},
{
name = t.uni059D;
position = "{488, 659}";
},
{
name = t.uni05B9;
position = "{29, 698}";
},
{
name = t.uni05BC;
position = "{0, 343}";
},
{
name = t.uni05BF;
position = "{586, 698}";
},
{
name = t.uni05C4.1;
position = "{322, 830}";
}
);
hints = (
{
horizontal = 1;
place = "{0, 83}";
type = Stem;
},
{
horizontal = 1;
place = "{516, 83}";
type = Stem;
},
{
place = "{85, 90}";
type = Stem;
},
{
place = "{508, 91}";
type = Stem;
}
);
layerId = "B990E356-538D-4D06-ADE8-234C9F2D2C22";
paths = (
{
closed = 1;
nodes = (
"598 351 LINE SMOOTH",
"598 528 OFFCURVE",
"527 599 OFFCURVE",
"347 599 CURVE SMOOTH",
"85 599 LINE",
"85 0 LINE",
"598 0 LINE"
);
},
{
closed = 1;
nodes = (
"346 516 LINE SMOOTH",
"466 516 OFFCURVE",
"508 471 OFFCURVE",
"508 352 CURVE SMOOTH",
"508 83 LINE",
"175 83 LINE",
"175 516 LINE"
);
}
);
width = 678;
},
{
anchors = (
{
name = b.uni0591;
position = "{356, 0}";
},
{
name = b.uni0591.2;
position = "{356, 0}";
},
{
name = b.uni059A;
position = "{527, 0}";
},
{
name = b.uni05C5.1;
position = "{356, 0}";
},
{
name = t.uni0592;
position = "{332, 659}";
},
{
name = t.uni0592.2;
position = "{332, 659}";
},
{
name = t.uni0599;
position = "{117, 659}";
},
{
name = t.uni059D;
position = "{566, 659}";
},
{
name = t.uni05B9;
position = "{29, 698}";
},
{
name = t.uni05BC;
position = "{0, 343}";
},
{
name = t.uni05BF;
position = "{625, 698}";
},
{
name = t.uni05C4.1;
position = "{332, 830}";
}
);
hints = (
{
horizontal = 1;
place = "{0, 118}";
type = Stem;
},
{
horizontal = 1;
place = "{488, 118}";
type = Stem;
},
{
place = "{85, 132}";
type = Stem;
},
{
place = "{508, 133}";
type = Stem;
}
);
layerId = "4E968995-FE0C-47C4-A23E-AA7FD2BAF135";
paths = (
{
closed = 1;
nodes = (
"640 351 LINE SMOOTH",
"640 533 OFFCURVE",
"560 606 OFFCURVE",
"367 606 CURVE SMOOTH",
"85 606 LINE",
"85 0 LINE",
"640 0 LINE"
);
},
{
closed = 1;
nodes = (
"367 488 LINE SMOOTH",
"471 488 OFFCURVE",
"508 447 OFFCURVE",
"508 336 CURVE SMOOTH",
"508 118 LINE",
"217 118 LINE",
"217 488 LINE"
);
}
);
width = 720;
}
);
unicode = 05DD;
script = hebrew;
category = Letter;
subCategory = Spacing;
},
{
glyphname = uni05DE;
lastChange = "2022-02-11 08:34:48 +0000";
layers = (
{
anchors = (
{
name = b.uni0591;
position = "{342, 0}";
},
{
name = b.uni0591.2;
position = "{332, 0}";
},
{
name = b.uni059A;
position = "{527, 0}";
},
{
name = b.uni05C5.1;
position = "{332, 0}";
},
{
name = t.uni0592;
position = "{381, 659}";
},
{
name = t.uni0592.2;
position = "{381, 659}";
},
{
name = t.uni0599;
position = "{68, 659}";
},
{
name = t.uni059D;
position = "{488, 659}";
},
{
name = t.uni05B9;
position = "{0, 698}";
},
{
name = t.uni05BC;
position = "{0, 343}";
},
{
name = t.uni05BF;
position = "{586, 698}";
},
{
name = t.uni05C1;
position = "{0, 698}";
},
{
name = t.uni05C4.1;
position = "{381, 830}";
}
);
hints = (
{
horizontal = 1;
place = "{0, 83}";
type = Stem;
},
{
horizontal = 1;
place = "{525, 84}";
type = Stem;
},
{
place = "{516, 91}";
type = Stem;
}
);
layerId = "B990E356-538D-4D06-ADE8-234C9F2D2C22";
paths = (
{
closed = 1;
nodes = (
"298 609 OFFCURVE",
"245 577 OFFCURVE",
"194 500 CURVE",
"133 599 LINE",
"27 599 LINE",
"149 411 LINE",
"134 373 OFFCURVE",
"118 323 OFFCURVE",
"103 262 CURVE",
"36 0 LINE",
"133 0 LINE",
"194 255 LINE SMOOTH",
"218 355 OFFCURVE",
"244 425 OFFCURVE",
"272 465 CURVE SMOOTH",
"301 505 OFFCURVE",
"337 525 OFFCURVE",
"381 525 CURVE SMOOTH",
"479 525 OFFCURVE",
"516 457 OFFCURVE",
"516 297 CURVE SMOOTH",
"516 83 LINE",
"313 83 LINE",
"313 0 LINE",
"607 0 LINE",
"607 308 LINE SMOOTH",
"607 517 OFFCURVE",
"538 609 OFFCURVE",
"380 609 CURVE SMOOTH"
);
}
);
width = 687;
},
{
anchors = (
{
name = b.uni0591;
position = "{342, 0}";
},
{
name = b.uni0591.2;
position = "{342, 0}";
},
{
name = b.uni059A;
position = "{527, 0}";
},
{
name = b.uni05C5.1;
position = "{342, 0}";
},
{
name = t.uni0592;
position = "{400, 659}";
},
{
name = t.uni0592.2;
position = "{400, 659}";
},
{
name = t.uni0599;
position = "{68, 659}";
},
{
name = t.uni059D;
position = "{566, 659}";
},
{
name = t.uni05B9;
position = "{0, 698}";
},
{
name = t.uni05BC;
position = "{0, 343}";
},
{
name = t.uni05BF;
position = "{615, 698}";
},
{
name = t.uni05C1;
position = "{0, 698}";
},
{
name = t.uni05C4.1;
position = "{400, 830}";
}
);
hints = (
{
horizontal = 1;
place = "{0, 118}";
type = Stem;
},
{
horizontal = 1;
place = "{490, 119}";
type = Stem;
},
{
place = "{513, 133}";
type = Stem;
}
);
layerId = "4E968995-FE0C-47C4-A23E-AA7FD2BAF135";
paths = (
{
closed = 1;
nodes = (
"327 609 OFFCURVE",
"255 573 OFFCURVE",
"216 513 CURVE",
"170 599 LINE",
"24 599 LINE",
"145 397 LINE",
"131 362 OFFCURVE",
"115 314 OFFCURVE",
"99 253 CURVE SMOOTH",
"33 0 LINE",
"174 0 LINE",
"233 238 LINE SMOOTH",
"255 330 OFFCURVE",
"280 395 OFFCURVE",
"306 433 CURVE SMOOTH",
"332 471 OFFCURVE",
"363 490 OFFCURVE",
"402 490 CURVE SMOOTH",
"484 490 OFFCURVE",
"513 435 OFFCURVE",
"513 298 CURVE SMOOTH",
"513 118 LINE",
"331 118 LINE",
"331 0 LINE",
"646 0 LINE",
"646 308 LINE SMOOTH",
"646 515 OFFCURVE",
"574 609 OFFCURVE",
"408 609 CURVE SMOOTH"
);
}
);
width = 726;
}
);
unicode = 05DE;
script = hebrew;
category = Letter;
subCategory = Spacing;
},
{
glyphname = uni05DF;
lastChange = "2022-02-10 15:09:14 +0000";
layers = (
{
anchors = (
{
name = b.uni0591;
position = "{-127, 0}";
},
{
name = b.uni0591.2;
position = "{215, 0}";
},
{
name = b.uni059A;
position = "{225, 0}";
},
{
name = b.uni05C5.1;
position = "{132, 0}";
},
{
name = t.uni0592;
position = "{132, 659}";
},
{
name = t.uni0592.2;
position = "{132, 659}";
},
{
name = t.uni0599;
position = "{98, 659}";
},
{
name = t.uni059D;
position = "{176, 659}";
},
{
name = t.uni05B9;
position = "{29, 698}";
},
{
name = t.uni05BC;
position = "{0, 343}";
},
{
name = t.uni05BF;
position = "{244, 698}";
},
{
name = t.uni05C4.1;
position = "{132, 830}";
}
);
hints = (
{
horizontal = 1;
place = "{-188, 787}";
type = Stem;
},
{
place = "{85, 90}";
type = Stem;
}
);
layerId = "B990E356-538D-4D06-ADE8-234C9F2D2C22";
paths = (
{
closed = 1;
nodes = (
"175 -188 LINE",
"175 599 LINE",
"85 599 LINE",
"85 -188 LINE"
);
}
);
width = 260;
},
{
anchors = (
{
name = b.uni0591;
position = "{-117, 0}";
},
{
name = b.uni0591.2;
position = "{254, 0}";
},
{
name = b.uni059A;
position = "{244, 0}";
},
{
name = b.uni05C5.1;
position = "{151, 0}";
},
{
name = t.uni0592;
position = "{151, 659}";
},
{
name = t.uni0592.2;
position = "{151, 659}";
},
{
name = t.uni0599;
position = "{127, 659}";
},
{
name = t.uni059D;
position = "{176, 659}";
},
{
name = t.uni05B9;
position = "{29, 698}";
},
{
name = t.uni05BC;
position = "{0, 343}";
},
{
name = t.uni05BF;
position = "{273, 698}";
},
{
name = t.uni05C4.1;
position = "{151, 830}";
}
);
hints = (
{
horizontal = 1;
place = "{-188, 794}";
type = Stem;
},
{
place = "{85, 132}";
type = Stem;
}
);
layerId = "4E968995-FE0C-47C4-A23E-AA7FD2BAF135";
paths = (
{
closed = 1;
nodes = (
"217 -188 LINE",
"217 606 LINE",
"85 606 LINE",
"85 -188 LINE"
);
}
);
width = 302;
}
);
unicode = 05DF;
script = hebrew;
category = Letter;
subCategory = Spacing;
},
{
glyphname = uni05E0;
lastChange = "2022-02-10 15:21:43 +0000";
layers = (
{
anchors = (
{
name = b.uni0591;
position = "{176, 0}";
},
{
name = b.uni0591.2;
position = "{176, 0}";
},
{
name = b.uni059A;
position = "{225, 0}";
},
{
name = b.uni05C5.1;
position = "{176, 0}";
},
{
name = t.uni0592;
position = "{156, 659}";
},
{
name = t.uni0592.2;
position = "{156, 659}";
},
{
name = t.uni0599;
position = "{117, 659}";
},
{
name = t.uni059D;
position = "{244, 659}";
},
{
name = t.uni05B9;
position = "{29, 698}";
},
{
name = t.uni05BC;
position = "{0, 343}";
},
{
name = t.uni05BF;
position = "{317, 698}";
},
{
name = t.uni05C4.1;
position = "{156, 830}";
}
);
hints = (
{
horizontal = 1;
place = "{0, 83}";
type = Stem;
},
{
horizontal = 1;
place = "{516, 83}";
type = Stem;
},
{
place = "{219, 90}";
type = Stem;
}
);
layerId = "B990E356-538D-4D06-ADE8-234C9F2D2C22";
paths = (
{
closed = 1;
nodes = (
"309 367 LINE SMOOTH",
"309 486 OFFCURVE",
"288 548 OFFCURVE",
"240 578 CURVE",
"216 592 OFFCURVE",
"178 599 OFFCURVE",
"126 599 CURVE SMOOTH",
"63 599 LINE",
"63 516 LINE",
"129 516 LINE SMOOTH",
"177 516 OFFCURVE",
"201 499 OFFCURVE",
"211 454 CURVE",
"217 431 OFFCURVE",
"219 394 OFFCURVE",
"219 342 CURVE SMOOTH",
"219 83 LINE",
"35 83 LINE",
"35 0 LINE",
"309 0 LINE"
);
}
);
width = 389;
},
{
anchors = (
{
name = b.uni0591;
position = "{186, 0}";
},
{
name = b.uni0591.2;
position = "{186, 0}";
},
{
name = b.uni059A;
position = "{225, 0}";
},
{
name = b.uni05C5.1;
position = "{186, 0}";
},
{
name = t.uni0592;
position = "{186, 659}";
},
{
name = t.uni0592.2;
position = "{186, 659}";
},
{
name = t.uni0599;
position = "{117, 659}";
},
{
name = t.uni059D;
position = "{273, 659}";
},
{
name = t.uni05B9;
position = "{29, 698}";
},
{
name = t.uni05BC;
position = "{0, 343}";
},
{
name = t.uni05BF;
position = "{332, 698}";
},
{
name = t.uni05C4.1;
position = "{186, 830}";
}
);
hints = (
{
horizontal = 1;
place = "{0, 118}";
type = Stem;
},
{
horizontal = 1;
place = "{488, 118}";
type = Stem;
},
{
place = "{219, 132}";
type = Stem;
}
);
layerId = "4E968995-FE0C-47C4-A23E-AA7FD2BAF135";
paths = (
{
closed = 1;
nodes = (
"351 367 LINE SMOOTH",
"351 489 OFFCURVE",
"327 554 OFFCURVE",
"271 583 CURVE",
"244 599 OFFCURVE",
"202 606 OFFCURVE",
"146 606 CURVE SMOOTH",
"63 606 LINE",
"63 488 LINE",
"121 488 LINE SMOOTH",
"174 488 OFFCURVE",
"199 473 OFFCURVE",
"210 436 CURVE SMOOTH",
"216 417 OFFCURVE",
"219 386 OFFCURVE",
"219 342 CURVE SMOOTH",
"219 118 LINE",
"35 118 LINE",
"35 0 LINE",
"351 0 LINE"
);
}
);
width = 431;
}
);
unicode = 05E0;
script = hebrew;
category = Letter;
subCategory = Spacing;
},
{
glyphname = uni05E1;
lastChange = "2022-02-10 15:12:46 +0000";
layers = (
{
anchors = (
{
name = b.uni0591;
position = "{332, 0}";
},
{
name = b.uni0591.2;
position = "{332, 0}";
},
{
name = b.uni059A;
position = "{488, 0}";
},
{
name = b.uni05C5.1;
position = "{332, 0}";
},
{
name = t.uni0592;
position = "{313, 659}";
},
{
name = t.uni0592.2;
position = "{313, 659}";
},
{
name = t.uni0599;
position = "{98, 659}";
},
{
name = t.uni059D;
position = "{488, 659}";
},
{
name = t.uni05B9;
position = "{0, 698}";
},
{
name = t.uni05BC;
position = "{0, 343}";
},
{
name = t.uni05BF;
position = "{586, 698}";
},
{
name = t.uni05C4.1;
position = "{313, 830}";
}
);
hints = (
{
horizontal = 1;
place = "{-10, 83}";
type = Stem;
},
{
horizontal = 1;
place = "{516, 83}";
type = Stem;
},
{
place = "{65, 95}";
type = Stem;
},
{
place = "{505, 96}";
type = Stem;
}
);
layerId = "B990E356-538D-4D06-ADE8-234C9F2D2C22";
paths = (
{
closed = 1;
nodes = (
"65 297 LINE SMOOTH",
"65 89 OFFCURVE",
"148 -10 OFFCURVE",
"326 -10 CURVE SMOOTH",
"506 -10 OFFCURVE",
"601 100 OFFCURVE",
"601 308 CURVE SMOOTH",
"601 351 LINE SMOOTH",
"601 529 OFFCURVE",
"529 599 OFFCURVE",
"349 599 CURVE SMOOTH",
"25 599 LINE",
"25 516 LINE",
"113 516 LINE",
"87 483 OFFCURVE",
"65 393 OFFCURVE",
"65 314 CURVE SMOOTH"
);
},
{
closed = 1;
nodes = (
"348 516 LINE SMOOTH",
"465 516 OFFCURVE",
"505 473 OFFCURVE",
"505 352 CURVE SMOOTH",
"505 309 LINE SMOOTH",
"505 142 OFFCURVE",
"453 73 OFFCURVE",
"328 73 CURVE SMOOTH",
"219 73 OFFCURVE",
"160 149 OFFCURVE",
"160 292 CURVE SMOOTH",
"160 318 LINE SMOOTH",
"160 411 OFFCURVE",
"171 478 OFFCURVE",
"193 516 CURVE"
);
}
);
width = 656;
},
{
anchors = (
{
name = b.uni0591;
position = "{352, 0}";
},
{
name = b.uni0591.2;
position = "{352, 0}";
},
{
name = b.uni059A;
position = "{488, 0}";
},
{
name = b.uni05C5.1;
position = "{352, 0}";
},
{
name = t.uni0592;
position = "{332, 659}";
},
{
name = t.uni0592.2;
position = "{332, 659}";
},
{
name = t.uni0599;
position = "{98, 659}";
},
{
name = t.uni059D;
position = "{547, 659}";
},
{
name = t.uni05B9;
position = "{0, 698}";
},
{
name = t.uni05BC;
position = "{0, 343}";
},
{
name = t.uni05BF;
position = "{615, 698}";
},
{
name = t.uni05C4.1;
position = "{332, 830}";
}
);
hints = (
{
horizontal = 1;
place = "{-10, 118}";
type = Stem;
},
{
horizontal = 1;
place = "{488, 118}";
type = Stem;
},
{
place = "{65, 137}";
type = Stem;
},
{
place = "{505, 138}";
type = Stem;
}
);
layerId = "4E968995-FE0C-47C4-A23E-AA7FD2BAF135";
paths = (
{
closed = 1;
nodes = (
"65 291 LINE SMOOTH",
"65 90 OFFCURVE",
"155 -10 OFFCURVE",
"346 -10 CURVE SMOOTH",
"542 -10 OFFCURVE",
"643 98 OFFCURVE",
"643 305 CURVE SMOOTH",
"643 344 LINE SMOOTH",
"643 528 OFFCURVE",
"560 606 OFFCURVE",
"364 606 CURVE SMOOTH",
"25 606 LINE",
"25 488 LINE",
"117 488 LINE",
"86 450 OFFCURVE",
"65 371 OFFCURVE",
"65 306 CURVE SMOOTH"
);
},
{
closed = 1;
nodes = (
"354 488 LINE SMOOTH",
"461 488 OFFCURVE",
"505 447 OFFCURVE",
"505 345 CURVE SMOOTH",
"505 309 LINE SMOOTH",
"505 167 OFFCURVE",
"458 108 OFFCURVE",
"349 108 CURVE SMOOTH",
"251 108 OFFCURVE",
"202 169 OFFCURVE",
"202 292 CURVE SMOOTH",
"202 314 LINE SMOOTH",
"202 396 OFFCURVE",
"212 453 OFFCURVE",
"232 488 CURVE"
);
}
);
width = 698;
}
);
unicode = 05E1;
script = hebrew;
category = Letter;
subCategory = Spacing;
},
{
glyphname = uni05E2;
lastChange = "2022-02-10 15:14:42 +0000";
layers = (
{
anchors = (
{
name = b.uni0591;
position = "{322, 0}";
},
{
name = b.uni0591.2;
position = "{322, 0}";
},
{
name = b.uni059A;
position = "{420, 0}";
},
{
name = b.uni05C5.1;
position = "{322, 0}";
},
{
name = t.uni0592;
position = "{293, 659}";
},
{
name = t.uni0592.2;
position = "{293, 659}";
},
{
name = t.uni0599;
position = "{98, 659}";
},
{
name = t.uni059D;
position = "{488, 659}";
},
{
name = t.uni05B9;
position = "{29, 698}";
},
{
name = t.uni05BC;
position = "{324, 394}";
},
{
name = t.uni05BF;
position = "{527, 698}";
},
{
name = t.uni05C4.1;
position = "{293, 830}";
}
);
hints = (
{
horizontal = 1;
place = "{-16, 615}";
type = Stem;
},
{
place = "{438, 94}";
type = Stem;
}
);
layerId = "B990E356-538D-4D06-ADE8-234C9F2D2C22";
paths = (
{
closed = 1;
nodes = (
"20 -16 LINE",
"285 -2 OFFCURVE",
"420 76 OFFCURVE",
"484 246 CURVE SMOOTH",
"516 331 OFFCURVE",
"532 448 OFFCURVE",
"532 599 CURVE",
"438 599 LINE",
"438 328 OFFCURVE",
"401 207 OFFCURVE",
"310 142 CURVE",
"150 599 LINE",
"51 599 LINE",
"232 104 LINE",
"181 87 OFFCURVE",
"110 79 OFFCURVE",
"20 79 CURVE"
);
}
);
width = 582;
},
{
anchors = (
{
name = b.uni0591;
position = "{332, 0}";
},
{
name = b.uni0591.2;
position = "{332, 0}";
},
{
name = b.uni059A;
position = "{420, 0}";
},
{
name = b.uni05C5.1;
position = "{332, 0}";
},
{
name = t.uni0592;
position = "{322, 659}";
},
{
name = t.uni0592.2;
position = "{322, 659}";
},
{
name = t.uni0599;
position = "{98, 659}";
},
{
name = t.uni059D;
position = "{508, 659}";
},
{
name = t.uni05B9;
position = "{29, 698}";
},
{
name = t.uni05BC;
position = "{324, 394}";
},
{
name = t.uni05BF;
position = "{557, 698}";
},
{
name = t.uni05C4.1;
position = "{322, 830}";
}
);
hints = (
{
horizontal = 1;
place = "{-23, 629}";
type = Stem;
},
{
place = "{432, 136}";
type = Stem;
}
);
layerId = "4E968995-FE0C-47C4-A23E-AA7FD2BAF135";
paths = (
{
closed = 1;
nodes = (
"20 -23 LINE",
"302 -11 OFFCURVE",
"447 66 OFFCURVE",
"516 242 CURVE SMOOTH",
"551 329 OFFCURVE",
"568 451 OFFCURVE",
"568 606 CURVE",
"432 606 LINE",
"432 368 OFFCURVE",
"404 250 OFFCURVE",
"330 191 CURVE",
"186 606 LINE",
"43 606 LINE",
"216 132 LINE",
"169 117 OFFCURVE",
"104 108 OFFCURVE",
"20 107 CURVE"
);
}
);
width = 618;
}
);
unicode = 05E2;
script = hebrew;
category = Letter;
subCategory = Spacing;
},
{
glyphname = uni05E3;
lastChange = "2022-02-10 15:21:38 +0000";
layers = (
{
anchors = (
{
name = b.uni0591;
position = "{244, 0}";
},
{
name = b.uni0591.2;
position = "{210, 0}";
},
{
name = b.uni059A;
position = "{586, 0}";
},
{
name = b.uni05C5.1;
position = "{244, 0}";
},
{
name = t.uni0592;
position = "{293, 659}";
},
{
name = t.uni0592.2;
position = "{293, 659}";
},
{
name = t.uni0599;
position = "{117, 659}";
},
{
name = t.uni059D;
position = "{488, 659}";
},
{
name = t.uni05B9;
position = "{29, 698}";
},
{
name = t.uni05BC;
position = "{0, 343}";
},
{
name = t.uni05BF;
position = "{537, 698}";
},
{
name = t.uni05C4.1;
position = "{293, 830}";
}
);
hints = (
{
horizontal = 1;
place = "{264, 83}";
type = Stem;
},
{
horizontal = 1;
place = "{516, 83}";
type = Stem;
},
{
place = "{65, 91}";
type = Stem;
},
{
place = "{453, 90}";
type = Stem;
}
);
layerId = "B990E356-538D-4D06-ADE8-234C9F2D2C22";
paths = (
{
closed = 1;
nodes = (
"65 599 LINE",
"65 264 LINE",
"275 264 LINE",
"275 347 LINE",
"156 347 LINE",
"156 516 LINE",
"291 516 LINE SMOOTH",
"410 516 OFFCURVE",
"453 472 OFFCURVE",
"453 352 CURVE SMOOTH",
"453 -188 LINE",
"543 -188 LINE",
"543 351 LINE SMOOTH",
"543 529 OFFCURVE",
"472 599 OFFCURVE",
"292 599 CURVE SMOOTH"
);
}
);
width = 623;
},
{
anchors = (
{
name = b.uni0591;
position = "{244, 0}";
},
{
name = b.uni0591.2;
position = "{195, 0}";
},
{
name = b.uni059A;
position = "{625, 0}";
},
{
name = b.uni05C5.1;
position = "{244, 0}";
},
{
name = t.uni0592;
position = "{313, 659}";
},
{
name = t.uni0592.2;
position = "{313, 659}";
},
{
name = t.uni0599;
position = "{117, 659}";
},
{
name = t.uni059D;
position = "{518, 659}";
},
{
name = t.uni05B9;
position = "{29, 698}";
},
{
name = t.uni05BC;
position = "{0, 343}";
},
{
name = t.uni05BF;
position = "{566, 698}";
},
{
name = t.uni05C4.1;
position = "{313, 830}";
}
);
hints = (
{
horizontal = 1;
place = "{219, 118}";
type = Stem;
},
{
horizontal = 1;
place = "{488, 118}";
type = Stem;
},
{
place = "{65, 132}";
type = Stem;
},
{
place = "{463, 133}";
type = Stem;
}
);
layerId = "4E968995-FE0C-47C4-A23E-AA7FD2BAF135";
paths = (
{
closed = 1;
nodes = (
"65 606 LINE",
"65 219 LINE",
"316 219 LINE",
"316 337 LINE",
"197 337 LINE",
"197 488 LINE",
"318 488 LINE SMOOTH",
"425 488 OFFCURVE",
"463 444 OFFCURVE",
"463 330 CURVE SMOOTH",
"463 -188 LINE",
"595 -188 LINE",
"595 356 LINE SMOOTH",
"595 536 OFFCURVE",
"516 606 OFFCURVE",
"317 606 CURVE SMOOTH"
);
}
);
width = 675;
}
);
unicode = 05E3;
script = hebrew;
category = Letter;
subCategory = Spacing;
},
{
glyphname = uni05E4;
lastChange = "2022-02-10 15:21:35 +0000";
layers = (
{
anchors = (
{
name = b.uni0591;
position = "{293, 0}";
},
{
name = b.uni0591.2;
position = "{293, 0}";
},
{
name = b.uni059A;
position = "{439, 0}";
},
{
name = b.uni05C5.1;
position = "{293, 0}";
},
{
name = t.uni0592;
position = "{293, 659}";
},
{
name = t.uni0592.2;
position = "{293, 659}";
},
{
name = t.uni0599;
position = "{117, 659}";
},
{
name = t.uni059D;
position = "{488, 659}";
},
{
name = t.uni05B9;
position = "{29, 698}";
},
{
name = t.uni05BC;
position = "{0, 343}";
},
{
name = t.uni05BF;
position = "{537, 698}";
},
{
name = t.uni05C1;
position = "{0, 698}";
},
{
name = t.uni05C4.1;
position = "{293, 830}";
}
);
hints = (
{
horizontal = 1;
place = "{0, 83}";
type = Stem;
},
{
horizontal = 1;
place = "{264, 83}";
type = Stem;
},
{
horizontal = 1;
place = "{516, 83}";
type = Stem;
},
{
place = "{70, 92}";
type = Stem;
},
{
place = "{464, 92}";
type = Stem;
}
);
layerId = "B990E356-538D-4D06-ADE8-234C9F2D2C22";
paths = (
{
closed = 1;
nodes = (
"464 290 LINE SMOOTH",
"464 151 OFFCURVE",
"406 83 OFFCURVE",
"282 83 CURVE SMOOTH",
"75 83 LINE",
"75 0 LINE",
"280 0 LINE SMOOTH",
"463 0 OFFCURVE",
"555 97 OFFCURVE",
"555 291 CURVE SMOOTH",
"555 331 LINE SMOOTH",
"555 515 OFFCURVE",
"471 599 OFFCURVE",
"297 599 CURVE SMOOTH",
"70 599 LINE",
"70 264 LINE",
"280 264 LINE",
"280 347 LINE",
"161 347 LINE",
"161 516 LINE",
"296 516 LINE SMOOTH",
"412 516 OFFCURVE",
"464 456 OFFCURVE",
"464 333 CURVE SMOOTH"
);
}
);
width = 610;
},
{
anchors = (
{
name = b.uni0591;
position = "{293, 0}";
},
{
name = b.uni0591.2;
position = "{293, 0}";
},
{
name = b.uni059A;
position = "{469, 0}";
},
{
name = b.uni05C5.1;
position = "{293, 0}";
},
{
name = t.uni0592;
position = "{313, 659}";
},
{
name = t.uni0592.2;
position = "{313, 659}";
},
{
name = t.uni0599;
position = "{117, 659}";
},
{
name = t.uni059D;
position = "{518, 659}";
},
{
name = t.uni05B9;
position = "{29, 698}";
},
{
name = t.uni05BC;
position = "{0, 343}";
},
{
name = t.uni05BF;
position = "{566, 698}";
},
{
name = t.uni05C1;
position = "{0, 698}";
},
{
name = t.uni05C4.1;
position = "{313, 830}";
}
);
hints = (
{
horizontal = 1;
place = "{0, 118}";
type = Stem;
},
{
horizontal = 1;
place = "{239, 118}";
type = Stem;
},
{
horizontal = 1;
place = "{488, 118}";
type = Stem;
},
{
place = "{70, 134}";
type = Stem;
},
{
place = "{464, 134}";
type = Stem;
}
);
layerId = "4E968995-FE0C-47C4-A23E-AA7FD2BAF135";
paths = (
{
closed = 1;
nodes = (
"464 292 LINE SMOOTH",
"464 176 OFFCURVE",
"408 118 OFFCURVE",
"295 118 CURVE SMOOTH",
"75 118 LINE",
"75 0 LINE",
"298 0 LINE SMOOTH",
"498 0 OFFCURVE",
"597 97 OFFCURVE",
"597 291 CURVE SMOOTH",
"597 331 LINE SMOOTH",
"597 519 OFFCURVE",
"508 606 OFFCURVE",
"317 606 CURVE SMOOTH",
"70 606 LINE",
"70 239 LINE",
"322 239 LINE",
"322 357 LINE",
"203 357 LINE",
"203 488 LINE",
"316 488 LINE SMOOTH",
"418 488 OFFCURVE",
"464 437 OFFCURVE",
"464 333 CURVE SMOOTH"
);
}
);
width = 652;
}
);
unicode = 05E4;
script = hebrew;
category = Letter;
subCategory = Spacing;
},
{
glyphname = uni05E5;
lastChange = "2022-02-10 15:09:14 +0000";
layers = (
{
anchors = (
{
name = b.uni0591;
position = "{469, 0}";
},
{
name = b.uni0591.2;
position = "{322, 0}";
},
{
name = b.uni059A;
position = "{361, 0}";
},
{
name = b.uni05C5.1;
position = "{234, 0}";
},
{
name = t.uni0592;
position = "{273, 659}";
},
{
name = t.uni0592.2;
position = "{273, 659}";
},
{
name = t.uni0599;
position = "{68, 659}";
},
{
name = t.uni059D;
position = "{469, 659}";
},
{
name = t.uni05B9;
position = "{0, 698}";
},
{
name = t.uni05BC;
position = "{0, 343}";
},
{
name = t.uni05BF;
position = "{508, 698}";
},
{
name = t.uni05C4.1;
position = "{273, 830}";
}
);
layerId = "4E968995-FE0C-47C4-A23E-AA7FD2BAF135";
paths = (
{
closed = 1;
nodes = (
"297 -188 LINE",
"296 218 LINE",
"370 233 OFFCURVE",
"423 259 OFFCURVE",
"456 297 CURVE SMOOTH",
"488 334 OFFCURVE",
"507 392 OFFCURVE",
"514 468 CURVE SMOOTH",
"526 606 LINE",
"390 606 LINE",
"380 485 LINE SMOOTH",
"372 396 OFFCURVE",
"359 341 OFFCURVE",
"293 318 CURVE",
"289 354 OFFCURVE",
"280 389 OFFCURVE",
"267 419 CURVE SMOOTH",
"247 467 OFFCURVE",
"228 496 OFFCURVE",
"156 606 CURVE",
"5 606 LINE",
"65 515 OFFCURVE",
"103 455 OFFCURVE",
"120 426 CURVE SMOOTH",
"153 367 OFFCURVE",
"165 330 OFFCURVE",
"165 264 CURVE SMOOTH",
"165 -188 LINE"
);
}
);
width = 551;
},
{
anchors = (
{
name = b.uni0591;
position = "{469, 0}";
},
{
name = b.uni0591.2;
position = "{293, 0}";
},
{
name = b.uni059A;
position = "{361, 0}";
},
{
name = b.uni05C5.1;
position = "{205, 0}";
},
{
name = t.uni0592;
position = "{254, 659}";
},
{
name = t.uni0592.2;
position = "{254, 659}";
},
{
name = t.uni0599;
position = "{68, 659}";
},
{
name = t.uni059D;
position = "{439, 659}";
},
{
name = t.uni05B9;
position = "{0, 698}";
},
{
name = t.uni05BC;
position = "{0, 343}";
},
{
name = t.uni05BF;
position = "{479, 698}";
},
{
name = t.uni05C4.1;
position = "{254, 830}";
}
);
layerId = "B990E356-538D-4D06-ADE8-234C9F2D2C22";
paths = (
{
closed = 1;
nodes = (
"250 -188 LINE",
"250 230 LINE",
"323 244 OFFCURVE",
"375 269 OFFCURVE",
"408 305 CURVE SMOOTH",
"440 340 OFFCURVE",
"459 393 OFFCURVE",
"466 463 CURVE SMOOTH",
"479 599 LINE",
"385 599 LINE",
"375 478 LINE SMOOTH",
"367 374 OFFCURVE",
"344 325 OFFCURVE",
"248 301 CURVE",
"245 339 OFFCURVE",
"235 377 OFFCURVE",
"219 414 CURVE SMOOTH",
"203 451 OFFCURVE",
"167 513 OFFCURVE",
"111 599 CURVE",
"5 599 LINE",
"61 514 OFFCURVE",
"97 457 OFFCURVE",
"114 426 CURVE SMOOTH",
"145 369 OFFCURVE",
"160 326 OFFCURVE",
"160 266 CURVE SMOOTH",
"160 -188 LINE"
);
}
);
width = 504;
}
);
unicode = 05E5;
script = hebrew;
category = Letter;
subCategory = Spacing;
},
{
glyphname = uni05E6;
lastChange = "2022-02-10 15:12:46 +0000";
layers = (
{
anchors = (
{
name = b.uni0591;
position = "{273, 0}";
},
{
name = b.uni0591.2;
position = "{293, 0}";
},
{
name = b.uni059A;
position = "{391, 0}";
},
{
name = b.uni05C5.1;
position = "{273, 0}";
},
{
name = t.uni0592;
position = "{254, 659}";
},
{
name = t.uni0592.2;
position = "{254, 659}";
},
{
name = t.uni0599;
position = "{68, 659}";
},
{
name = t.uni059D;
position = "{439, 659}";
},
{
name = t.uni05B9;
position = "{0, 698}";
},
{
name = t.uni05BC;
position = "{0, 343}";
},
{
name = t.uni05BF;
position = "{479, 698}";
},
{
name = t.uni05C4.1;
position = "{254, 830}";
}
);
hints = (
{
horizontal = 1;
place = "{0, 83}";
type = Stem;
},
{
place = "{5, 497}";
type = Stem;
}
);
layerId = "B990E356-538D-4D06-ADE8-234C9F2D2C22";
paths = (
{
closed = 1;
nodes = (
"502 77 LINE",
"346 288 LINE",
"407 312 OFFCURVE",
"437 341 OFFCURVE",
"455 389 CURVE SMOOTH",
"464 412 OFFCURVE",
"471 447 OFFCURVE",
"475 492 CURVE SMOOTH",
"485 599 LINE",
"392 599 LINE",
"381 490 LINE",
"373 404 OFFCURVE",
"354 368 OFFCURVE",
"303 346 CURVE",
"117 599 LINE",
"5 599 LINE",
"390 83 LINE",
"41 83 LINE",
"41 0 LINE",
"502 0 LINE"
);
}
);
width = 545;
},
{
anchors = (
{
name = b.uni0591;
position = "{293, 0}";
},
{
name = b.uni0591.2;
position = "{293, 0}";
},
{
name = b.uni059A;
position = "{391, 0}";
},
{
name = b.uni05C5.1;
position = "{293, 0}";
},
{
name = t.uni0592;
position = "{283, 659}";
},
{
name = t.uni0592.2;
position = "{283, 659}";
},
{
name = t.uni0599;
position = "{68, 659}";
},
{
name = t.uni059D;
position = "{503, 659}";
},
{
name = t.uni05B9;
position = "{0, 698}";
},
{
name = t.uni05BC;
position = "{0, 343}";
},
{
name = t.uni05BF;
position = "{547, 698}";
},
{
name = t.uni05C4.1;
position = "{283, 830}";
}
);
hints = (
{
horizontal = 1;
place = "{0, 118}";
type = Stem;
},
{
place = "{5, 556}";
type = Stem;
}
);
layerId = "4E968995-FE0C-47C4-A23E-AA7FD2BAF135";
paths = (
{
closed = 1;
nodes = (
"556 85 LINE",
"408 278 LINE",
"474 305 OFFCURVE",
"509 337 OFFCURVE",
"529 387 CURVE SMOOTH",
"539 412 OFFCURVE",
"546 447 OFFCURVE",
"551 492 CURVE SMOOTH",
"561 606 LINE",
"426 606 LINE",
"415 493 LINE SMOOTH",
"407 413 OFFCURVE",
"391 376 OFFCURVE",
"348 355 CURVE",
"163 606 LINE",
"5 606 LINE",
"372 118 LINE",
"44 118 LINE",
"44 0 LINE",
"556 0 LINE"
);
}
);
width = 609;
}
);
unicode = 05E6;
script = hebrew;
category = Letter;
subCategory = Spacing;
},
{
glyphname = uni05E7;
lastChange = "2022-02-10 15:21:33 +0000";
layers = (
{
anchors = (
{
name = b.uni0591;
position = "{410, 0}";
},
{
name = b.uni0591.2;
position = "{303, 0}";
},
{
name = b.uni059A;
position = "{293, 0}";
},
{
name = b.uni05C5.1;
position = "{303, 0}";
},
{
name = t.uni0592;
position = "{273, 659}";
},
{
name = t.uni0592.2;
position = "{273, 659}";
},
{
name = t.uni0599;
position = "{117, 659}";
},
{
name = t.uni059D;
position = "{488, 659}";
},
{
name = t.uni05B9;
position = "{29, 698}";
},
{
name = t.uni05BC;
position = "{0, 343}";
},
{
name = t.uni05BF;
position = "{527, 698}";
},
{
name = t.uni05C4.1;
position = "{273, 830}";
}
);
hints = (
{
horizontal = 1;
place = "{516, 83}";
type = Stem;
},
{
place = "{85, 90}";
type = Stem;
},
{
place = "{444, 92}";
type = Stem;
}
);
layerId = "B990E356-538D-4D06-ADE8-234C9F2D2C22";
paths = (
{
closed = 1;
nodes = (
"60 516 LINE",
"317 516 LINE SMOOTH",
"410 516 OFFCURVE",
"444 488 OFFCURVE",
"444 401 CURVE SMOOTH",
"444 266 OFFCURVE",
"368 151 OFFCURVE",
"232 90 CURVE",
"232 -13 LINE",
"418 65 OFFCURVE",
"535 229 OFFCURVE",
"535 413 CURVE SMOOTH",
"535 546 OFFCURVE",
"474 599 OFFCURVE",
"313 599 CURVE SMOOTH",
"60 599 LINE"
);
},
{
closed = 1;
nodes = (
"85 -188 LINE",
"175 -188 LINE",
"175 389 LINE",
"85 389 LINE"
);
}
);
width = 590;
},
{
anchors = (
{
name = b.uni0591;
position = "{410, 0}";
},
{
name = b.uni0591.2;
position = "{303, 0}";
},
{
name = b.uni059A;
position = "{293, 0}";
},
{
name = b.uni05C5.1;
position = "{322, 0}";
},
{
name = t.uni0592;
position = "{293, 659}";
},
{
name = t.uni0592.2;
position = "{293, 659}";
},
{
name = t.uni0599;
position = "{117, 659}";
},
{
name = t.uni059D;
position = "{518, 659}";
},
{
name = t.uni05B9;
position = "{29, 698}";
},
{
name = t.uni05BC;
position = "{0, 343}";
},
{
name = t.uni05BF;
position = "{566, 698}";
},
{
name = t.uni05C4.1;
position = "{293, 830}";
}
);
hints = (
{
horizontal = 1;
place = "{488, 118}";
type = Stem;
},
{
place = "{85, 132}";
type = Stem;
},
{
place = "{466, 134}";
type = Stem;
}
);
layerId = "4E968995-FE0C-47C4-A23E-AA7FD2BAF135";
paths = (
{
closed = 1;
nodes = (
"60 488 LINE",
"343 488 LINE SMOOTH",
"434 488 OFFCURVE",
"466 462 OFFCURVE",
"466 389 CURVE SMOOTH",
"466 278 OFFCURVE",
"396 177 OFFCURVE",
"274 120 CURVE",
"274 -20 LINE",
"483 66 OFFCURVE",
"599 219 OFFCURVE",
"599 405 CURVE SMOOTH",
"599 547 OFFCURVE",
"527 606 OFFCURVE",
"362 606 CURVE SMOOTH",
"60 606 LINE"
);
},
{
closed = 1;
nodes = (
"85 -188 LINE",
"217 -188 LINE",
"217 372 LINE",
"85 372 LINE"
);
}
);
width = 654;
}
);
unicode = 05E7;
script = hebrew;
category = Letter;
subCategory = Spacing;
},
{
glyphname = uni05E8;
lastChange = "2022-02-10 15:21:30 +0000";
layers = (
{
anchors = (
{
name = b.uni0591;
position = "{400, 0}";
},
{
name = b.uni0591.2;
position = "{342, 0}";
},
{
name = b.uni059A;
position = "{371, 0}";
},
{
name = b.uni05C5.1;
position = "{244, 0}";
},
{
name = t.uni0592;
position = "{205, 659}";
},
{
name = t.uni0592.2;
position = "{205, 659}";
},
{
name = t.uni0599;
position = "{68, 659}";
},
{
name = t.uni059D;
position = "{420, 659}";
},
{
name = t.uni05B9;
position = "{0, 698}";
},
{
name = t.uni05BC;
position = "{0, 343}";
},
{
name = t.uni05BF;
position = "{420, 698}";
},
{
name = t.uni05C4.1;
position = "{205, 830}";
}
);
hints = (
{
horizontal = 1;
place = "{516, 83}";
type = Stem;
},
{
place = "{364, 91}";
type = Stem;
}
);
layerId = "B990E356-538D-4D06-ADE8-234C9F2D2C22";
paths = (
{
closed = 1;
nodes = (
"454 351 LINE SMOOTH",
"454 528 OFFCURVE",
"383 599 OFFCURVE",
"203 599 CURVE SMOOTH",
"19 599 LINE",
"19 516 LINE",
"202 516 LINE SMOOTH",
"322 516 OFFCURVE",
"364 471 OFFCURVE",
"364 352 CURVE SMOOTH",
"364 0 LINE",
"454 0 LINE"
);
}
);
width = 534;
},
{
anchors = (
{
name = b.uni0591;
position = "{430, 0}";
},
{
name = b.uni0591.2;
position = "{273, 0}";
},
{
name = b.uni059A;
position = "{371, 0}";
},
{
name = b.uni05C5.1;
position = "{244, 0}";
},
{
name = t.uni0592;
position = "{234, 659}";
},
{
name = t.uni0592.2;
position = "{234, 659}";
},
{
name = t.uni0599;
position = "{68, 659}";
},
{
name = t.uni059D;
position = "{420, 659}";
},
{
name = t.uni05B9;
position = "{0, 698}";
},
{
name = t.uni05BC;
position = "{0, 343}";
},
{
name = t.uni05BF;
position = "{479, 698}";
},
{
name = t.uni05C4.1;
position = "{234, 830}";
}
);
hints = (
{
horizontal = 1;
place = "{488, 118}";
type = Stem;
},
{
place = "{364, 133}";
type = Stem;
}
);
layerId = "4E968995-FE0C-47C4-A23E-AA7FD2BAF135";
paths = (
{
closed = 1;
nodes = (
"496 351 LINE SMOOTH",
"496 534 OFFCURVE",
"422 606 OFFCURVE",
"230 606 CURVE SMOOTH",
"19 606 LINE",
"19 488 LINE",
"222 488 LINE SMOOTH",
"324 488 OFFCURVE",
"364 453 OFFCURVE",
"364 352 CURVE SMOOTH",
"364 0 LINE",
"496 0 LINE"
);
}
);
width = 576;
}
);
unicode = 05E8;
script = hebrew;
category = Letter;
subCategory = Spacing;
},
{
glyphname = uni05E9;
lastChange = "2022-02-10 15:21:24 +0000";
layers = (
{
anchors = (
{
name = b.uni0591;
position = "{391, 0}";
},
{
name = b.uni0591.2;
position = "{391, 0}";
},
{
name = b.uni059A;
position = "{586, 0}";
},
{
name = b.uni05C5.1;
position = "{391, 0}";
},
{
name = t.uni0592;
position = "{410, 659}";
},
{
name = t.uni0592.2;
position = "{410, 659}";
},
{
name = t.uni0599;
position = "{68, 659}";
},
{
name = t.uni059D;
position = "{713, 659}";
},
{
name = t.uni05B9;
position = "{0, 698}";
},
{
name = t.uni05BC;
position = "{0, 343}";
},
{
name = t.uni05BF;
position = "{742, 698}";
},
{
name = t.uni05C1;
position = "{760, 698}";
},
{
name = t.uni05C4.1;
position = "{410, 830}";
}
);
layerId = "4E968995-FE0C-47C4-A23E-AA7FD2BAF135";
paths = (
{
closed = 1;
nodes = (
"267 -5 OFFCURVE",
"364 0 OFFCURVE",
"433 11 CURVE SMOOTH",
"502 21 OFFCURVE",
"557 37 OFFCURVE",
"597 60 CURVE SMOOTH",
"637 83 OFFCURVE",
"668 115 OFFCURVE",
"689 157 CURVE SMOOTH",
"710 199 OFFCURVE",
"726 262 OFFCURVE",
"736 346 CURVE SMOOTH",
"767 606 LINE",
"631 606 LINE",
"600 343 LINE SMOOTH",
"592 279 OFFCURVE",
"579 232 OFFCURVE",
"557 201 CURVE SMOOTH",
"535 170 OFFCURVE",
"502 147 OFFCURVE",
"458 134 CURVE SMOOTH",
"414 120 OFFCURVE",
"351 113 OFFCURVE",
"270 113 CURVE SMOOTH",
"258 113 LINE",
"238 213 LINE",
"311 230 LINE SMOOTH",
"353 240 OFFCURVE",
"384 252 OFFCURVE",
"403 268 CURVE",
"450 304 OFFCURVE",
"464 367 OFFCURVE",
"470 439 CURVE SMOOTH",
"485 606 LINE",
"350 606 LINE",
"343 497 LINE",
"337 429 OFFCURVE",
"332 370 OFFCURVE",
"304 343 CURVE",
"293 333 OFFCURVE",
"277 325 OFFCURVE",
"255 321 CURVE SMOOTH",
"219 314 LINE",
"166 606 LINE",
"28 606 LINE",
"142 -5 LINE"
);
}
);
width = 805;
},
{
anchors = (
{
name = b.uni0591;
position = "{352, 0}";
},
{
name = b.uni0591.2;
position = "{352, 0}";
},
{
name = b.uni059A;
position = "{527, 0}";
},
{
name = b.uni05C5.1;
position = "{352, 0}";
},
{
name = t.uni0592;
position = "{371, 659}";
},
{
name = t.uni0592.2;
position = "{342, 659}";
},
{
name = t.uni0599;
position = "{68, 659}";
},
{
name = t.uni059D;
position = "{635, 659}";
},
{
name = t.uni05B9;
position = "{0, 698}";
},
{
name = t.uni05BC;
position = "{0, 343}";
},
{
name = t.uni05BF;
position = "{664, 698}";
},
{
name = t.uni05C1;
position = "{700, 698}";
},
{
name = t.uni05C4.1;
position = "{371, 830}";
}
);
layerId = "B990E356-538D-4D06-ADE8-234C9F2D2C22";
paths = (
{
closed = 1;
nodes = (
"250 -4 OFFCURVE",
"335 1 OFFCURVE",
"395 12 CURVE SMOOTH",
"454 22 OFFCURVE",
"500 38 OFFCURVE",
"534 61 CURVE SMOOTH",
"568 83 OFFCURVE",
"594 115 OFFCURVE",
"613 157 CURVE SMOOTH",
"631 198 OFFCURVE",
"646 261 OFFCURVE",
"656 346 CURVE",
"687 599 LINE",
"593 599 LINE",
"562 343 LINE SMOOTH",
"554 280 OFFCURVE",
"544 233 OFFCURVE",
"532 204 CURVE SMOOTH",
"517 168 OFFCURVE",
"494 141 OFFCURVE",
"461 124 CURVE SMOOTH",
"404 93 OFFCURVE",
"315 87 OFFCURVE",
"229 87 CURVE SMOOTH",
"217 87 LINE",
"193 213 LINE",
"266 230 LINE",
"304 240 OFFCURVE",
"331 252 OFFCURVE",
"347 265 CURVE SMOOTH",
"388 298 OFFCURVE",
"397 360 OFFCURVE",
"404 439 CURVE SMOOTH",
"419 599 LINE",
"326 599 LINE",
"314 440 LINE SMOOTH",
"310 393 OFFCURVE",
"302 359 OFFCURVE",
"288 339 CURVE",
"273 319 OFFCURVE",
"249 306 OFFCURVE",
"214 298 CURVE",
"178 291 LINE",
"118 599 LINE",
"25 599 LINE",
"139 -5 LINE"
);
}
);
width = 730;
}
);
unicode = 05E9;
script = hebrew;
category = Letter;
subCategory = Spacing;
},
{
glyphname = uni05EA;
lastChange = "2022-02-10 15:21:22 +0000";
layers = (
{
anchors = (
{
name = b.uni0591;
position = "{322, 0}";
},
{
name = b.uni0591.2;
position = "{322, 0}";
},
{
name = b.uni059A;
position = "{527, 0}";
},
{
name = b.uni05C5.1;
position = "{322, 0}";
},
{
name = t.uni0592;
position = "{342, 659}";
},
{
name = t.uni0592.2;
position = "{322, 659}";
},
{
name = t.uni0599;
position = "{98, 659}";
},
{
name = t.uni059D;
position = "{537, 659}";
},
{
name = t.uni05B9;
position = "{0, 698}";
},
{
name = t.uni05BC;
position = "{0, 343}";
},
{
name = t.uni05BF;
position = "{586, 698}";
},
{
name = t.uni05C4.1;
position = "{342, 830}";
}
);
hints = (
{
horizontal = 1;
place = "{0, 83}";
type = Stem;
},
{
horizontal = 1;
place = "{516, 83}";
type = Stem;
},
{
place = "{128, 90}";
type = Stem;
},
{
place = "{521, 90}";
type = Stem;
}
);
layerId = "B990E356-538D-4D06-ADE8-234C9F2D2C22";
paths = (
{
closed = 1;
nodes = (
"128 214 LINE SMOOTH",
"128 143 OFFCURVE",
"118 112 OFFCURVE",
"92 96 CURVE",
"79 87 OFFCURVE",
"61 83 OFFCURVE",
"38 83 CURVE SMOOTH",
"30 83 LINE",
"30 0 LINE",
"35 0 LINE SMOOTH",
"139 0 OFFCURVE",
"180 27 OFFCURVE",
"202 93 CURVE SMOOTH",
"212 125 OFFCURVE",
"218 172 OFFCURVE",
"218 232 CURVE SMOOTH",
"218 516 LINE",
"358 516 LINE SMOOTH",
"479 516 OFFCURVE",
"521 472 OFFCURVE",
"521 352 CURVE SMOOTH",
"521 0 LINE",
"611 0 LINE",
"611 351 LINE SMOOTH",
"611 529 OFFCURVE",
"539 599 OFFCURVE",
"359 599 CURVE SMOOTH",
"35 599 LINE",
"35 516 LINE",
"128 516 LINE"
);
}
);
width = 691;
},
{
anchors = (
{
name = b.uni0591;
position = "{361, 0}";
},
{
name = b.uni0591.2;
position = "{361, 0}";
},
{
name = b.uni059A;
position = "{508, 0}";
},
{
name = b.uni05C5.1;
position = "{361, 0}";
},
{
name = t.uni0592;
position = "{342, 659}";
},
{
name = t.uni0592.2;
position = "{342, 659}";
},
{
name = t.uni0599;
position = "{98, 659}";
},
{
name = t.uni059D;
position = "{557, 659}";
},
{
name = t.uni05B9;
position = "{0, 698}";
},
{
name = t.uni05BC;
position = "{0, 343}";
},
{
name = t.uni05BF;
position = "{605, 698}";
},
{
name = t.uni05C4.1;
position = "{342, 830}";
}
);
hints = (
{
horizontal = 1;
place = "{0, 118}";
type = Stem;
},
{
horizontal = 1;
place = "{488, 118}";
type = Stem;
},
{
place = "{128, 132}";
type = Stem;
},
{
place = "{506, 133}";
type = Stem;
}
);
layerId = "4E968995-FE0C-47C4-A23E-AA7FD2BAF135";
paths = (
{
closed = 1;
nodes = (
"128 249 LINE SMOOTH",
"128 178 OFFCURVE",
"118 147 OFFCURVE",
"92 131 CURVE SMOOTH",
"79 123 OFFCURVE",
"61 118 OFFCURVE",
"38 118 CURVE SMOOTH",
"30 118 LINE",
"30 0 LINE",
"63 0 LINE SMOOTH",
"166 0 OFFCURVE",
"215 30 OFFCURVE",
"241 97 CURVE SMOOTH",
"253 130 OFFCURVE",
"260 175 OFFCURVE",
"260 232 CURVE SMOOTH",
"260 488 LINE",
"367 488 LINE SMOOTH",
"467 488 OFFCURVE",
"506 452 OFFCURVE",
"506 348 CURVE SMOOTH",
"506 0 LINE",
"638 0 LINE",
"638 350 LINE SMOOTH",
"638 533 OFFCURVE",
"563 606 OFFCURVE",
"375 606 CURVE SMOOTH",
"35 606 LINE",
"35 488 LINE",
"128 488 LINE"
);
}
);
width = 718;
}
);
unicode = 05EA;
script = hebrew;
category = Letter;
subCategory = Spacing;
},
{
glyphname = uni05F0;
lastChange = "2022-02-10 15:09:14 +0000";
layers = (
{
anchors = (
{
name = b.uni0591;
position = "{254, 0}";
},
{
name = b.uni0591.2;
position = "{176, 0}";
},
{
name = b.uni059A;
position = "{342, 0}";
},
{
name = b.uni05C5.1;
position = "{254, 0}";
},
{
name = t.uni0592;
position = "{254, 659}";
},
{
name = t.uni0592.2;
position = "{254, 659}";
},
{
name = t.uni0599;
position = "{98, 659}";
},
{
name = t.uni059D;
position = "{381, 659}";
},
{
name = t.uni05B9;
position = "{29, 698}";
},
{
name = t.uni05BC;
position = "{0, 343}";
},
{
name = t.uni05BF;
position = "{430, 698}";
},
{
name = t.uni05C4.1;
position = "{254, 830}";
}
);
hints = (
{
horizontal = 1;
place = "{0, 599}";
type = Stem;
},
{
place = "{85, 90}";
type = Stem;
},
{
place = "{334, 90}";
type = Stem;
}
);
layerId = "B990E356-538D-4D06-ADE8-234C9F2D2C22";
paths = (
{
closed = 1;
nodes = (
"175 0 LINE",
"175 599 LINE",
"85 599 LINE",
"85 0 LINE"
);
},
{
closed = 1;
nodes = (
"424 0 LINE",
"424 599 LINE",
"334 599 LINE",
"334 0 LINE"
);
}
);
width = 509;
},
{
anchors = (
{
name = b.uni0591;
position = "{293, 0}";
},
{
name = b.uni0591.2;
position = "{195, 0}";
},
{
name = b.uni059A;
position = "{391, 0}";
},
{
name = b.uni05C5.1;
position = "{293, 0}";
},
{
name = t.uni0592;
position = "{293, 659}";
},
{
name = t.uni0592.2;
position = "{293, 659}";
},
{
name = t.uni0599;
position = "{127, 659}";
},
{
name = t.uni059D;
position = "{454, 659}";
},
{
name = t.uni05B9;
position = "{29, 698}";
},
{
name = t.uni05BC;
position = "{0, 343}";
},
{
name = t.uni05BF;
position = "{498, 698}";
},
{
name = t.uni05C4.1;
position = "{293, 830}";
}
);
hints = (
{
horizontal = 1;
place = "{0, 606}";
type = Stem;
},
{
place = "{85, 132}";
type = Stem;
},
{
place = "{255, 132}";
type = Stem;
}
);
layerId = "4E968995-FE0C-47C4-A23E-AA7FD2BAF135";
paths = (
{
closed = 1;
nodes = (
"217 0 LINE",
"217 606 LINE",
"85 606 LINE",
"85 0 LINE"
);
},
{
closed = 1;
nodes = (
"519 0 LINE",
"519 606 LINE",
"387 606 LINE",
"387 0 LINE"
);
}
);
width = 604;
}
);
unicode = 05F0;
script = hebrew;
category = Letter;
subCategory = Spacing;
},
{
glyphname = uni05F1;
lastChange = "2022-02-10 15:09:14 +0000";
layers = (
{
anchors = (
{
name = b.uni0591;
position = "{254, 0}";
},
{
name = b.uni0591.2;
position = "{176, 0}";
},
{
name = b.uni059A;
position = "{342, 0}";
},
{
name = b.uni05C5.1;
position = "{254, 0}";
},
{
name = t.uni0592;
position = "{254, 659}";
},
{
name = t.uni0592.2;
position = "{254, 659}";
},
{
name = t.uni0599;
position = "{98, 659}";
},
{
name = t.uni059D;
position = "{381, 659}";
},
{
name = t.uni05B9;
position = "{39, 698}";
},
{
name = t.uni05BC;
position = "{0, 343}";
},
{
name = t.uni05BF;
position = "{430, 698}";
},
{
name = t.uni05C4.1;
position = "{254, 830}";
}
);
hints = (
{
horizontal = 1;
place = "{0, 599}";
type = Stem;
},
{
place = "{85, 90}";
type = Stem;
},
{
place = "{334, 90}";
type = Stem;
}
);
layerId = "B990E356-538D-4D06-ADE8-234C9F2D2C22";
paths = (
{
closed = 1;
nodes = (
"175 284 LINE",
"175 599 LINE",
"85 599 LINE",
"85 284 LINE"
);
},
{
closed = 1;
nodes = (
"424 0 LINE",
"424 599 LINE",
"334 599 LINE",
"334 0 LINE"
);
}
);
width = 509;
},
{
anchors = (
{
name = b.uni0591;
position = "{293, 0}";
},
{
name = b.uni0591.2;
position = "{195, 0}";
},
{
name = b.uni059A;
position = "{391, 0}";
},
{
name = b.uni05C5.1;
position = "{293, 0}";
},
{
name = t.uni0592;
position = "{293, 659}";
},
{
name = t.uni0592.2;
position = "{293, 659}";
},
{
name = t.uni0599;
position = "{127, 659}";
},
{
name = t.uni059D;
position = "{454, 659}";
},
{
name = t.uni05B9;
position = "{39, 698}";
},
{
name = t.uni05BC;
position = "{0, 343}";
},
{
name = t.uni05BF;
position = "{498, 698}";
},
{
name = t.uni05C4.1;
position = "{293, 830}";
}
);
hints = (
{
horizontal = 1;
place = "{0, 606}";
type = Stem;
},
{
place = "{85, 132}";
type = Stem;
},
{
place = "{255, 132}";
type = Stem;
}
);
layerId = "4E968995-FE0C-47C4-A23E-AA7FD2BAF135";
paths = (
{
closed = 1;
nodes = (
"217 284 LINE",
"217 606 LINE",
"85 606 LINE",
"85 284 LINE"
);
},
{
closed = 1;
nodes = (
"519 0 LINE",
"519 606 LINE",
"387 606 LINE",
"387 0 LINE"
);
}
);
width = 604;
}
);
unicode = 05F1;
script = hebrew;
category = Letter;
subCategory = Spacing;
},
{
glyphname = uni05F2;
lastChange = "2022-02-10 15:09:14 +0000";
layers = (
{
anchors = (
{
name = b.uni0591;
position = "{254, 0}";
},
{
name = b.uni0591.2;
position = "{176, 0}";
},
{
name = b.uni059A;
position = "{342, 0}";
},
{
name = b.uni05C5.1;
position = "{254, 0}";
},
{
name = t.uni0592;
position = "{254, 659}";
},
{
name = t.uni0592.2;
position = "{254, 659}";
},
{
name = t.uni0599;
position = "{98, 659}";
},
{
name = t.uni059D;
position = "{381, 659}";
},
{
name = t.uni05B9;
position = "{39, 698}";
},
{
name = t.uni05BC;
position = "{0, 343}";
},
{
name = t.uni05BF;
position = "{430, 698}";
},
{
name = t.uni05C4.1;
position = "{254, 830}";
}
);
hints = (
{
horizontal = 1;
place = "{284, 315}";
type = Stem;
},
{
place = "{85, 90}";
type = Stem;
},
{
place = "{334, 90}";
type = Stem;
}
);
layerId = "B990E356-538D-4D06-ADE8-234C9F2D2C22";
paths = (
{
closed = 1;
nodes = (
"175 284 LINE",
"175 599 LINE",
"85 599 LINE",
"85 284 LINE"
);
},
{
closed = 1;
nodes = (
"424 284 LINE",
"424 599 LINE",
"334 599 LINE",
"334 284 LINE"
);
}
);
width = 509;
},
{
anchors = (
{
name = b.uni0591;
position = "{293, 0}";
},
{
name = b.uni0591.2;
position = "{195, 0}";
},
{
name = b.uni059A;
position = "{391, 0}";
},
{
name = b.uni05C5.1;
position = "{293, 0}";
},
{
name = t.uni0592;
position = "{293, 659}";
},
{
name = t.uni0592.2;
position = "{293, 659}";
},
{
name = t.uni0599;
position = "{127, 659}";
},
{
name = t.uni059D;
position = "{454, 659}";
},
{
name = t.uni05B9;
position = "{39, 698}";
},
{
name = t.uni05BC;
position = "{0, 343}";
},
{
name = t.uni05BF;
position = "{498, 698}";
},
{
name = t.uni05C4.1;
position = "{293, 830}";
}
);
hints = (
{
horizontal = 1;
place = "{284, 322}";
type = Stem;
},
{
place = "{85, 132}";
type = Stem;
},
{
place = "{255, 132}";
type = Stem;
}
);
layerId = "4E968995-FE0C-47C4-A23E-AA7FD2BAF135";
paths = (
{
closed = 1;
nodes = (
"217 284 LINE",
"217 606 LINE",
"85 606 LINE",
"85 284 LINE"
);
},
{
closed = 1;
nodes = (
"519 284 LINE",
"519 606 LINE",
"387 606 LINE",
"387 284 LINE"
);
}
);
width = 604;
}
);
unicode = 05F2;
script = hebrew;
category = Letter;
subCategory = Spacing;
},
{
glyphname = uni05F3;
lastChange = "2022-02-09 09:21:10 +0000";
layers = (
{
hints = (
{
horizontal = 1;
place = "{503, 310}";
type = Stem;
},
{
place = "{105, 180}";
type = Stem;
}
);
layerId = "B990E356-538D-4D06-ADE8-234C9F2D2C22";
paths = (
{
closed = 1;
nodes = (
"172 813 LINE",
"105 503 LINE",
"172 503 LINE",
"285 813 LINE"
);
}
);
width = 385;
},
{
hints = (
{
horizontal = 1;
place = "{503, 310}";
type = Stem;
},
{
place = "{105, 201}";
type = Stem;
}
);
layerId = "4E968995-FE0C-47C4-A23E-AA7FD2BAF135";
paths = (
{
closed = 1;
nodes = (
"172 813 LINE",
"105 503 LINE",
"193 503 LINE",
"306 813 LINE"
);
}
);
width = 406;
}
);
unicode = 05F3;
script = hebrew;
category = Letter;
subCategory = Spacing;
},
{
glyphname = uni05F4;
lastChange = "2022-02-09 09:21:10 +0000";
layers = (
{
hints = (
{
horizontal = 1;
place = "{503, 310}";
type = Stem;
},
{
place = "{105, 398}";
type = Stem;
}
);
layerId = "B990E356-538D-4D06-ADE8-234C9F2D2C22";
paths = (
{
closed = 1;
nodes = (
"172 813 LINE",
"105 503 LINE",
"172 503 LINE",
"285 813 LINE"
);
},
{
closed = 1;
nodes = (
"390 813 LINE",
"323 503 LINE",
"390 503 LINE",
"503 813 LINE"
);
}
);
width = 603;
},
{
hints = (
{
horizontal = 1;
place = "{503, 310}";
type = Stem;
},
{
place = "{105, 419}";
type = Stem;
}
);
layerId = "4E968995-FE0C-47C4-A23E-AA7FD2BAF135";
paths = (
{
closed = 1;
nodes = (
"172 813 LINE",
"105 503 LINE",
"193 503 LINE",
"306 813 LINE"
);
},
{
closed = 1;
nodes = (
"390 813 LINE",
"323 503 LINE",
"411 503 LINE",
"524 813 LINE"
);
}
);
width = 624;
}
);
unicode = 05F4;
script = hebrew;
category = Letter;
subCategory = Spacing;
},
{
glyphname = uni20AA;
lastChange = "2022-02-10 15:12:59 +0000";
layers = (
{
anchors = (
{
name = t.uni05BC;
position = "{0, 343}";
}
);
layerId = "4E968995-FE0C-47C4-A23E-AA7FD2BAF135";
paths = (
{
closed = 1;
nodes = (
"566 0 LINE SMOOTH",
"648 0 OFFCURVE",
"707 21 OFFCURVE",
"743 63 CURVE SMOOTH",
"778 105 OFFCURVE",
"796 175 OFFCURVE",
"796 271 CURVE SMOOTH",
"796 606 LINE",
"684 606 LINE",
"684 280 LINE SMOOTH",
"684 231 OFFCURVE",
"681 194 OFFCURVE",
"673 170 CURVE",
"657 116 OFFCURVE",
"621 104 OFFCURVE",
"554 104 CURVE SMOOTH",
"399 104 LINE",
"399 391 LINE",
"286 391 LINE",
"286 0 LINE"
);
},
{
closed = 1;
nodes = (
"200 0 LINE",
"200 502 LINE",
"351 502 LINE SMOOTH",
"389 502 OFFCURVE",
"417 497 OFFCURVE",
"435 487 CURVE SMOOTH",
"478 462 OFFCURVE",
"484 399 OFFCURVE",
"484 325 CURVE SMOOTH",
"484 204 LINE",
"597 204 LINE",
"597 342 LINE SMOOTH",
"597 469 OFFCURVE",
"568 543 OFFCURVE",
"503 579 CURVE SMOOTH",
"470 597 OFFCURVE",
"425 606 OFFCURVE",
"367 606 CURVE SMOOTH",
"88 606 LINE",
"88 0 LINE"
);
}
);
width = 884;
},
{
anchors = (
{
name = t.uni05BC;
position = "{0, 343}";
}
);
layerId = "B990E356-538D-4D06-ADE8-234C9F2D2C22";
paths = (
{
closed = 1;
nodes = (
"539 0 LINE SMOOTH",
"639 0 OFFCURVE",
"707 24 OFFCURVE",
"739 108 CURVE SMOOTH",
"754 146 OFFCURVE",
"761 198 OFFCURVE",
"761 264 CURVE SMOOTH",
"761 599 LINE",
"671 599 LINE",
"671 270 LINE SMOOTH",
"671 222 OFFCURVE",
"667 184 OFFCURVE",
"659 158 CURVE SMOOTH",
"643 101 OFFCURVE",
"605 83 OFFCURVE",
"538 83 CURVE SMOOTH",
"372 83 LINE",
"372 356 LINE",
"282 356 LINE",
"282 0 LINE"
);
},
{
closed = 1;
nodes = (
"178 0 LINE",
"178 516 LINE",
"342 516 LINE SMOOTH",
"378 516 OFFCURVE",
"406 510 OFFCURVE",
"424 499 CURVE SMOOTH",
"469 471 OFFCURVE",
"476 405 OFFCURVE",
"476 329 CURVE SMOOTH",
"476 206 LINE",
"566 206 LINE",
"566 335 LINE SMOOTH",
"566 440 OFFCURVE",
"549 533 OFFCURVE",
"476 573 CURVE SMOOTH",
"444 590 OFFCURVE",
"400 599 OFFCURVE",
"344 599 CURVE SMOOTH",
"88 599 LINE",
"88 0 LINE"
);
}
);
width = 849;
}
);
unicode = 20AA;
script = "";
category = Letter;
subCategory = Spacing;
},
{
glyphname = uniFB1D;
lastChange = "2022-02-09 09:21:10 +0000";
layers = (
{
hints = (
{
place = "{85, 90}";
type = Stem;
},
{
place = "{91, 78}";
type = Stem;
},
{
horizontal = 1;
place = "{144, 77}";
type = Stem;
}
);
layerId = "B990E356-538D-4D06-ADE8-234C9F2D2C22";
paths = (
{
closed = 1;
nodes = (
"91 160 OFFCURVE",
"109 144 OFFCURVE",
"130 144 CURVE SMOOTH",
"151 144 OFFCURVE",
"169 160 OFFCURVE",
"169 181 CURVE SMOOTH",
"169 204 OFFCURVE",
"151 220 OFFCURVE",
"130 220 CURVE SMOOTH",
"109 220 OFFCURVE",
"91 204 OFFCURVE",
"91 181 CURVE SMOOTH"
);
},
{
closed = 1;
nodes = (
"175 284 LINE",
"175 599 LINE",
"85 599 LINE",
"85 284 LINE"
);
}
);
width = 260;
},
{
hints = (
{
place = "{85, 132}";
type = Stem;
},
{
place = "{112, 78}";
type = Stem;
},
{
horizontal = 1;
place = "{144, 77}";
type = Stem;
}
);
layerId = "4E968995-FE0C-47C4-A23E-AA7FD2BAF135";
paths = (
{
closed = 1;
nodes = (
"112 160 OFFCURVE",
"130 144 OFFCURVE",
"151 144 CURVE SMOOTH",
"172 144 OFFCURVE",
"190 160 OFFCURVE",
"190 181 CURVE SMOOTH",
"190 204 OFFCURVE",
"172 220 OFFCURVE",
"151 220 CURVE SMOOTH",
"130 220 OFFCURVE",
"112 204 OFFCURVE",
"112 181 CURVE SMOOTH"
);
},
{
closed = 1;
nodes = (
"217 284 LINE",
"217 606 LINE",
"85 606 LINE",
"85 284 LINE"
);
}
);
width = 302;
}
);
unicode = FB1D;
script = hebrew;
category = Letter;
subCategory = Spacing;
},
{
glyphname = uniFB1E;
lastChange = "2022-02-09 16:06:15 +0000";
layers = (
{
anchors = (
{
name = _t.uni0592;
position = "{0, 698}";
},
{
name = _t.uni05BF;
position = "{0, 698}";
}
);
hints = (
{
horizontal = 1;
place = "{706, 72}";
type = Stem;
},
{
place = "{-161, 79}";
type = Stem;
},
{
place = "{82, 79}";
type = Stem;
}
);
layerId = "B990E356-538D-4D06-ADE8-234C9F2D2C22";
paths = (
{
closed = 1;
nodes = (
"82 861 LINE",
"82 813 OFFCURVE",
"50 778 OFFCURVE",
"0 778 CURVE SMOOTH",
"-51 778 OFFCURVE",
"-82 811 OFFCURVE",
"-82 861 CURVE",
"-161 861 LINE",
"-161 769 OFFCURVE",
"-98 706 OFFCURVE",
"0 706 CURVE SMOOTH",
"98 706 OFFCURVE",
"161 767 OFFCURVE",
"161 861 CURVE"
);
}
);
width = 0;
},
{
anchors = (
{
name = _t.uni0592;
position = "{0, 698}";
},
{
name = _t.uni05BF;
position = "{0, 698}";
}
);
hints = (
{
horizontal = 1;
place = "{706, 79}";
type = Stem;
},
{
place = "{-168, 100}";
type = Stem;
},
{
place = "{68, 100}";
type = Stem;
}
);
layerId = "4E968995-FE0C-47C4-A23E-AA7FD2BAF135";
paths = (
{
closed = 1;
nodes = (
"68 861 LINE",
"68 817 OFFCURVE",
"41 785 OFFCURVE",
"0 785 CURVE SMOOTH",
"-42 785 OFFCURVE",
"-68 817 OFFCURVE",
"-68 861 CURVE",
"-168 861 LINE",
"-168 763 OFFCURVE",
"-105 706 OFFCURVE",
"0 706 CURVE SMOOTH",
"105 706 OFFCURVE",
"168 761 OFFCURVE",
"168 861 CURVE"
);
}
);
width = 0;
}
);
unicode = FB1E;
script = hebrew;
category = Mark;
subCategory = Nonspacing;
},
{
glyphname = uniFB1F;
lastChange = "2022-02-10 10:18:31 +0000";
layers = (
{
anchors = (
{
name = b.uni0591;
position = "{254, 0}";
},
{
name = b.uni0591.2;
position = "{176, 0}";
},
{
name = b.uni059A;
position = "{342, 0}";
},
{
name = b.uni05C5.1;
position = "{254, 0}";
},
{
name = t.uni0592;
position = "{254, 659}";
},
{
name = t.uni0592.2;
position = "{254, 659}";
},
{
name = t.uni0599;
position = "{98, 659}";
},
{
name = t.uni059D;
position = "{381, 659}";
},
{
name = t.uni05B9;
position = "{29, 698}";
},
{
name = t.uni05BF;
position = "{430, 698}";
},
{
name = t.uni05C4.1;
position = "{254, 830}";
}
);
hints = (
{
horizontal = 1;
place = "{155, 52}";
type = Stem;
},
{
place = "{85, 90}";
type = Stem;
},
{
place = "{334, 90}";
type = Stem;
}
);
layerId = "B990E356-538D-4D06-ADE8-234C9F2D2C22";
paths = (
{
closed = 1;
nodes = (
"175 284 LINE",
"175 599 LINE",
"85 599 LINE",
"85 284 LINE"
);
},
{
closed = 1;
nodes = (
"424 284 LINE",
"424 599 LINE",
"334 599 LINE",
"334 284 LINE"
);
},
{
closed = 1;
nodes = (
"335 154 LINE",
"335 206 LINE",
"175 206 LINE",
"175 154 LINE"
);
}
);
width = 509;
},
{
anchors = (
{
name = b.uni0591;
position = "{293, 0}";
},
{
name = b.uni0591.2;
position = "{195, 0}";
},
{
name = b.uni059A;
position = "{391, 0}";
},
{
name = b.uni05C5.1;
position = "{293, 0}";
},
{
name = t.uni0592;
position = "{293, 659}";
},
{
name = t.uni0592.2;
position = "{293, 659}";
},
{
name = t.uni0599;
position = "{127, 659}";
},
{
name = t.uni059D;
position = "{454, 659}";
},
{
name = t.uni05B9;
position = "{29, 698}";
},
{
name = t.uni05BF;
position = "{498, 698}";
},
{
name = t.uni05C4.1;
position = "{293, 830}";
}
);
hints = (
{
horizontal = 1;
place = "{73, 52}";
type = Stem;
},
{
place = "{85, 132}";
type = Stem;
},
{
place = "{255, 132}";
type = Stem;
}
);
layerId = "4E968995-FE0C-47C4-A23E-AA7FD2BAF135";
paths = (
{
closed = 1;
nodes = (
"217 284 LINE",
"217 606 LINE",
"85 606 LINE",
"85 284 LINE"
);
},
{
closed = 1;
nodes = (
"519 284 LINE",
"519 606 LINE",
"387 606 LINE",
"387 284 LINE"
);
},
{
closed = 1;
nodes = (
"382 73 LINE",
"382 125 LINE",
"222 125 LINE",
"222 73 LINE"
);
}
);
width = 604;
}
);
unicode = FB1F;
script = hebrew;
category = Letter;
subCategory = Spacing;
},
{
glyphname = uniFB20;
lastChange = "2022-02-10 15:21:04 +0000";
layers = (
{
anchors = (
{
name = t.uni05BC;
position = "{327, 396}";
}
);
hints = (
{
horizontal = 1;
place = "{-16, 615}";
type = Stem;
},
{
place = "{438, 94}";
type = Stem;
}
);
layerId = "B990E356-538D-4D06-ADE8-234C9F2D2C22";
paths = (
{
closed = 1;
nodes = (
"20 -16 LINE",
"285 -2 OFFCURVE",
"420 76 OFFCURVE",
"484 246 CURVE SMOOTH",
"516 331 OFFCURVE",
"532 448 OFFCURVE",
"532 599 CURVE",
"438 599 LINE",
"438 328 OFFCURVE",
"401 207 OFFCURVE",
"310 142 CURVE",
"150 599 LINE",
"51 599 LINE",
"232 104 LINE",
"181 87 OFFCURVE",
"110 79 OFFCURVE",
"20 79 CURVE"
);
}
);
width = 582;
},
{
anchors = (
{
name = t.uni05BC;
position = "{343, 411}";
}
);
hints = (
{
horizontal = 1;
place = "{-23, 629}";
type = Stem;
},
{
place = "{432, 136}";
type = Stem;
}
);
layerId = "4E968995-FE0C-47C4-A23E-AA7FD2BAF135";
paths = (
{
closed = 1;
nodes = (
"20 -23 LINE",
"302 -11 OFFCURVE",
"447 66 OFFCURVE",
"516 242 CURVE SMOOTH",
"551 329 OFFCURVE",
"568 451 OFFCURVE",
"568 606 CURVE",
"432 606 LINE",
"432 368 OFFCURVE",
"404 250 OFFCURVE",
"330 191 CURVE",
"186 606 LINE",
"43 606 LINE",
"216 132 LINE",
"169 117 OFFCURVE",
"104 108 OFFCURVE",
"20 107 CURVE"
);
}
);
width = 618;
}
);
unicode = FB20;
script = hebrew;
category = Letter;
subCategory = Spacing;
},
{
glyphname = uniFB21;
lastChange = "2022-02-10 15:09:14 +0000";
layers = (
{
anchors = (
{
name = b.uni0591;
position = "{322, 0}";
},
{
name = b.uni0591.2;
position = "{322, 0}";
},
{
name = b.uni059A;
position = "{518, 0}";
},
{
name = b.uni05C5.1;
position = "{322, 0}";
},
{
name = t.uni0592;
position = "{322, 659}";
},
{
name = t.uni0592.2;
position = "{322, 659}";
},
{
name = t.uni0599;
position = "{117, 659}";
},
{
name = t.uni059D;
position = "{527, 659}";
},
{
name = t.uni05B9;
position = "{29, 698}";
},
{
name = t.uni05BC;
position = "{0, 343}";
},
{
name = t.uni05BF;
position = "{547, 698}";
},
{
name = t.uni05C4.1;
position = "{322, 830}";
}
);
hints = (
{
horizontal = 1;
place = "{0, 599}";
type = Stem;
},
{
place = "{32, 583}";
type = Stem;
}
);
layerId = "B990E356-538D-4D06-ADE8-234C9F2D2C22";
paths = (
{
closed = 1;
nodes = (
"202 406 LINE",
"152 386 OFFCURVE",
"125 359 OFFCURVE",
"105 313 CURVE",
"96 290 OFFCURVE",
"85 250 OFFCURVE",
"73 195 CURVE SMOOTH",
"32 0 LINE",
"127 0 LINE",
"166 197 LINE SMOOTH",
"174 238 OFFCURVE",
"181 268 OFFCURVE",
"188 284 CURVE",
"199 317 OFFCURVE",
"215 336 OFFCURVE",
"243 350 CURVE",
"501 0 LINE",
"615 0 LINE",
"439 233 LINE",
"506 299 OFFCURVE",
"533 342 OFFCURVE",
"552 398 CURVE SMOOTH",
"562 426 OFFCURVE",
"568 458 OFFCURVE",
"572 492 CURVE SMOOTH",
"583 599 LINE",
"490 599 LINE",
"479 490 LINE",
"470 406 OFFCURVE",
"441 341 OFFCURVE",
"392 296 CURVE",
"172 599 LINE",
"61 599 LINE"
);
}
);
width = 628;
},
{
anchors = (
{
name = b.uni0591;
position = "{322, 0}";
},
{
name = b.uni0591.2;
position = "{322, 0}";
},
{
name = b.uni059A;
position = "{518, 0}";
},
{
name = b.uni05C5.1;
position = "{322, 0}";
},
{
name = t.uni0592;
position = "{356, 659}";
},
{
name = t.uni0592.2;
position = "{356, 659}";
},
{
name = t.uni0599;
position = "{117, 659}";
},
{
name = t.uni059D;
position = "{576, 659}";
},
{
name = t.uni05B9;
position = "{29, 698}";
},
{
name = t.uni05BC;
position = "{0, 343}";
},
{
name = t.uni05BF;
position = "{615, 698}";
},
{
name = t.uni05C4.1;
position = "{356, 830}";
}
);
hints = (
{
horizontal = 1;
place = "{0, 606}";
type = Stem;
},
{
place = "{32, 632}";
type = Stem;
}
);
layerId = "4E968995-FE0C-47C4-A23E-AA7FD2BAF135";
paths = (
{
closed = 1;
nodes = (
"202 417 LINE",
"151 395 OFFCURVE",
"125 370 OFFCURVE",
"105 322 CURVE",
"96 298 OFFCURVE",
"85 258 OFFCURVE",
"73 202 CURVE",
"32 0 LINE",
"169 0 LINE",
"199 177 LINE",
"208 235 OFFCURVE",
"217 274 OFFCURVE",
"224 294 CURVE SMOOTH",
"231 313 OFFCURVE",
"244 328 OFFCURVE",
"261 338 CURVE",
"505 0 LINE",
"664 0 LINE",
"482 248 LINE",
"556 314 OFFCURVE",
"583 351 OFFCURVE",
"603 403 CURVE",
"612 429 OFFCURVE",
"619 458 OFFCURVE",
"622 490 CURVE SMOOTH",
"634 606 LINE",
"499 606 LINE",
"489 499 LINE",
"479 414 OFFCURVE",
"460 369 OFFCURVE",
"419 332 CURVE",
"221 606 LINE",
"61 606 LINE"
);
}
);
width = 682;
}
);
unicode = FB21;
script = hebrew;
category = Letter;
subCategory = Spacing;
},
{
glyphname = uniFB22;
lastChange = "2022-02-10 15:09:14 +0000";
layers = (
{
anchors = (
{
name = b.uni0591;
position = "{405, 0}";
},
{
name = b.uni0591.2;
position = "{273, 0}";
},
{
name = b.uni059A;
position = "{371, 0}";
},
{
name = b.uni05C5.1;
position = "{273, 0}";
},
{
name = t.uni0592;
position = "{264, 659}";
},
{
name = t.uni0592.2;
position = "{273, 659}";
},
{
name = t.uni0599;
position = "{68, 659}";
},
{
name = t.uni059D;
position = "{439, 659}";
},
{
name = t.uni05B9;
position = "{0, 698}";
},
{
name = t.uni05BC;
position = "{0, 343}";
},
{
name = t.uni05BF;
position = "{469, 698}";
},
{
name = t.uni05C4.1;
position = "{264, 830}";
}
);
hints = (
{
horizontal = 1;
place = "{516, 83}";
type = Stem;
},
{
place = "{362, 91}";
type = Stem;
}
);
layerId = "B990E356-538D-4D06-ADE8-234C9F2D2C22";
paths = (
{
closed = 1;
nodes = (
"527 516 LINE",
"527 599 LINE",
"20 599 LINE",
"20 516 LINE",
"362 516 LINE",
"362 0 LINE",
"452 0 LINE",
"452 516 LINE"
);
}
);
width = 554;
},
{
anchors = (
{
name = b.uni0591;
position = "{405, 0}";
},
{
name = b.uni0591.2;
position = "{254, 0}";
},
{
name = b.uni059A;
position = "{352, 0}";
},
{
name = b.uni05C5.1;
position = "{405, 0}";
},
{
name = t.uni0592;
position = "{273, 659}";
},
{
name = t.uni0592.2;
position = "{273, 659}";
},
{
name = t.uni0599;
position = "{68, 659}";
},
{
name = t.uni059D;
position = "{439, 659}";
},
{
name = t.uni05B9;
position = "{0, 698}";
},
{
name = t.uni05BC;
position = "{0, 343}";
},
{
name = t.uni05BF;
position = "{479, 698}";
},
{
name = t.uni05C4.1;
position = "{273, 830}";
}
);
hints = (
{
horizontal = 1;
place = "{488, 118}";
type = Stem;
},
{
place = "{348, 132}";
type = Stem;
}
);
layerId = "4E968995-FE0C-47C4-A23E-AA7FD2BAF135";
paths = (
{
closed = 1;
nodes = (
"555 488 LINE",
"555 606 LINE",
"20 606 LINE",
"20 488 LINE",
"348 488 LINE",
"348 0 LINE",
"480 0 LINE",
"480 488 LINE"
);
}
);
width = 582;
}
);
unicode = FB22;
script = hebrew;
category = Letter;
subCategory = Spacing;
},
{
glyphname = uniFB23;
lastChange = "2022-02-10 15:09:14 +0000";
layers = (
{
anchors = (
{
name = b.uni0591;
position = "{322, 0}";
},
{
name = b.uni0591.2;
position = "{322, 0}";
},
{
name = b.uni059A;
position = "{469, 0}";
},
{
name = b.uni05C5.1;
position = "{322, 0}";
},
{
name = t.uni0592;
position = "{293, 659}";
},
{
name = t.uni0592.2;
position = "{322, 659}";
},
{
name = t.uni0599;
position = "{117, 659}";
},
{
name = t.uni059D;
position = "{488, 659}";
},
{
name = t.uni05B9;
position = "{29, 698}";
},
{
name = t.uni05BC;
position = "{0, 343}";
},
{
name = t.uni05BF;
position = "{488, 698}";
},
{
name = t.uni05C4.1;
position = "{293, 830}";
}
);
hints = (
{
horizontal = 1;
place = "{516, 83}";
type = Stem;
},
{
place = "{84, 90}";
type = Stem;
},
{
place = "{464, 91}";
type = Stem;
}
);
layerId = "B990E356-538D-4D06-ADE8-234C9F2D2C22";
paths = (
{
closed = 1;
nodes = (
"554 351 LINE SMOOTH",
"554 528 OFFCURVE",
"483 599 OFFCURVE",
"303 599 CURVE SMOOTH",
"74 599 LINE",
"74 516 LINE",
"302 516 LINE SMOOTH",
"421 516 OFFCURVE",
"464 472 OFFCURVE",
"464 352 CURVE SMOOTH",
"464 0 LINE",
"554 0 LINE"
);
},
{
closed = 1;
nodes = (
"84 389 LINE",
"84 0 LINE",
"174 0 LINE",
"174 389 LINE"
);
}
);
width = 634;
},
{
anchors = (
{
name = b.uni0591;
position = "{342, 0}";
},
{
name = b.uni0591.2;
position = "{342, 0}";
},
{
name = b.uni059A;
position = "{469, 0}";
},
{
name = b.uni05C5.1;
position = "{342, 0}";
},
{
name = t.uni0592;
position = "{322, 659}";
},
{
name = t.uni0592.2;
position = "{322, 659}";
},
{
name = t.uni0599;
position = "{117, 659}";
},
{
name = t.uni059D;
position = "{527, 659}";
},
{
name = t.uni05B9;
position = "{29, 698}";
},
{
name = t.uni05BC;
position = "{0, 343}";
},
{
name = t.uni05BF;
position = "{576, 698}";
},
{
name = t.uni05C4.1;
position = "{322, 830}";
}
);
hints = (
{
horizontal = 1;
place = "{488, 118}";
type = Stem;
},
{
place = "{84, 132}";
type = Stem;
},
{
place = "{464, 133}";
type = Stem;
}
);
layerId = "4E968995-FE0C-47C4-A23E-AA7FD2BAF135";
paths = (
{
closed = 1;
nodes = (
"596 351 LINE SMOOTH",
"596 533 OFFCURVE",
"522 606 OFFCURVE",
"330 606 CURVE SMOOTH",
"74 606 LINE",
"74 488 LINE",
"322 488 LINE SMOOTH",
"427 488 OFFCURVE",
"464 452 OFFCURVE",
"464 352 CURVE SMOOTH",
"464 0 LINE",
"596 0 LINE"
);
},
{
closed = 1;
nodes = (
"84 368 LINE",
"84 0 LINE",
"216 0 LINE",
"216 368 LINE"
);
}
);
width = 676;
}
);
unicode = FB23;
script = hebrew;
category = Letter;
subCategory = Spacing;
},
{
glyphname = uniFB24;
lastChange = "2022-02-10 15:09:14 +0000";
layers = (
{
anchors = (
{
name = b.uni0591;
position = "{225, 0}";
},
{
name = b.uni0591.2;
position = "{225, 0}";
},
{
name = b.uni059A;
position = "{371, 0}";
},
{
name = b.uni05C5.1;
position = "{225, 0}";
},
{
name = t.uni0592;
position = "{195, 659}";
},
{
name = t.uni0592.2;
position = "{225, 659}";
},
{
name = t.uni0599;
position = "{98, 659}";
},
{
name = t.uni059D;
position = "{391, 659}";
},
{
name = t.uni05B9;
position = "{0, 698}";
},
{
name = t.uni05BC;
position = "{0, 343}";
},
{
name = t.uni05BF;
position = "{430, 698}";
},
{
name = t.uni05C4.1;
position = "{195, 830}";
}
);
hints = (
{
horizontal = 1;
place = "{0, 83}";
type = Stem;
},
{
horizontal = 1;
place = "{516, 83}";
type = Stem;
},
{
place = "{379, 92}";
type = Stem;
}
);
layerId = "B990E356-538D-4D06-ADE8-234C9F2D2C22";
paths = (
{
closed = 1;
nodes = (
"470 308 LINE SMOOTH",
"470 502 OFFCURVE",
"378 599 OFFCURVE",
"195 599 CURVE SMOOTH",
"39 599 LINE",
"39 516 LINE",
"197 516 LINE SMOOTH",
"320 516 OFFCURVE",
"379 448 OFFCURVE",
"379 309 CURVE SMOOTH",
"379 290 LINE SMOOTH",
"379 152 OFFCURVE",
"321 83 OFFCURVE",
"197 83 CURVE SMOOTH",
"39 83 LINE",
"39 0 LINE",
"195 0 LINE SMOOTH",
"378 0 OFFCURVE",
"470 97 OFFCURVE",
"470 291 CURVE SMOOTH"
);
}
);
width = 525;
},
{
anchors = (
{
name = b.uni0591;
position = "{225, 0}";
},
{
name = b.uni0591.2;
position = "{225, 0}";
},
{
name = b.uni059A;
position = "{371, 0}";
},
{
name = b.uni05C5.1;
position = "{225, 0}";
},
{
name = t.uni0592;
position = "{225, 659}";
},
{
name = t.uni0592.2;
position = "{225, 659}";
},
{
name = t.uni0599;
position = "{98, 659}";
},
{
name = t.uni059D;
position = "{410, 659}";
},
{
name = t.uni05B9;
position = "{0, 698}";
},
{
name = t.uni05BC;
position = "{0, 343}";
},
{
name = t.uni05BF;
position = "{479, 698}";
},
{
name = t.uni05C4.1;
position = "{225, 830}";
}
);
hints = (
{
horizontal = 1;
place = "{0, 118}";
type = Stem;
},
{
horizontal = 1;
place = "{488, 118}";
type = Stem;
},
{
place = "{365, 133}";
type = Stem;
}
);
layerId = "4E968995-FE0C-47C4-A23E-AA7FD2BAF135";
paths = (
{
closed = 1;
nodes = (
"498 316 LINE SMOOTH",
"498 509 OFFCURVE",
"401 606 OFFCURVE",
"208 606 CURVE SMOOTH",
"39 606 LINE",
"39 488 LINE",
"196 488 LINE SMOOTH",
"310 488 OFFCURVE",
"365 431 OFFCURVE",
"365 309 CURVE SMOOTH",
"365 296 LINE SMOOTH",
"365 176 OFFCURVE",
"311 118 OFFCURVE",
"194 118 CURVE SMOOTH",
"39 118 LINE",
"39 0 LINE",
"201 0 LINE SMOOTH",
"398 0 OFFCURVE",
"498 98 OFFCURVE",
"498 291 CURVE SMOOTH"
);
}
);
width = 553;
}
);
unicode = FB24;
script = hebrew;
category = Letter;
subCategory = Spacing;
},
{
glyphname = uniFB26;
lastChange = "2022-02-10 15:12:59 +0000";
layers = (
{
anchors = (
{
name = b.uni0591;
position = "{332, 0}";
},
{
name = b.uni0591.2;
position = "{332, 0}";
},
{
name = b.uni059A;
position = "{527, 0}";
},
{
name = b.uni05C5.1;
position = "{332, 0}";
},
{
name = t.uni0592;
position = "{322, 659}";
},
{
name = t.uni0592.2;
position = "{332, 659}";
},
{
name = t.uni0599;
position = "{117, 659}";
},
{
name = t.uni059D;
position = "{488, 659}";
},
{
name = t.uni05B9;
position = "{29, 698}";
},
{
name = t.uni05BC;
position = "{0, 343}";
},
{
name = t.uni05BF;
position = "{586, 698}";
},
{
name = t.uni05C4.1;
position = "{322, 830}";
}
);
hints = (
{
horizontal = 1;
place = "{0, 83}";
type = Stem;
},
{
horizontal = 1;
place = "{516, 83}";
type = Stem;
},
{
place = "{85, 90}";
type = Stem;
},
{
place = "{508, 91}";
type = Stem;
}
);
layerId = "B990E356-538D-4D06-ADE8-234C9F2D2C22";
paths = (
{
closed = 1;
nodes = (
"598 351 LINE SMOOTH",
"598 528 OFFCURVE",
"527 599 OFFCURVE",
"347 599 CURVE SMOOTH",
"85 599 LINE",
"85 0 LINE",
"598 0 LINE"
);
},
{
closed = 1;
nodes = (
"346 516 LINE SMOOTH",
"466 516 OFFCURVE",
"508 471 OFFCURVE",
"508 352 CURVE SMOOTH",
"508 83 LINE",
"175 83 LINE",
"175 516 LINE"
);
}
);
width = 678;
},
{
anchors = (
{
name = b.uni0591;
position = "{356, 0}";
},
{
name = b.uni0591.2;
position = "{356, 0}";
},
{
name = b.uni059A;
position = "{527, 0}";
},
{
name = b.uni05C5.1;
position = "{356, 0}";
},
{
name = t.uni0592;
position = "{332, 659}";
},
{
name = t.uni0592.2;
position = "{332, 659}";
},
{
name = t.uni0599;
position = "{117, 659}";
},
{
name = t.uni059D;
position = "{566, 659}";
},
{
name = t.uni05B9;
position = "{29, 698}";
},
{
name = t.uni05BC;
position = "{0, 343}";
},
{
name = t.uni05BF;
position = "{625, 698}";
},
{
name = t.uni05C4.1;
position = "{332, 830}";
}
);
hints = (
{
horizontal = 1;
place = "{0, 118}";
type = Stem;
},
{
horizontal = 1;
place = "{488, 118}";
type = Stem;
},
{
place = "{85, 132}";
type = Stem;
},
{
place = "{508, 133}";
type = Stem;
}
);
layerId = "4E968995-FE0C-47C4-A23E-AA7FD2BAF135";
paths = (
{
closed = 1;
nodes = (
"640 351 LINE SMOOTH",
"640 533 OFFCURVE",
"560 606 OFFCURVE",
"367 606 CURVE SMOOTH",
"85 606 LINE",
"85 0 LINE",
"640 0 LINE"
);
},
{
closed = 1;
nodes = (
"367 488 LINE SMOOTH",
"471 488 OFFCURVE",
"508 447 OFFCURVE",
"508 336 CURVE SMOOTH",
"508 118 LINE",
"217 118 LINE",
"217 488 LINE"
);
}
);
width = 720;
}
);
unicode = FB26;
script = hebrew;
category = Letter;
subCategory = Spacing;
},
{
glyphname = uniFB27;
lastChange = "2022-02-10 15:09:14 +0000";
layers = (
{
anchors = (
{
name = b.uni0591;
position = "{400, 0}";
},
{
name = b.uni0591.2;
position = "{342, 0}";
},
{
name = b.uni059A;
position = "{371, 0}";
},
{
name = b.uni05C5.1;
position = "{244, 0}";
},
{
name = t.uni0592;
position = "{205, 659}";
},
{
name = t.uni0592.2;
position = "{205, 659}";
},
{
name = t.uni0599;
position = "{68, 659}";
},
{
name = t.uni059D;
position = "{420, 659}";
},
{
name = t.uni05B9;
position = "{0, 698}";
},
{
name = t.uni05BC;
position = "{0, 343}";
},
{
name = t.uni05BF;
position = "{420, 698}";
},
{
name = t.uni05C4.1;
position = "{205, 830}";
}
);
hints = (
{
horizontal = 1;
place = "{516, 83}";
type = Stem;
},
{
place = "{364, 91}";
type = Stem;
}
);
layerId = "B990E356-538D-4D06-ADE8-234C9F2D2C22";
paths = (
{
closed = 1;
nodes = (
"454 351 LINE SMOOTH",
"454 528 OFFCURVE",
"383 599 OFFCURVE",
"203 599 CURVE SMOOTH",
"19 599 LINE",
"19 516 LINE",
"202 516 LINE SMOOTH",
"322 516 OFFCURVE",
"364 471 OFFCURVE",
"364 352 CURVE SMOOTH",
"364 0 LINE",
"454 0 LINE"
);
}
);
width = 534;
},
{
anchors = (
{
name = b.uni0591;
position = "{430, 0}";
},
{
name = b.uni0591.2;
position = "{273, 0}";
},
{
name = b.uni059A;
position = "{371, 0}";
},
{
name = b.uni05C5.1;
position = "{244, 0}";
},
{
name = t.uni0592;
position = "{234, 659}";
},
{
name = t.uni0592.2;
position = "{234, 659}";
},
{
name = t.uni0599;
position = "{68, 659}";
},
{
name = t.uni059D;
position = "{420, 659}";
},
{
name = t.uni05B9;
position = "{0, 698}";
},
{
name = t.uni05BC;
position = "{0, 343}";
},
{
name = t.uni05BF;
position = "{479, 698}";
},
{
name = t.uni05C4.1;
position = "{234, 830}";
}
);
hints = (
{
horizontal = 1;
place = "{488, 118}";
type = Stem;
},
{
place = "{364, 133}";
type = Stem;
}
);
layerId = "4E968995-FE0C-47C4-A23E-AA7FD2BAF135";
paths = (
{
closed = 1;
nodes = (
"496 351 LINE SMOOTH",
"496 534 OFFCURVE",
"422 606 OFFCURVE",
"230 606 CURVE SMOOTH",
"19 606 LINE",
"19 488 LINE",
"222 488 LINE SMOOTH",
"324 488 OFFCURVE",
"364 453 OFFCURVE",
"364 352 CURVE SMOOTH",
"364 0 LINE",
"496 0 LINE"
);
}
);
width = 576;
}
);
unicode = FB27;
script = hebrew;
category = Letter;
subCategory = Spacing;
},
{
glyphname = uniFB28;
lastChange = "2022-02-10 15:09:14 +0000";
layers = (
{
anchors = (
{
name = b.uni0591;
position = "{322, 0}";
},
{
name = b.uni0591.2;
position = "{322, 0}";
},
{
name = b.uni059A;
position = "{527, 0}";
},
{
name = b.uni05C5.1;
position = "{322, 0}";
},
{
name = t.uni0592;
position = "{342, 659}";
},
{
name = t.uni0592.2;
position = "{322, 659}";
},
{
name = t.uni0599;
position = "{98, 659}";
},
{
name = t.uni059D;
position = "{537, 659}";
},
{
name = t.uni05B9;
position = "{0, 698}";
},
{
name = t.uni05BC;
position = "{0, 343}";
},
{
name = t.uni05BF;
position = "{586, 698}";
},
{
name = t.uni05C4.1;
position = "{342, 830}";
}
);
hints = (
{
horizontal = 1;
place = "{0, 83}";
type = Stem;
},
{
horizontal = 1;
place = "{516, 83}";
type = Stem;
},
{
place = "{128, 90}";
type = Stem;
},
{
place = "{521, 90}";
type = Stem;
}
);
layerId = "B990E356-538D-4D06-ADE8-234C9F2D2C22";
paths = (
{
closed = 1;
nodes = (
"128 214 LINE SMOOTH",
"128 143 OFFCURVE",
"118 112 OFFCURVE",
"92 96 CURVE",
"79 87 OFFCURVE",
"61 83 OFFCURVE",
"38 83 CURVE SMOOTH",
"30 83 LINE",
"30 0 LINE",
"35 0 LINE SMOOTH",
"139 0 OFFCURVE",
"180 27 OFFCURVE",
"202 93 CURVE SMOOTH",
"212 125 OFFCURVE",
"218 172 OFFCURVE",
"218 232 CURVE SMOOTH",
"218 516 LINE",
"358 516 LINE SMOOTH",
"479 516 OFFCURVE",
"521 472 OFFCURVE",
"521 352 CURVE SMOOTH",
"521 0 LINE",
"611 0 LINE",
"611 351 LINE SMOOTH",
"611 529 OFFCURVE",
"539 599 OFFCURVE",
"359 599 CURVE SMOOTH",
"35 599 LINE",
"35 516 LINE",
"128 516 LINE"
);
}
);
width = 691;
},
{
anchors = (
{
name = b.uni0591;
position = "{361, 0}";
},
{
name = b.uni0591.2;
position = "{361, 0}";
},
{
name = b.uni059A;
position = "{508, 0}";
},
{
name = b.uni05C5.1;
position = "{361, 0}";
},
{
name = t.uni0592;
position = "{342, 659}";
},
{
name = t.uni0592.2;
position = "{342, 659}";
},
{
name = t.uni0599;
position = "{98, 659}";
},
{
name = t.uni059D;
position = "{557, 659}";
},
{
name = t.uni05B9;
position = "{0, 698}";
},
{
name = t.uni05BC;
position = "{0, 343}";
},
{
name = t.uni05BF;
position = "{605, 698}";
},
{
name = t.uni05C4.1;
position = "{342, 830}";
}
);
hints = (
{
horizontal = 1;
place = "{0, 118}";
type = Stem;
},
{
horizontal = 1;
place = "{488, 118}";
type = Stem;
},
{
place = "{128, 132}";
type = Stem;
},
{
place = "{506, 133}";
type = Stem;
}
);
layerId = "4E968995-FE0C-47C4-A23E-AA7FD2BAF135";
paths = (
{
closed = 1;
nodes = (
"128 249 LINE SMOOTH",
"128 178 OFFCURVE",
"118 147 OFFCURVE",
"92 131 CURVE SMOOTH",
"79 123 OFFCURVE",
"61 118 OFFCURVE",
"38 118 CURVE SMOOTH",
"30 118 LINE",
"30 0 LINE",
"63 0 LINE SMOOTH",
"166 0 OFFCURVE",
"215 30 OFFCURVE",
"241 97 CURVE SMOOTH",
"253 130 OFFCURVE",
"260 175 OFFCURVE",
"260 232 CURVE SMOOTH",
"260 488 LINE",
"367 488 LINE SMOOTH",
"467 488 OFFCURVE",
"506 452 OFFCURVE",
"506 348 CURVE SMOOTH",
"506 0 LINE",
"638 0 LINE",
"638 350 LINE SMOOTH",
"638 533 OFFCURVE",
"563 606 OFFCURVE",
"375 606 CURVE SMOOTH",
"35 606 LINE",
"35 488 LINE",
"128 488 LINE"
);
}
);
width = 718;
}
);
unicode = FB28;
script = hebrew;
category = Letter;
subCategory = Spacing;
},
{
glyphname = uniFB29;
lastChange = "2022-02-10 15:12:59 +0000";
layers = (
{
anchors = (
{
name = t.uni05BC;
position = "{0, 343}";
}
);
hints = (
{
horizontal = 1;
place = "{251, 91}";
type = Stem;
},
{
place = "{235, 92}";
type = Stem;
}
);
layerId = "B990E356-538D-4D06-ADE8-234C9F2D2C22";
paths = (
{
closed = 1;
nodes = (
"326 342 LINE",
"326 551 LINE",
"235 551 LINE",
"235 342 LINE",
"44 342 LINE",
"44 251 LINE",
"519 251 LINE",
"519 342 LINE"
);
}
);
width = 562;
},
{
anchors = (
{
name = t.uni05BC;
position = "{0, 343}";
}
);
hints = (
{
horizontal = 1;
place = "{223, 126}";
type = Stem;
},
{
place = "{235, 134}";
type = Stem;
}
);
layerId = "4E968995-FE0C-47C4-A23E-AA7FD2BAF135";
paths = (
{
closed = 1;
nodes = (
"368 349 LINE",
"368 558 LINE",
"235 558 LINE",
"235 349 LINE",
"44 349 LINE",
"44 223 LINE",
"561 223 LINE",
"561 349 LINE"
);
}
);
width = 604;
}
);
unicode = FB29;
script = hebrew;
category = Letter;
subCategory = Spacing;
},
{
glyphname = uniFB2E;
lastChange = "2022-02-10 15:13:15 +0000";
layers = (
{
anchors = (
{
name = b.uni0591;
position = "{176, 0}";
},
{
name = b.uni0591.2;
position = "{469, 0}";
},
{
name = b.uni059A;
position = "{518, 0}";
},
{
name = b.uni05C5.1;
position = "{322, 0}";
},
{
name = t.uni0592;
position = "{322, 659}";
},
{
name = t.uni0592.2;
position = "{322, 659}";
},
{
name = t.uni0599;
position = "{117, 659}";
},
{
name = t.uni059D;
position = "{527, 659}";
},
{
name = t.uni05B9;
position = "{29, 698}";
},
{
name = t.uni05BC;
position = "{0, 343}";
},
{
name = t.uni05BF;
position = "{547, 698}";
},
{
name = t.uni05C4.1;
position = "{322, 830}";
}
);
hints = (
{
horizontal = 1;
place = "{-113, 52}";
type = Stem;
},
{
place = "{32, 583}";
type = Stem;
}
);
layerId = "B990E356-538D-4D06-ADE8-234C9F2D2C22";
paths = (
{
closed = 1;
nodes = (
"202 406 LINE",
"152 386 OFFCURVE",
"125 359 OFFCURVE",
"105 313 CURVE",
"96 290 OFFCURVE",
"85 250 OFFCURVE",
"73 195 CURVE SMOOTH",
"32 0 LINE",
"127 0 LINE",
"166 197 LINE SMOOTH",
"174 238 OFFCURVE",
"181 268 OFFCURVE",
"188 284 CURVE",
"199 317 OFFCURVE",
"215 336 OFFCURVE",
"243 350 CURVE",
"501 0 LINE",
"615 0 LINE",
"439 233 LINE",
"506 299 OFFCURVE",
"533 342 OFFCURVE",
"552 398 CURVE SMOOTH",
"562 426 OFFCURVE",
"568 458 OFFCURVE",
"572 492 CURVE SMOOTH",
"583 599 LINE",
"490 599 LINE",
"479 490 LINE",
"470 406 OFFCURVE",
"441 341 OFFCURVE",
"392 296 CURVE",
"172 599 LINE",
"61 599 LINE"
);
},
{
closed = 1;
nodes = (
"394 -113 LINE",
"394 -61 LINE",
"234 -61 LINE",
"234 -113 LINE"
);
}
);
width = 628;
},
{
anchors = (
{
name = b.uni0591;
position = "{176, 0}";
},
{
name = b.uni0591.2;
position = "{479, 0}";
},
{
name = b.uni059A;
position = "{518, 0}";
},
{
name = b.uni05C5.1;
position = "{332, 0}";
},
{
name = t.uni0592;
position = "{356, 659}";
},
{
name = t.uni0592.2;
position = "{356, 659}";
},
{
name = t.uni0599;
position = "{117, 659}";
},
{
name = t.uni059D;
position = "{576, 659}";
},
{
name = t.uni05B9;
position = "{29, 698}";
},
{
name = t.uni05BC;
position = "{0, 343}";
},
{
name = t.uni05BF;
position = "{615, 698}";
},
{
name = t.uni05C4.1;
position = "{356, 830}";
}
);
hints = (
{
horizontal = 1;
place = "{-113, 52}";
type = Stem;
},
{
place = "{32, 632}";
type = Stem;
}
);
layerId = "4E968995-FE0C-47C4-A23E-AA7FD2BAF135";
paths = (
{
closed = 1;
nodes = (
"202 417 LINE",
"151 395 OFFCURVE",
"125 370 OFFCURVE",
"105 322 CURVE",
"96 298 OFFCURVE",
"85 258 OFFCURVE",
"73 202 CURVE",
"32 0 LINE",
"169 0 LINE",
"199 177 LINE",
"208 235 OFFCURVE",
"217 274 OFFCURVE",
"224 294 CURVE SMOOTH",
"231 313 OFFCURVE",
"244 328 OFFCURVE",
"261 338 CURVE",
"505 0 LINE",
"664 0 LINE",
"482 248 LINE",
"556 314 OFFCURVE",
"583 351 OFFCURVE",
"603 403 CURVE",
"612 429 OFFCURVE",
"619 458 OFFCURVE",
"622 490 CURVE SMOOTH",
"634 606 LINE",
"499 606 LINE",
"489 499 LINE",
"479 414 OFFCURVE",
"460 369 OFFCURVE",
"419 332 CURVE",
"221 606 LINE",
"61 606 LINE"
);
},
{
closed = 1;
nodes = (
"417 -113 LINE",
"417 -61 LINE",
"257 -61 LINE",
"257 -113 LINE"
);
}
);
width = 682;
}
);
unicode = FB2E;
script = hebrew;
category = Letter;
subCategory = Spacing;
},
{
glyphname = uniFB2F;
lastChange = "2022-02-10 15:13:15 +0000";
layers = (
{
anchors = (
{
name = b.uni0591;
position = "{176, 0}";
},
{
name = b.uni0591.2;
position = "{469, 0}";
},
{
name = b.uni059A;
position = "{518, 0}";
},
{
name = b.uni05C5.1;
position = "{322, 0}";
},
{
name = t.uni0592;
position = "{322, 659}";
},
{
name = t.uni0592.2;
position = "{322, 659}";
},
{
name = t.uni0599;
position = "{117, 659}";
},
{
name = t.uni059D;
position = "{527, 659}";
},
{
name = t.uni05B9;
position = "{29, 698}";
},
{
name = t.uni05BC;
position = "{0, 343}";
},
{
name = t.uni05BF;
position = "{547, 698}";
},
{
name = t.uni05C4.1;
position = "{322, 830}";
}
);
hints = (
{
horizontal = 1;
place = "{-113, 52}";
type = Stem;
},
{
place = "{288, 54}";
type = Stem;
}
);
layerId = "B990E356-538D-4D06-ADE8-234C9F2D2C22";
paths = (
{
closed = 1;
nodes = (
"202 406 LINE",
"152 386 OFFCURVE",
"125 359 OFFCURVE",
"105 313 CURVE",
"96 290 OFFCURVE",
"85 250 OFFCURVE",
"73 195 CURVE SMOOTH",
"32 0 LINE",
"127 0 LINE",
"166 197 LINE SMOOTH",
"174 238 OFFCURVE",
"181 268 OFFCURVE",
"188 284 CURVE",
"199 317 OFFCURVE",
"215 336 OFFCURVE",
"243 350 CURVE",
"501 0 LINE",
"615 0 LINE",
"439 233 LINE",
"506 299 OFFCURVE",
"533 342 OFFCURVE",
"552 398 CURVE SMOOTH",
"562 426 OFFCURVE",
"568 458 OFFCURVE",
"572 492 CURVE SMOOTH",
"583 599 LINE",
"490 599 LINE",
"479 490 LINE",
"470 406 OFFCURVE",
"441 341 OFFCURVE",
"392 296 CURVE",
"172 599 LINE",
"61 599 LINE"
);
},
{
closed = 1;
nodes = (
"342 -113 LINE",
"394 -113 LINE",
"394 -61 LINE",
"234 -61 LINE",
"234 -113 LINE",
"288 -113 LINE",
"288 -170 LINE",
"342 -170 LINE"
);
}
);
width = 628;
},
{
anchors = (
{
name = b.uni0591;
position = "{176, 0}";
},
{
name = b.uni0591.2;
position = "{479, 0}";
},
{
name = b.uni059A;
position = "{518, 0}";
},
{
name = b.uni05C5.1;
position = "{332, 0}";
},
{
name = t.uni0592;
position = "{356, 659}";
},
{
name = t.uni0592.2;
position = "{356, 659}";
},
{
name = t.uni0599;
position = "{117, 659}";
},
{
name = t.uni059D;
position = "{576, 659}";
},
{
name = t.uni05B9;
position = "{29, 698}";
},
{
name = t.uni05BC;
position = "{0, 343}";
},
{
name = t.uni05BF;
position = "{615, 698}";
},
{
name = t.uni05C4.1;
position = "{356, 830}";
}
);
hints = (
{
horizontal = 1;
place = "{-113, 52}";
type = Stem;
},
{
place = "{311, 54}";
type = Stem;
}
);
layerId = "4E968995-FE0C-47C4-A23E-AA7FD2BAF135";
paths = (
{
closed = 1;
nodes = (
"202 417 LINE",
"151 395 OFFCURVE",
"125 370 OFFCURVE",
"105 322 CURVE",
"96 298 OFFCURVE",
"85 258 OFFCURVE",
"73 202 CURVE",
"32 0 LINE",
"169 0 LINE",
"199 177 LINE",
"208 235 OFFCURVE",
"217 274 OFFCURVE",
"224 294 CURVE SMOOTH",
"231 313 OFFCURVE",
"244 328 OFFCURVE",
"261 338 CURVE",
"505 0 LINE",
"664 0 LINE",
"482 248 LINE",
"556 314 OFFCURVE",
"583 351 OFFCURVE",
"603 403 CURVE",
"612 429 OFFCURVE",
"619 458 OFFCURVE",
"622 490 CURVE SMOOTH",
"634 606 LINE",
"499 606 LINE",
"489 499 LINE",
"479 414 OFFCURVE",
"460 369 OFFCURVE",
"419 332 CURVE",
"221 606 LINE",
"61 606 LINE"
);
},
{
closed = 1;
nodes = (
"365 -113 LINE",
"417 -113 LINE",
"417 -61 LINE",
"257 -61 LINE",
"257 -113 LINE",
"311 -113 LINE",
"311 -170 LINE",
"365 -170 LINE"
);
}
);
width = 682;
}
);
unicode = FB2F;
script = hebrew;
category = Letter;
subCategory = Spacing;
},
